<svg version="1.1" id="Layer_1" xmlns="http://www.w3.org/2000/svg" xmlns:xlink="http://www.w3.org/1999/xlink" x="0px" y="0px"
	 width="100%" viewBox="0 0 512 512" enable-background="new 0 0 512 512" xml:space="preserve">
<path fill="#7C0000" opacity="1.000000" stroke="none" 
	d="
M259.000000,513.000000 
	C254.310745,513.000000 249.621490,513.000000 244.188568,512.795166 
	C239.305176,510.856812 234.970383,509.398224 231.666092,506.222717 
	C228.924530,503.587952 225.792114,502.846741 222.115143,502.866058 
	C203.787964,502.962372 185.460007,502.937561 167.132446,502.895538 
	C164.308823,502.889069 161.448669,502.797974 158.672119,502.340820 
	C155.162201,501.762970 153.150787,499.382446 152.700363,495.883179 
	C152.227173,492.207153 153.571533,489.383942 157.006287,487.666992 
	C159.197830,486.571503 161.529510,486.677032 163.856750,486.675842 
	C179.685181,486.667755 195.513718,486.693115 211.341919,486.632385 
	C213.067062,486.625763 215.017548,487.288147 216.487671,485.739960 
	C216.751587,484.008301 215.706390,482.811951 214.989212,481.550964 
	C210.542694,473.732849 205.905838,466.019470 201.617966,458.116272 
	C199.612152,454.419220 196.968231,453.128113 192.802856,453.160156 
	C171.477432,453.324371 150.149994,453.238007 128.823303,453.201721 
	C126.837234,453.198334 124.775185,453.223602 122.881660,452.727234 
	C118.922241,451.689301 116.546150,449.099884 116.699501,444.792603 
	C116.842117,440.787079 118.984695,438.229767 122.890060,437.422607 
	C124.987923,436.988953 127.177773,436.850891 129.327301,436.841095 
	C142.822861,436.779510 156.318893,436.816772 169.814346,436.743896 
	C171.327805,436.735718 173.138580,437.475861 174.656982,435.305298 
	C168.331985,430.671417 162.172791,425.898682 156.389542,420.675354 
	C155.428589,419.807465 154.190887,419.842926 153.107224,420.477753 
	C144.374542,425.593811 134.748810,424.359467 125.304901,424.442474 
	C115.115829,424.532013 106.675385,420.564636 100.598824,412.557892 
	C97.620941,408.634094 95.339165,409.231262 91.986565,411.460083 
	C77.164856,421.313721 71.870148,438.035095 73.755692,450.114319 
	C76.618568,468.454590 86.990997,480.582062 105.162834,485.597076 
	C111.384239,487.314026 117.750694,486.408234 124.050705,486.711853 
	C129.453613,486.972260 133.132538,490.226807 133.192825,494.716614 
	C133.249329,498.925293 129.857788,502.283722 124.602577,502.677887 
	C116.096619,503.315887 107.632332,502.906250 99.343163,500.639771 
	C77.231712,494.593933 60.638271,475.338959 57.793461,452.441315 
	C54.976456,429.767548 66.182564,407.133911 86.407623,396.259735 
	C91.684059,393.422821 93.380669,390.151367 93.182976,384.525574 
	C92.896698,376.379059 93.296387,368.206848 93.454849,360.046600 
	C93.693245,347.770416 99.517212,338.821655 110.075783,332.927368 
	C112.821304,331.394745 113.721008,329.492828 113.575279,326.485321 
	C112.893059,312.405609 114.487022,298.567169 118.689690,285.098877 
	C119.769821,281.637421 118.868210,279.712860 115.522095,278.629761 
	C114.102463,278.170227 112.753967,277.483429 111.387863,276.867279 
	C77.926170,261.775604 57.814541,223.419373 64.445374,187.566177 
	C66.727577,175.226212 71.518082,163.658829 75.125809,151.728683 
	C76.162811,148.299469 76.562508,145.227219 75.373100,141.601501 
	C72.171898,131.843155 77.607391,121.641312 87.190697,119.027206 
	C90.195450,118.207581 93.443504,118.028595 96.584030,118.001534 
	C110.078941,117.885223 123.576477,117.831451 137.070374,117.986725 
	C141.110168,118.033211 143.977753,117.293335 145.765503,113.112419 
	C147.528107,108.990356 151.392319,107.075798 155.807449,106.704498 
	C161.341873,106.239059 167.397095,105.965706 171.897675,108.964005 
	C179.580078,114.082039 184.237427,111.437599 189.681412,105.537331 
	C192.883850,102.066483 193.871155,99.833061 191.093445,95.897385 
	C188.005829,91.522598 186.042755,86.427803 188.969330,81.360474 
	C195.602081,69.875923 200.714249,57.418617 209.886017,47.523335 
	C211.306549,45.990734 211.189651,44.595692 210.673889,42.976074 
	C208.409134,35.864403 211.195282,30.733818 216.884369,26.609926 
	C228.614197,18.107248 240.297531,9.540429 252.000000,1.000002 
	C254.700012,1.000000 257.400024,1.000000 260.829651,1.189617 
	C274.910400,9.604734 287.213287,19.300270 299.684998,28.746450 
	C303.214996,31.420128 304.992523,35.650318 303.968201,39.865425 
	C302.904999,44.240433 302.902191,47.553219 307.028595,50.093014 
	C307.680328,50.494144 308.069794,51.380898 308.484467,52.098621 
	C313.735291,61.186222 318.995514,70.268593 324.193298,79.386551 
	C326.354919,83.178413 327.835236,87.738075 325.132477,91.238579 
	C318.568481,99.740005 322.692230,105.154221 329.417999,110.308464 
	C329.679260,110.508675 329.910339,110.765106 330.105591,111.031891 
	C331.686371,113.192162 333.440857,113.302925 335.691986,111.888878 
	C339.528412,109.478989 343.711456,107.678902 348.209290,107.107758 
	C356.882233,106.006485 365.507446,105.362404 369.700623,115.701233 
	C370.425507,117.488556 372.138489,117.764374 373.875336,117.890388 
	C375.698151,118.022644 377.529816,118.172668 379.327057,118.488785 
	C383.583008,119.237366 385.778961,122.112137 385.825500,126.163918 
	C385.872803,130.280869 383.416473,132.969040 379.384766,133.987488 
	C378.272064,134.268570 377.057098,134.380722 375.916656,134.274384 
	C371.402222,133.853424 370.075714,136.093445 370.289459,140.262146 
	C370.519562,144.749481 370.461761,149.262970 370.299957,153.756760 
	C369.898956,164.894043 364.975555,173.985901 354.654846,177.847870 
	C347.181915,180.644226 345.485870,184.714035 346.359283,191.508560 
	C346.527863,192.820282 346.293182,194.179749 346.405609,195.503510 
	C346.748383,199.538803 345.498169,203.718750 347.438171,208.296524 
	C352.640808,204.539932 356.564850,201.208939 357.959839,194.412796 
	C362.600098,171.805649 377.157379,158.576843 399.519592,153.771225 
	C408.787811,151.779526 415.914795,146.687317 421.558075,139.282013 
	C422.335907,138.261276 423.477112,137.198181 422.732910,135.719666 
	C422.019653,134.302673 420.563049,134.367737 419.223083,134.340866 
	C417.224060,134.300751 415.212097,134.408585 413.228058,134.218826 
	C408.417206,133.758698 405.169983,130.530655 405.074280,126.291679 
	C404.983734,122.283150 407.901917,119.049683 412.517273,118.284866 
	C415.988617,117.709625 419.485382,117.863754 422.972229,118.357590 
	C435.723969,120.163628 442.271851,130.439011 438.295197,142.668167 
	C437.477234,145.183487 437.442322,147.433746 438.281311,149.932587 
	C441.088043,158.292404 443.728790,166.707916 446.437225,175.100784 
	C451.141602,189.678894 452.194977,204.568359 448.641388,219.423767 
	C442.003967,247.170654 425.347290,266.827789 399.174530,278.296387 
	C396.241119,279.581757 393.859009,280.495300 395.187317,284.734283 
	C399.350891,298.021057 401.081116,311.690735 400.356232,325.617432 
	C400.201233,328.595154 401.136200,330.710510 403.635223,332.353210 
	C406.710175,334.374512 409.447174,336.843140 411.726532,339.742401 
	C421.719421,352.453033 423.044617,366.332977 417.065826,381.093262 
	C414.548676,387.307434 415.727325,390.629120 421.780457,393.262451 
	C427.794495,395.878815 433.361084,399.219513 438.048340,403.817719 
	C455.210510,420.653961 460.760864,440.778870 453.410278,463.668701 
	C446.237213,486.005707 426.456512,501.102509 403.679565,502.385071 
	C380.708038,503.678589 357.699341,502.626434 334.709320,502.931824 
	C317.327148,503.162720 299.997589,503.065277 283.921844,494.967133 
	C282.192444,494.095947 280.719482,494.162292 279.736023,496.097717 
	C275.318878,504.790527 267.941925,509.856140 259.000000,513.000000 
M311.748718,403.221619 
	C314.367126,399.680023 315.957367,395.660370 317.072754,391.451294 
	C319.546661,382.115631 318.674225,372.572906 318.451569,363.115295 
	C318.339600,358.357544 314.126190,359.571350 311.134277,359.376526 
	C308.182343,359.184296 306.273560,360.223694 306.271271,363.542999 
	C306.267517,369.042358 306.402283,374.550354 306.147461,380.039337 
	C305.549835,392.912018 296.525482,401.684448 284.469818,401.346222 
	C273.072113,401.026459 264.624817,391.834045 264.742462,379.249725 
	C264.871582,365.436920 263.450531,351.536377 265.685638,337.824524 
	C269.896759,311.990204 279.170685,288.889679 301.260925,272.588898 
	C314.666901,262.696411 323.429260,249.371414 327.892944,233.175064 
	C332.278931,217.260681 330.092285,201.057281 330.578033,184.970505 
	C330.681580,181.541565 328.185059,180.938202 325.476379,180.934784 
	C312.811035,180.918823 300.145569,180.968353 287.480286,180.936325 
	C284.337646,180.928375 282.667480,182.317810 281.835632,185.386414 
	C280.469604,190.425308 277.938171,194.939285 274.614960,198.973907 
	C265.293762,210.290558 250.055450,210.678864 240.167648,199.886795 
	C236.139633,195.490402 233.469482,190.318802 231.945496,184.630264 
	C231.202789,181.857971 229.856812,180.821121 227.061768,180.842606 
	C214.396561,180.939972 201.729706,180.991394 189.064896,180.886673 
	C184.737976,180.850876 183.207489,182.649796 183.311188,186.921234 
	C183.529526,195.915482 183.204086,204.922714 183.410583,213.917526 
	C183.950134,237.419418 192.622604,257.529694 211.623672,271.478027 
	C229.341080,284.484131 238.650726,302.207428 245.248123,322.127472 
	C247.455322,328.791901 248.253250,335.758575 249.047974,342.695496 
	C249.635864,347.826691 246.680298,352.023590 242.215759,352.804169 
	C237.891220,353.560333 234.405319,350.742645 233.196991,345.469666 
	C232.974792,344.500031 232.813354,343.501251 232.766159,342.509155 
	C232.438721,335.626221 230.772003,329.025208 228.523300,322.561371 
	C226.105728,315.612122 225.544357,315.458008 219.371017,319.500061 
	C197.129089,334.063293 168.111908,332.367737 149.280594,315.404449 
	C144.759216,311.331573 143.283600,306.820587 145.074371,302.037964 
	C146.962204,296.996094 151.123367,295.248047 156.069809,294.783600 
	C157.229568,294.674713 158.410416,294.763611 159.564072,294.620575 
	C167.258224,293.666718 174.257858,291.102112 180.295593,286.098694 
	C179.166840,284.280579 177.766846,284.443634 176.473480,284.439606 
	C164.140915,284.401123 151.807556,284.453033 139.476120,284.320923 
	C135.993713,284.283600 134.966232,286.329620 134.173874,289.120270 
	C131.113052,299.900238 129.182693,310.825867 129.336456,322.080658 
	C129.437805,329.498993 129.412201,329.658813 136.957382,329.568085 
	C151.453735,329.393829 161.357681,336.252228 167.052155,349.285645 
	C168.338074,352.228851 170.070023,353.658051 173.061356,354.462189 
	C190.276123,359.089722 195.479446,377.180420 183.436249,390.403931 
	C179.285324,394.961731 175.132233,399.541473 170.667328,403.781830 
	C167.207596,407.067627 167.795303,409.252289 171.183487,412.177765 
	C193.009232,431.023193 218.477646,441.409607 246.991394,443.437988 
	C280.469086,445.819519 310.841064,436.643890 337.865173,416.412354 
	C344.187927,411.678772 348.518768,406.803284 346.875732,398.300507 
	C346.319366,395.421478 346.475861,392.239594 347.059143,389.347931 
	C347.762512,385.861053 347.097351,382.893616 345.804535,379.702148 
	C335.479523,354.213715 352.319733,327.406403 379.758667,325.709625 
	C383.458801,325.480804 384.692291,324.021942 384.678009,320.497528 
	C384.633820,309.581238 382.687103,298.997650 379.700775,288.543274 
	C378.741058,285.183441 376.691742,284.247986 373.410522,284.290985 
	C361.412872,284.448212 349.412537,284.391632 337.413483,284.463165 
	C336.151031,284.470703 334.720306,284.019745 333.520020,285.410034 
	C334.097412,287.064056 335.629669,287.802155 336.997070,288.632812 
	C343.231567,292.420013 349.929626,294.524231 357.298737,294.791992 
	C365.682831,295.096649 370.014862,299.854797 369.429779,307.367096 
	C369.143890,311.038025 366.920868,313.401245 364.365936,315.628265 
	C345.452026,332.114502 316.613098,333.946625 295.541656,320.077972 
	C293.394104,318.664490 291.662750,316.379761 288.895172,316.235992 
	C287.317535,317.189484 286.959778,318.712341 286.410309,320.079132 
	C278.482239,339.800507 281.195160,360.444580 281.241241,380.846741 
	C281.246582,383.213959 282.778595,385.141510 285.283081,385.153320 
	C287.991455,385.166107 289.474823,383.266235 289.668274,380.618195 
	C289.850098,378.129547 289.748627,375.621613 289.848846,373.125275 
	C290.108856,366.647186 289.113678,360.114502 290.554962,353.691345 
	C291.934082,347.545135 296.279022,343.825165 302.514252,343.656219 
	C308.675995,343.489166 314.847778,343.486206 321.010712,343.618256 
	C329.240997,343.794586 334.275940,348.954224 334.345062,357.229126 
	C334.418823,366.061279 334.440308,374.896149 334.304321,383.727051 
	C334.200775,390.450531 332.691345,396.942932 330.058594,403.119324 
	C320.601257,425.306030 297.727722,437.151367 274.605408,431.914764 
	C250.328613,426.416687 232.537537,404.041687 233.534775,380.262268 
	C233.725616,375.711365 236.612274,372.429871 240.703629,372.112915 
	C244.887512,371.788818 248.653275,374.904358 249.155304,379.621033 
	C249.507248,382.927643 249.532089,386.283325 250.489929,389.482513 
	C254.702240,403.551819 263.689819,413.097351 278.181641,416.077393 
	C291.429657,418.801666 302.921448,415.015320 311.748718,403.221619 
M439.964386,451.576569 
	C443.519562,434.906372 431.564728,413.678040 416.218903,409.146362 
	C415.534943,410.528015 414.850555,412.003052 414.087311,413.436035 
	C411.002625,419.227417 406.250427,423.822174 399.818787,423.985016 
	C386.095917,424.332489 372.230225,426.352966 358.628448,422.579193 
	C357.460052,422.255005 356.334503,421.980072 355.302521,422.797424 
	C349.792358,427.161865 344.298431,431.546814 338.591064,436.090027 
	C340.856537,437.212799 342.715057,436.807861 344.511841,436.811218 
	C358.173218,436.836761 371.834747,436.800262 385.496124,436.826324 
	C387.318451,436.829803 389.201385,436.828400 390.950104,437.259613 
	C394.954376,438.247070 397.298920,440.864197 397.293427,445.105408 
	C397.288208,449.131561 395.091980,451.723389 391.255035,452.610657 
	C389.018311,453.127869 386.641479,453.193512 384.327240,453.197693 
	C358.170563,453.245056 332.013580,453.181122 305.857178,453.280792 
	C295.627747,453.319763 286.280029,457.894897 275.367889,458.670197 
	C277.707825,463.990662 279.736542,468.282257 281.475189,472.688293 
	C282.383301,474.989594 283.712311,476.672119 285.841705,477.891663 
	C295.107239,483.197876 305.012726,486.531097 315.716858,486.588470 
	C344.038574,486.740295 372.362000,486.724518 400.684082,486.609161 
	C419.965454,486.530640 436.844879,471.639832 439.964386,451.576569 
M432.203003,183.218170 
	C429.683289,175.570450 427.664520,167.737747 424.131317,159.721878 
	C415.487366,166.403091 405.624939,168.264008 396.214020,171.468185 
	C382.998047,175.967880 375.265228,185.699829 373.326324,199.693756 
	C372.567688,205.169205 370.506165,209.888611 366.317657,213.622665 
	C360.355896,218.937531 354.471283,224.338989 348.509827,229.654175 
	C346.106445,231.797012 344.196381,234.121292 343.355591,237.380722 
	C340.926575,246.797089 336.923645,255.536835 331.555176,263.656982 
	C330.779663,264.829987 329.453857,265.933350 330.263153,267.715668 
	C331.773834,269.192078 333.709106,268.593170 335.458954,268.602966 
	C346.110596,268.662659 356.763031,268.686523 367.414490,268.614288 
	C374.772552,268.564362 381.956512,267.325043 388.963928,265.049316 
	C418.337341,255.510056 442.348755,222.575287 432.203003,183.218170 
M147.612427,268.637787 
	C159.838470,268.637787 172.064514,268.637787 185.329041,268.637787 
	C181.316238,261.481232 176.398300,255.956589 174.939484,249.234558 
	C171.939743,235.412292 163.001541,226.319321 152.619812,218.023911 
	C151.191315,216.882507 149.927734,215.536255 148.514725,214.373672 
	C143.751785,210.454834 141.550308,205.327545 140.611404,199.304932 
	C138.343033,184.754547 129.997238,175.054276 115.936371,170.873154 
	C107.943588,168.496429 99.847839,166.631378 92.810806,161.890808 
	C90.927452,160.622055 89.273781,160.675888 88.490471,163.065933 
	C84.818794,174.269043 80.045425,185.233307 79.435539,197.194443 
	C77.442810,236.276535 107.717041,268.364929 147.612427,268.637787 
M295.817902,106.711716 
	C290.880951,105.107880 285.855103,104.197876 280.626160,104.221970 
	C264.473114,104.296394 248.314774,104.009254 232.167542,104.325050 
	C216.752853,104.626518 204.404709,111.511589 194.704666,123.338249 
	C193.538177,124.760475 192.095810,126.315247 192.850266,128.244232 
	C196.819839,138.393677 195.075638,148.978470 195.305450,159.394028 
	C195.390976,163.270065 196.802322,164.761887 200.647400,164.690536 
	C208.804657,164.539200 216.970993,164.486771 225.124741,164.713074 
	C228.842758,164.816269 230.557190,163.376175 231.284683,159.841080 
	C232.611023,153.395889 235.195923,147.478409 239.610168,142.484573 
	C249.501160,131.294907 263.958832,131.165466 274.058563,142.146667 
	C278.705963,147.199707 281.338470,153.269791 282.720703,159.869827 
	C283.467316,163.434647 285.192383,164.828568 288.885864,164.720474 
	C296.539764,164.496490 304.204865,164.668365 311.865265,164.646072 
	C318.365479,164.627167 318.425934,164.380478 318.663574,157.878098 
	C318.995941,148.783432 317.190674,139.503662 320.598114,130.659546 
	C321.767426,127.624603 321.137909,125.321587 319.143280,122.900307 
	C313.054749,115.509476 305.485504,110.302856 295.817902,106.711716 
M109.345634,370.515594 
	C109.352158,377.677582 109.296463,384.840332 109.381927,392.001373 
	C109.475784,399.864624 113.820312,405.897644 121.413956,407.784668 
	C127.909927,409.398926 134.595078,409.158112 141.179672,407.807922 
	C143.500626,407.332001 145.685379,406.342010 147.332199,404.650330 
	C155.579239,396.178558 163.765503,387.647217 171.925629,379.091492 
	C173.844528,377.079620 174.363571,374.684113 172.695297,372.270447 
	C171.112808,369.980896 168.824005,370.071564 166.413422,370.765717 
	C157.183304,373.423615 154.211411,371.398132 153.508728,362.023438 
	C152.686462,351.053802 146.689407,345.408752 135.772461,345.356262 
	C131.941803,345.337830 128.104904,345.234467 124.281364,345.405182 
	C115.839012,345.782135 109.655777,352.099182 109.380470,360.530060 
	C109.282661,363.525085 109.352486,366.525604 109.345634,370.515594 
M127.493179,134.322083 
	C116.846581,134.323807 106.199936,134.311081 95.553436,134.344208 
	C94.103798,134.348709 92.365814,133.961655 91.466377,135.523300 
	C90.365547,137.434616 92.092834,138.562653 93.036400,139.835892 
	C99.084816,147.997498 107.420731,152.194641 117.147263,154.582230 
	C139.227951,160.002426 152.514526,173.967758 156.460663,196.521240 
	C157.493317,202.423172 162.146408,204.864822 166.879944,207.736603 
	C167.606567,200.586807 167.399094,193.683853 167.684158,186.801315 
	C167.856003,182.652283 166.535172,180.545364 162.390625,179.265915 
	C152.924423,176.343643 147.108841,169.657379 144.585373,160.086853 
	C142.855820,153.527451 143.749725,146.840881 143.730515,140.218796 
	C143.718307,136.010468 142.395447,133.983566 137.968613,134.284958 
	C134.822571,134.499146 131.650040,134.323990 127.493179,134.322083 
M220.470840,456.267853 
	C220.444916,456.910400 220.170197,457.683990 220.429535,458.176239 
	C226.478821,469.657318 232.604263,481.124237 239.927322,491.835358 
	C243.598984,497.205750 251.059189,498.715088 257.007904,496.476746 
	C262.987152,494.226898 266.795197,488.808075 266.690430,482.153320 
	C266.555817,473.606384 260.898315,467.537323 256.623322,460.899261 
	C256.125336,460.126007 254.541779,459.696442 253.466385,459.705292 
	C242.444000,459.795898 231.707382,457.544159 220.470840,456.267853 
M365.986694,369.701660 
	C377.608765,369.919342 389.249023,368.970490 400.854828,370.264069 
	C404.299835,370.648041 404.501068,368.266968 404.641235,365.787323 
	C405.374237,352.817413 395.149994,341.687134 382.219269,341.405670 
	C369.598083,341.130951 358.389496,352.206848 358.527435,364.816956 
	C358.579041,369.533936 360.054901,370.643677 365.986694,369.701660 
M252.690872,20.348484 
	C245.042816,25.960030 237.389954,31.565041 229.750778,37.188633 
	C228.222610,38.313583 226.903290,39.567570 227.675201,41.770679 
	C228.432129,43.930984 229.968048,44.960377 232.217972,44.960686 
	C248.700607,44.962955 265.183228,44.959118 281.665863,44.956673 
	C284.149963,44.956306 285.701996,43.695400 286.513245,41.400764 
	C287.355469,39.018364 285.491699,38.088299 284.077820,37.043274 
	C276.180450,31.206236 268.170715,25.518742 260.351440,19.579912 
	C257.647980,17.526613 255.518524,18.027102 252.690872,20.348484 
M400.571381,391.252319 
	C400.174530,387.410522 397.902710,385.744690 394.188080,385.737183 
	C385.872345,385.720459 377.556549,385.671631 369.240906,385.689301 
	C365.493866,385.697266 363.258698,387.377625 363.288971,391.406342 
	C363.317719,395.231598 363.302612,399.057312 363.285828,402.882751 
	C363.268433,406.834564 365.298676,408.636719 369.166473,408.627930 
	C377.483246,408.609009 385.800110,408.623871 394.116913,408.618530 
	C398.461334,408.615753 400.485199,406.247040 400.585266,402.087677 
	C400.665283,398.762939 400.603271,395.434723 400.571381,391.252319 
M334.362152,145.687317 
	C334.366699,150.507568 334.379517,155.327850 334.371674,160.148087 
	C334.368530,162.085464 334.678223,163.753235 336.863525,164.490707 
	C345.257233,167.323303 353.619080,162.000854 353.971527,153.150497 
	C354.301910,144.854141 354.144409,136.531326 353.974487,128.224808 
	C353.877838,123.500023 352.016449,122.396286 347.541382,123.890671 
	C339.432800,126.598404 334.559631,134.311752 334.362152,145.687317 
M176.510788,132.088150 
	C173.596817,127.810623 169.759430,124.777100 164.709335,123.422913 
	C161.653610,122.603523 159.946930,123.457504 159.983810,126.991020 
	C160.074127,135.642380 159.898834,144.297211 160.043579,152.947083 
	C160.221375,163.571487 168.801315,165.637070 177.033600,164.458832 
	C178.500534,164.248886 179.558868,163.149231 179.490341,161.708771 
	C179.029205,152.015121 181.607773,142.038498 176.510788,132.088150 
M264.726227,156.884155 
	C260.065948,149.287521 255.924866,148.306870 251.319412,153.709290 
	C244.452133,161.764938 244.569427,180.326950 251.538177,188.333450 
	C255.223236,192.567230 258.664185,192.593201 262.401184,188.388474 
	C264.432007,186.103516 265.680389,183.383301 266.457397,180.470795 
	C268.532959,172.690887 268.261322,165.031357 264.726227,156.884155 
M262.905426,61.351738 
	C259.411835,61.345081 255.907364,61.508553 252.427612,61.285782 
	C248.654282,61.044216 247.007523,62.842747 246.366837,66.326057 
	C245.376129,71.712494 244.403152,77.120094 243.001144,82.406944 
	C241.993851,86.205383 243.070892,87.779686 246.912781,87.753998 
	C253.733398,87.708374 260.554382,87.712029 267.375214,87.708031 
	C270.547485,87.706169 271.976593,86.511650 271.166748,83.067200 
	C269.799133,77.250526 268.725189,71.365417 267.446198,65.526947 
	C267.006927,63.521626 266.208893,61.673347 262.905426,61.351738 
M317.232605,293.260956 
	C309.806793,284.967743 309.797546,284.958740 301.856720,293.118744 
	C300.699341,294.308105 299.693085,295.643280 298.592285,296.889191 
	C296.608063,299.134979 297.121338,300.957306 299.289001,302.813629 
	C305.105591,307.794800 311.698425,311.131866 319.213196,312.617462 
	C327.207184,314.197784 334.909943,313.527496 343.571777,309.461029 
	C333.325836,305.382935 324.658356,300.925110 317.232605,293.260956 
M179.742752,305.421661 
	C177.142197,306.957062 173.878494,307.261200 170.978928,309.839783 
	C183.036926,315.147766 194.528534,314.730865 205.195694,308.988922 
	C220.610931,300.691132 219.573120,299.817780 207.154160,288.696075 
	C204.598694,286.407593 202.551071,286.242340 200.168915,289.340454 
	C194.913391,296.175507 188.154083,301.295837 179.742752,305.421661 
M307.950867,89.604462 
	C309.512817,87.454605 309.313904,85.442795 307.930481,83.175346 
	C304.732727,77.934120 301.312622,72.758537 298.804474,67.186440 
	C296.324432,61.676895 292.277252,60.865623 287.124878,61.322067 
	C284.413513,61.562267 283.144348,62.557194 283.804749,65.452576 
	C285.314728,72.072922 286.605042,78.745720 288.230560,85.336540 
	C289.312744,89.724106 303.826874,93.622238 307.319122,90.612732 
	C307.440613,90.508034 307.509430,90.342239 307.950867,89.604462 
M224.485229,61.333344 
	C221.636856,61.278847 218.808258,61.075718 217.077026,64.165283 
	C213.334900,70.843567 209.508835,77.475395 205.660904,84.093544 
	C204.089645,86.796021 205.546158,88.880318 206.891510,90.985756 
	C208.320374,93.221863 210.223541,92.444321 212.206070,91.814751 
	C215.370560,90.809814 218.573456,89.895493 221.808197,89.152176 
	C224.197861,88.603050 225.489182,87.438812 225.966141,84.919846 
	C227.108734,78.885391 228.274185,72.834953 229.893570,66.917732 
	C231.120255,62.435444 229.502563,61.023113 224.485229,61.333344 
z"/>
<path fill="#7C0000" opacity="1.000000" stroke="none" 
	d="
M217.270050,189.482468 
	C219.998138,190.425522 221.713043,192.007294 222.281052,194.409241 
	C223.751236,200.626160 223.766739,206.920898 222.261917,213.113480 
	C221.424103,216.561172 218.756241,218.236771 215.236862,218.358887 
	C211.730988,218.480499 208.848221,217.060593 207.831711,213.661774 
	C205.898941,207.199448 205.921616,200.488037 207.697342,194.065704 
	C208.862564,189.851486 212.578979,188.510147 217.270050,189.482468 
z"/>
<path fill="#7C0000" opacity="1.000000" stroke="none" 
	d="
M290.877228,205.857147 
	C291.004211,202.408417 290.888519,199.387863 291.317505,196.446762 
	C292.002960,191.747421 295.191559,188.857330 299.254242,189.083176 
	C303.710175,189.330841 306.410828,192.070587 307.001007,196.233521 
	C307.722595,201.323135 307.774811,206.553848 306.931152,211.637283 
	C306.232208,215.848572 303.501495,218.452362 298.948822,218.340988 
	C294.693268,218.236893 292.195892,215.850891 291.393921,211.761261 
	C291.045135,209.982574 291.040100,208.136444 290.877228,205.857147 
z"/>
<path fill="#7C0000" opacity="1.000000" stroke="none" 
	d="
M256.997986,217.841156 
	C258.924103,217.942245 260.428284,217.918839 261.885864,218.168076 
	C266.256775,218.915466 268.697113,221.739212 268.794556,226.001984 
	C268.888672,230.120697 266.412567,232.748123 262.400177,233.743729 
	C258.977814,234.592911 255.493317,234.552155 252.067245,233.866241 
	C247.819366,233.015793 245.367447,230.290268 245.142242,225.962387 
	C244.934799,221.976196 248.002731,218.854263 252.597641,218.076706 
	C253.892883,217.857513 255.234451,217.912216 256.997986,217.841156 
z"/>
<path fill="#7C0000" opacity="1.000000" stroke="none" 
	d="
M250.985046,260.613037 
	C246.588715,258.771210 244.573975,255.784348 245.387711,251.447205 
	C246.218826,247.017380 249.536163,245.256729 253.674515,244.939026 
	C256.802704,244.698868 259.959534,244.542465 263.058319,245.413513 
	C266.747223,246.450455 268.621033,249.120026 268.843658,252.668030 
	C269.073364,256.328735 267.109528,259.039948 263.637482,260.310608 
	C259.636047,261.775055 255.498322,261.508331 250.985046,260.613037 
z"/>
<path fill="#7C0000" opacity="1.000000" stroke="none" 
	d="
M246.254745,283.580444 
	C244.437531,276.603943 247.210968,272.331329 253.842911,271.964355 
	C257.292877,271.773407 261.121613,270.726837 264.185272,273.717163 
	C263.719513,276.976929 258.847351,276.374878 259.078766,279.924591 
	C259.300507,283.325287 263.519562,282.472717 264.599915,284.964203 
	C260.614136,289.894257 251.470718,289.332703 246.254745,283.580444 
z"/>
</svg>