<?xml version="1.0" standalone="no"?>
<!DOCTYPE svg PUBLIC "-//W3C//DTD SVG 20010904//EN"
 "http://www.w3.org/TR/2001/REC-SVG-20010904/DTD/svg10.dtd">
<svg version="1.0" xmlns="http://www.w3.org/2000/svg"
 width="512.000000pt" height="512.000000pt" viewBox="0 0 512.000000 512.000000"
 preserveAspectRatio="xMidYMid meet">

<g transform="translate(0.000000,512.000000) scale(0.100000,-0.100000)"
fill="#7C0000" stroke="none">
<path d="M260 2560 l0 -790 2300 0 2300 0 0 790 0 790 -2300 0 -2300 0 0 -790z
m1620 75 l0 -365 225 0 225 0 0 -75 0 -75 -310 0 -310 0 0 440 0 440 85 0 85
0 0 -365z m740 -75 l0 -440 -85 0 -85 0 0 440 0 440 85 0 85 0 0 -440z m430
120 c73 -177 136 -322 139 -324 3 -2 67 142 141 320 l135 324 93 0 c52 0 92
-4 90 -9 -1 -4 -84 -203 -183 -440 l-180 -431 -94 2 -95 3 -133 320 c-74 176
-156 373 -183 438 l-49 117 92 0 93 0 134 -320z m1380 245 l0 -75 -250 0 -250
0 0 -100 0 -100 223 -2 222 -3 3 -77 3 -78 -226 0 -225 0 0 -110 0 -110 250 0
250 0 0 -75 0 -75 -335 0 -335 0 0 440 0 440 335 0 335 0 0 -75z m-3334 -160
c30 -19 60 -49 79 -79 27 -44 30 -58 30 -126 0 -68 -3 -82 -30 -126 -43 -68
-108 -107 -190 -112 -79 -5 -122 9 -178 59 -106 92 -108 262 -5 354 59 54 92
66 174 63 59 -3 79 -8 120 -33z"/>
</g>
</svg>
