<svg id="Layer_1" data-name="Layer 1" xmlns="http://www.w3.org/2000/svg" xmlns:xlink="http://www.w3.org/1999/xlink" viewBox="0 0 855.51 127.37"><defs><style>.cls-1{fill:url(#linear-gradient);}.cls-2{fill:url(#linear-gradient-2);}.cls-3{fill:url(#linear-gradient-3);}.cls-4{fill:url(#linear-gradient-4);}.cls-5{fill:url(#linear-gradient-5);}.cls-6{fill:url(#linear-gradient-6);}.cls-7{fill:#06575b;stroke:#231f20;stroke-miterlimit:10;stroke-width:0.48px;}.cls-8{fill:url(#linear-gradient-7);}.cls-9{fill:url(#linear-gradient-8);}.cls-10{fill:url(#linear-gradient-9);}.cls-11{fill:url(#linear-gradient-10);}.cls-12{fill:url(#linear-gradient-11);}.cls-13{fill:url(#linear-gradient-12);}.cls-14{fill:url(#linear-gradient-13);}.cls-15{fill:url(#linear-gradient-14);}.cls-16{fill:url(#linear-gradient-15);}.cls-17{fill:url(#linear-gradient-16);}.cls-18{fill:url(#linear-gradient-17);}.cls-19{fill:url(#linear-gradient-18);}.cls-20{fill:none;}.cls-21{fill:url(#linear-gradient-19);}</style><linearGradient id="linear-gradient" x1="583.55" y1="756.37" x2="605.03" y2="525.62" gradientUnits="userSpaceOnUse"><stop offset="0" stop-color="#ff69c6"/><stop offset="1" stop-color="#f20a3d"/></linearGradient><linearGradient id="linear-gradient-2" x1="585.67" y1="627.72" x2="589.25" y2="589.22" xlink:href="#linear-gradient"/><linearGradient id="linear-gradient-3" x1="576.94" y1="725.47" x2="602.33" y2="452.66" xlink:href="#linear-gradient"/><linearGradient id="linear-gradient-4" x1="542.95" y1="659.34" x2="556.85" y2="509.99" xlink:href="#linear-gradient"/><linearGradient id="linear-gradient-5" x1="575.42" y1="422.04" x2="560.92" y2="612.61" gradientUnits="userSpaceOnUse"><stop offset="0.01" stop-color="#044f1d"/><stop offset="1" stop-color="#1bdbb6"/></linearGradient><linearGradient id="linear-gradient-6" x1="585.88" y1="422.83" x2="571.39" y2="613.41" xlink:href="#linear-gradient-5"/><linearGradient id="linear-gradient-7" x1="555.38" y1="602.31" x2="555.38" y2="602.31" xlink:href="#linear-gradient"/><linearGradient id="linear-gradient-8" x1="-12.31" y1="477.3" x2="355.2" y2="683.48" xlink:href="#linear-gradient"/><linearGradient id="linear-gradient-9" x1="4.25" y1="447.79" x2="371.75" y2="653.97" xlink:href="#linear-gradient"/><linearGradient id="linear-gradient-10" x1="19.71" y1="420.22" x2="387.22" y2="626.41" xlink:href="#linear-gradient"/><linearGradient id="linear-gradient-11" x1="38.51" y1="386.72" x2="406.02" y2="592.91" xlink:href="#linear-gradient"/><linearGradient id="linear-gradient-12" x1="58.06" y1="351.88" x2="425.57" y2="558.06" xlink:href="#linear-gradient"/><linearGradient id="linear-gradient-13" x1="74.48" y1="322.61" x2="441.99" y2="528.79" xlink:href="#linear-gradient"/><linearGradient id="linear-gradient-14" x1="751.84" y1="262.36" x2="675.73" y2="596.58" xlink:href="#linear-gradient-5"/><linearGradient id="linear-gradient-15" x1="815.16" y1="276.78" x2="739.06" y2="611" xlink:href="#linear-gradient-5"/><linearGradient id="linear-gradient-16" x1="870.88" y1="289.47" x2="794.77" y2="623.68" xlink:href="#linear-gradient-5"/><linearGradient id="linear-gradient-17" x1="940.53" y1="305.33" x2="864.42" y2="639.54" xlink:href="#linear-gradient-5"/><linearGradient id="linear-gradient-18" x1="996.98" y1="318.18" x2="920.87" y2="652.4" xlink:href="#linear-gradient-5"/><linearGradient id="linear-gradient-19" x1="573.1" y1="553.81" x2="573.1" y2="553.81" xlink:href="#linear-gradient"/></defs><title>SHAADI VINES LOGO FINAL</title><path class="cls-1" d="M629.48,590.1a17.13,17.13,0,0,0,1.81-7.6c0-7.59-6.21-15.53-16.45-15.53a12.59,12.59,0,0,0-3.31.45c-4.09-5-7.42-9-9.5-11.87a11,11,0,0,1-2.34.12c2,3.09,5.39,7.35,9.62,12.6a10,10,0,0,0-5.87,9,7.54,7.54,0,0,0,7.39,7.55c2.93,0,5.14-2.62,3.86-4.41s-3.57,1.87-6.09,1.87-3.54-2.65-3.54-5.24a8.56,8.56,0,0,1,5.28-7.51c4.21,5.2,9.15,11.3,14.33,18.12-1.25,3.62-3.35,10-13.22,10-6.31,0-17-3.69-23.52-15.74,3.85,5.82,10,10.51,17,11.66,3.45.57,8.31.2,10.16-3.31a1.62,1.62,0,0,0,.18-.7c0-2.11-1.82-1.83-2.29-1.26a1.51,1.51,0,0,0-.26,1.32,1.21,1.21,0,0,0,.62.88,4,4,0,0,1-3.44.84c-1.47-.29-3.1-1.61-4.43-2.23-2.06-1-5-2.22-6.44,1.25a24.45,24.45,0,0,1-3.84-2.31c-5.9-4.38-9.54-11-11.31-18a14.66,14.66,0,0,0,3.16,5c2.06,2.08,5.14,3.39,7.92,1.9a4.25,4.25,0,0,0,2.3-3.12,2.27,2.27,0,0,0-2.17-2.7,1.68,1.68,0,0,0-1.31,2.57,1.43,1.43,0,0,0,2.22,0,2.8,2.8,0,0,1-.84,1.63,4.19,4.19,0,0,1-3.17,1.11c-2.8-.15-5-2.66-6.38-4.88-2.63-4.27-3.16-9.18-3.2-14.08a35,35,0,0,0,.9,3.56,10.32,10.32,0,0,0,3.65,5.28,7.37,7.37,0,0,0,5.6,1.56,2.67,2.67,0,0,0,2.23-1.59,1.55,1.55,0,0,0-.93-2,1.26,1.26,0,0,0-1.58,1.5,1.15,1.15,0,0,0,1.16.74,2.39,2.39,0,0,1-.56.27,5.12,5.12,0,0,1-2.52.07,7.82,7.82,0,0,1-4.26-2.64,13,13,0,0,1-2.56-4.82c-.35-1.23-.54-2.49-.82-3.73l-1.58-.27a55.2,55.2,0,0,0,0,7.82c-.79,1-2.56,3.29-2.56,3.25-2.27,2.39-17.32,18.73-21.62,35.44h.76a82.81,82.81,0,0,1,11-19.74A65.15,65.15,0,0,0,559.55,602h1.21a69,69,0,0,1,4-10.87,87.94,87.94,0,0,1,5.82-10.28A89.26,89.26,0,0,0,564.47,602h3.25a63.52,63.52,0,0,1,.87-8.09,39.09,39.09,0,0,1,.93-4.37l0,0a34.52,34.52,0,0,0-.29,4.38,30,30,0,0,0,1,8.12h2a26,26,0,0,1-1.26-8.33A38.82,38.82,0,0,1,580,569.18c-2.37,4.47-5.4,12.08-4.86,18.82a11.25,11.25,0,0,0,1.3,4.16,11.56,11.56,0,0,1-2.93-6.36c-1.66,4.86,3.16,9.56,7,9.56l0,0a3.48,3.48,0,0,0,.55,0c1.06-.19,2.26-1.21,1.58-2.38s-2.13-.41-2.67.52c-.12-.07-.24-.14-.35-.22a2.11,2.11,0,0,1-.69-1.15c-.25-1.19.29-2.37.52-3.51a4,4,0,0,0-.33-3,2.24,2.24,0,0,0-2.43-1.1,27.52,27.52,0,0,1,.35-3.26,38.33,38.33,0,0,1,2.07-7.36c.78-2,1.76-4,2.59-5.94,2.15,14.16,9.63,28,23.41,31.55a18.26,18.26,0,0,1,5,2.52h7a19,19,0,0,0,3-.24,39.42,39.42,0,0,0-4.41-1.6,39.31,39.31,0,0,1,8.53.48,13.52,13.52,0,0,0,1.4-.62c-.86-.16-1.72-.28-2.6-.38a34.53,34.53,0,0,0-4.43-.25,18.4,18.4,0,0,0,9.66-7c.9,1.22,7.37,9.64,7.37,9.64h3.38c-.16,0-.73-.88-.83-1-.7-.84-1.4-1.67-2.09-2.52C634.83,597,630.5,591.48,629.48,590.1Zm-3.57-4.72c-4.75-6.21-9.29-11.78-13.22-16.55a12.06,12.06,0,0,1,2.22-.2c5.75,0,10.36,5,10.75,10.62.35,5.12.54,4,2.92,5.09A4.08,4.08,0,0,0,625.91,585.38Z" transform="translate(-112.25 -476.16)"/><path class="cls-2" d="M587.87,594.15c-4.32,0-6.89,2.89-6.89,6a4.71,4.71,0,0,0,.37,1.86h4.13a1.18,1.18,0,0,0-1.06-.57c-1.69,0-1.79-.88-1.79-1.55,0-1.07.91-4,5-4,3.76,0,3.23,3.37,3,6.07h4.73C594.75,597.76,591.72,594.15,587.87,594.15Z" transform="translate(-112.25 -476.16)"/><path class="cls-3" d="M597,524.48a58.82,58.82,0,0,1-3,9.82c-1,2.19-3.26,8.38,0,12.43l-1.46-.32,7,1.54c.2-1.38.58-3.1,1-5,.59,1.16,1.67,1.79,3.56,1.39-5-2.58,4.2-6.47.9-13.37a2.8,2.8,0,0,0,2.16,1.56,2.44,2.44,0,0,0,2.07-1.35,2.76,2.76,0,0,1-.77-.09,2.51,2.51,0,0,1-1.41-2.48c0-2.21,3.85-4.21,3.85-8.11a6,6,0,0,0-1.65-4.34,4.06,4.06,0,0,0,1.23.2c2.59,0,3-2.76,2.14-4.36a3.42,3.42,0,0,0-.89-2.75,2.38,2.38,0,0,0,1.17-2.12c0-1.3-.73-3-3.28-3.71a18.91,18.91,0,0,0-.24-4.81.44.44,0,0,0,0-.1,4.54,4.54,0,0,0-.09-.51c-.72-3.39-2.21-6.09-4.81-7.79-4.39-3.34-9.94-2-10.68-1.41a4.23,4.23,0,0,0-1.13,2.2s-3.17,2.74-3.56,3.9c-.12.36-.23.7-.35,1a4.51,4.51,0,0,0-.89.62,1.39,1.39,0,0,1-.44-.75,1.42,1.42,0,0,0,.56,1.56,2.61,2.61,0,0,1-.23.24c-.71.6-3.26,1.09-3.33,1.84,0,.57,1.42,1,1.11,1.47s-1.16.68-1.1,1.08.73,1,.73,1c-.51,0-.92.12-.92.38s.4.37.61.83-.72,1-.71,2.3,2.92,1.48,3.69,1.58,1.18.36,2.88,4.47a7.53,7.53,0,0,1,.15,5.11,7.07,7.07,0,0,0-.71.64c-5.81,5.8-7.86,15-11.24,21.33-.1.19-.21.38-.32.56-.27.49-.63,1.12-.88,1.54l8.14,1.88A137.68,137.68,0,0,0,597,524.48Zm13.1-5c0,1.85-1.06,3.61-2.1,5.17a14.67,14.67,0,0,0,.62-1.72c.91-3.34,0-5.37-.67-7.38l.09,0A5.25,5.25,0,0,1,610.07,519.44ZM612.3,513a2.32,2.32,0,0,1-1.9,2.61,2.93,2.93,0,0,1-2.7-.85h0a3.5,3.5,0,0,0,4.32-1.25A4.29,4.29,0,0,0,612.3,513Zm-.1-5.7c-.14,1-.69,1.27-.94,1.32a3.91,3.91,0,0,0,.22-3.15,3.2,3.2,0,0,0-.68-1.13A3,3,0,0,1,612.2,507.28ZM611,512.4a3.52,3.52,0,0,0,.28-3.19,3.48,3.48,0,0,1,.06,3.79,3.84,3.84,0,0,1-3.73,1.43l0-.06A4,4,0,0,0,611,512.4Z" transform="translate(-112.25 -476.16)"/><path class="cls-4" d="M572.2,554.41a7.86,7.86,0,0,0,.86-.62,26.32,26.32,0,0,1-3.91-1.41,9,9,0,0,1-2.55-1.73,63,63,0,0,1-8.32,4.7c-1,.48-3.17.06-4.94-.24l-.49-1.2a32,32,0,0,1-1.64-12.68,9.3,9.3,0,0,0-1.39,5.58c-1-4.76-1.81-8.24-1.81-8.24,2.55-3,2.56-7.78,1.5-8.15s-1.44.85-1.44.85-1.35-1.78-2.25-1.58a1.19,1.19,0,0,0-.62.46c-.28-1.06-.72-1.76-1.15-1.8-1.12-.11-1.18,1.18-1.18,1.18s-1.75-1.39-2.57-1-.87,2.56-.87,2.56-1.72-.28-1.59,1.18a5.69,5.69,0,0,0,2.24,3,2.65,2.65,0,0,0-.37,1.11c-.58-1.06-1.21-1.69-1.59-1.62-.8.15-.57,1.54-.57,1.54s-1.35-1.31-2.28-.62.12,2.51.12,2.51-1.65.34-1.54,1.08,3.27,3,6.16,2.77c2.91,1.84,6.8,7,7.39,7.83-6.7-8.33-10.89-3.37-10.89-3.37,6.23-1,12,5.88,13.73,8.06a2.23,2.23,0,0,0,0,.23c-1.58-1.48-7.16-6.24-10.73-3.75-4.2,2.93-.73,9.55-.73,9.55s.49-4.43,4-6.08c2.4-1.14,5.92.94,7.9,2.37a4.84,4.84,0,0,0-1.25.51c-.81.89.34,1.8.34,1.8-.19.71,1,1,1,1,0,.59,1,.68,1,.68s0,.69,1.73.51c1.27-.14,3.87-1.47,5.84-2.26C564.83,557.47,569.16,556.1,572.2,554.41ZM539.08,538a.88.88,0,0,1-.29.45,1.29,1.29,0,0,1-1.06.34,1.1,1.1,0,0,1-.37.91.79.79,0,0,1-.49.2.6.6,0,0,1-.51-.37,1.07,1.07,0,0,1,.27-1,.64.64,0,0,1,0-1,1,1,0,0,1,1.25,0,.92.92,0,0,1,.51-.28.57.57,0,0,1,.54.16A.6.6,0,0,1,539.08,538Zm6.66-5.46c0-.2-.1-.37,0-.59a.66.66,0,0,1,.44-.37,1.72,1.72,0,0,1,.64,0,2,2,0,0,1,1,.31.79.79,0,0,1,.26.94,1.83,1.83,0,0,1,.74.33.75.75,0,0,1,.27.73.91.91,0,0,1-.85.55,2.1,2.1,0,0,1-1.62-.58,2.29,2.29,0,0,1-1.73.31,1,1,0,0,1-.72-.53.83.83,0,0,1,.53-1A4.15,4.15,0,0,1,545.74,532.49Zm2,10.35c-.77-1.56-1.45-2.92-2-4,0-.28,0-.56-.07-.83a5.77,5.77,0,0,0,1.06.71C547.09,539.94,547.43,541.33,547.78,542.84Zm-8.12-9a1,1,0,0,1,0-1.14,1.37,1.37,0,0,1,.38-.38,1.87,1.87,0,0,1,.46-.26.9.9,0,0,1-.16-.82,1.34,1.34,0,0,1,.5-.72,1.62,1.62,0,0,1,1.12-.41.86.86,0,0,1,.81.76,2.35,2.35,0,0,1,.91-.15.83.83,0,0,1,.72.49.78.78,0,0,1-.08.63,1.35,1.35,0,0,1-.48.44,2.41,2.41,0,0,1-1.5.35A2.45,2.45,0,0,1,541,534a1.75,1.75,0,0,1-.72.14A1,1,0,0,1,539.66,533.83Zm2.19,5.39a2.34,2.34,0,0,1-.66.47.78.78,0,0,1-.77-.06.77.77,0,0,1-.19-.87,2.19,2.19,0,0,1,.58-.74c-.14-.06-.47-.28-.32-.94a1.07,1.07,0,0,1,.79-.72.71.71,0,0,1,.85.65,1,1,0,0,1,.56-.76.73.73,0,0,1,.69.09.78.78,0,0,1,.12,1,2.19,2.19,0,0,1-.77.71.83.83,0,0,1,.61.76.8.8,0,0,1-1.49.43Zm.58,3.65a8.25,8.25,0,0,0,1.63.51c.86,1.31,1.87,3,2.93,4.75A68.82,68.82,0,0,0,542.43,542.87Zm2.74-.06a8.56,8.56,0,0,0,.48-1.64c1,2,2.11,4.21,3.16,6.36.15.74.3,1.48.46,2.22C547,545.71,545.17,542.81,545.17,542.81Z" transform="translate(-112.25 -476.16)"/><path class="cls-5" d="M578.41,554.93a43.34,43.34,0,0,1-5.35-1.14c-.19.16-.85.66-.85.66a49.48,49.48,0,0,1-13,6.72c-2.07.69-3.29,1.88-6.42,2.37-1.52,9.29-4.74,32.44-4.74,32.44a28.7,28.7,0,0,0,4.35-1.83c.17,2.48.32,5.14.39,7.82h4.14c4.3-16.71,19.35-33,21.62-35.44C578.54,564.48,578.49,560.15,578.41,554.93Z" transform="translate(-112.25 -476.16)"/><path class="cls-6" d="M605.59,549.74c-.3-.48-1.72-1-1.72-1s1.16-.22,1.27-.55-1-.69-2.55-.51a8.53,8.53,0,0,0-1.37.3.93.93,0,0,0-.64,1,8.46,8.46,0,0,1-2.15,6.46,12.45,12.45,0,0,0,1.09-7.46h0l-7-1.54-16.19-3.58a.9.9,0,0,1-.68-.62c-.83-2.73-4.92-15.8-10-25.33,7.07,7.59,11,24.61,11,24.61l1,.23c.25-.42.27-.46.45-.79-.16-6.78-.37-13-.65-16.22a55.51,55.51,0,0,0-3.73-14.37,1.07,1.07,0,0,1-.06-.35v-1.53a.91.91,0,0,0-.28-.66l-.5-.48a.94.94,0,0,1-.3-.69,13.34,13.34,0,0,1,.2-2.1.92.92,0,0,1,1.39-.62c.81.51,1.9,1,2.48.68,1-.64,1-1.38,1.51-2.42s.86-.68,1.08-1-.45-1-.52-1.11c.1,0,1.18.15,1.34-.07s.07-1.59.47-1.86,1.91.43,2.34.08-.08-3.13-.21-4.05.92-1.63,1.27-3.05a35.14,35.14,0,0,0,0-6.4.92.92,0,0,1,.23-.67,2.18,2.18,0,0,0,.45-2.09c-.42-1.49-9-9.58-17.24-3.76s-3.91,17.46-3.91,18.66a6.46,6.46,0,0,1-.11,1.05,17,17,0,0,1,6.41,4.58.91.91,0,0,1-1.24,1.31,35,35,0,0,0-7.08-3.74.93.93,0,0,0-1.12.39l-.94,1.61a1,1,0,0,1-.26.28c-1.29.9-10.12,7.36-10.12,16.79,0,10.16,4.28,17.8,4.28,33.2,0,.36,0,.72,0,1.09,1.4.46,3.47.94,4.8.39,2.25-1,5.43-2.21,8.21-3.64l.32.45a3.12,3.12,0,0,0,.64.6,8.26,8.26,0,0,0,3.22,1.42c6.67,1.43,23.16,4.35,27.47,3.6a8.06,8.06,0,0,0,.43-.73l1.33.13a11,11,0,0,0,2.34-.12c1.23-.31,1.26-1.11,1.26-1.13a2.27,2.27,0,0,0,1.27-1,.58.58,0,0,0-.06-.59s1.11-.81,1.18-1.2a.78.78,0,0,0-.24-.66S605.88,550.22,605.59,549.74Zm-53.79-24a11.7,11.7,0,0,1-.38-6.9,29.67,29.67,0,0,0,1,4.31c2.47,7.76,7.33,16.69,10.91,22.53A60,60,0,0,1,551.8,525.7Z" transform="translate(-112.25 -476.16)"/><path class="cls-7" d="M569.79,602.31" transform="translate(-112.25 -476.16)"/><path class="cls-8" d="M555.38,602.31" transform="translate(-112.25 -476.16)"/><path class="cls-9" d="M161.14,539.91a6.76,6.76,0,0,1-1.68,1.92,3.78,3.78,0,0,1-2.26.64,5.5,5.5,0,0,1-2.64-.78L151.37,540a26.91,26.91,0,0,0-4.08-1.73,16.47,16.47,0,0,0-5.22-.77q-5.06,0-7.53,2.16a7.31,7.31,0,0,0-2.48,5.83,5.4,5.4,0,0,0,1.49,3.89,12.92,12.92,0,0,0,3.91,2.66,41.78,41.78,0,0,0,5.54,2c2.08.62,4.2,1.32,6.37,2.08a56.08,56.08,0,0,1,6.36,2.69,21,21,0,0,1,5.54,3.94,18.45,18.45,0,0,1,3.92,5.83,20.8,20.8,0,0,1,1.49,8.28,27,27,0,0,1-1.86,10.07,23.71,23.71,0,0,1-5.41,8.18,25.08,25.08,0,0,1-8.74,5.48,32.67,32.67,0,0,1-11.79,2,37.57,37.57,0,0,1-7.38-.75,43.4,43.4,0,0,1-13.88-5.32,27.94,27.94,0,0,1-5.37-4.16l5.32-8.41a4.33,4.33,0,0,1,1.65-1.55,4.7,4.7,0,0,1,2.29-.58,6.13,6.13,0,0,1,3.23,1c1.08.67,2.3,1.42,3.67,2.24a30.41,30.41,0,0,0,4.71,2.23,17.57,17.57,0,0,0,6.29,1c3.27,0,5.8-.72,7.62-2.16s2.71-3.72,2.71-6.85a6.5,6.5,0,0,0-1.49-4.42,11.65,11.65,0,0,0-3.91-2.82,36.06,36.06,0,0,0-5.52-2q-3.09-.86-6.34-1.89a46.57,46.57,0,0,1-6.33-2.56,20.06,20.06,0,0,1-5.52-4,18.68,18.68,0,0,1-3.91-6.18,24.43,24.43,0,0,1-1.49-9.14,21.53,21.53,0,0,1,1.76-8.52,22,22,0,0,1,5.16-7.4,25.22,25.22,0,0,1,8.36-5.19,30.86,30.86,0,0,1,11.35-2,42.89,42.89,0,0,1,6.95.56,37.26,37.26,0,0,1,6.42,1.65,35.83,35.83,0,0,1,5.67,2.61,25.72,25.72,0,0,1,4.71,3.44Z" transform="translate(-112.25 -476.16)"/><path class="cls-10" d="M243.38,601.75H225.27V568.94H193.74v32.81H175.63V524.14h18.11v32.44h31.53V524.14h18.11Z" transform="translate(-112.25 -476.16)"/><path class="cls-11" d="M328.38,601.75H314.43a6.53,6.53,0,0,1-3.87-1.09,5.64,5.64,0,0,1-2.1-2.8l-4.58-13.53H274.37l-4.58,13.53a6.15,6.15,0,0,1-5.86,3.89H249.87l30-77.61h18.43Zm-49.85-29.67h21.2l-7.14-21.25q-.69-2-1.63-4.77t-1.83-5.94q-.86,3.25-1.76,6t-1.71,4.8Z" transform="translate(-112.25 -476.16)"/><path class="cls-12" d="M406.89,601.75h-14a6.5,6.5,0,0,1-3.86-1.09,5.64,5.64,0,0,1-2.1-2.8l-4.58-13.53H352.88l-4.58,13.53a6.18,6.18,0,0,1-5.86,3.89H328.38l30-77.61h18.43ZM357,572.08h21.19l-7.13-21.25c-.46-1.35-1-2.94-1.63-4.77s-1.23-3.81-1.83-5.94q-.86,3.25-1.76,6c-.61,1.85-1.17,3.45-1.71,4.8Z" transform="translate(-112.25 -476.16)"/><path class="cls-13" d="M483.59,562.92a40.66,40.66,0,0,1-2.91,15.53,36.28,36.28,0,0,1-8.17,12.3,37,37,0,0,1-12.71,8.09,44.8,44.8,0,0,1-16.48,2.91H413.17V524.14h30.15a44.6,44.6,0,0,1,16.48,2.93,37.81,37.81,0,0,1,12.71,8.1,36,36,0,0,1,8.17,12.28A40.46,40.46,0,0,1,483.59,562.92Zm-18.43,0a33.94,33.94,0,0,0-1.49-10.39,22.33,22.33,0,0,0-4.29-7.85,18.74,18.74,0,0,0-6.85-5,23.27,23.27,0,0,0-9.21-1.73h-12V587.9h12a23.27,23.27,0,0,0,9.21-1.73,18.74,18.74,0,0,0,6.85-5,22.24,22.24,0,0,0,4.29-7.85A34.14,34.14,0,0,0,465.16,562.92Z" transform="translate(-112.25 -476.16)"/><path class="cls-14" d="M511.92,601.75H493.81V524.14h18.11Z" transform="translate(-112.25 -476.16)"/><path class="cls-15" d="M652.28,523.29h14.81a6.61,6.61,0,0,1,3.92,1.09,5.93,5.93,0,0,1,2.18,2.89l15.36,42.48c.69,1.86,1.39,3.87,2.1,6s1.37,4.47,2,6.86q.75-3.58,1.77-6.86c.67-2.18,1.33-4.19,2-6l15.26-42.48a6.31,6.31,0,0,1,6-4h14.92l-31.81,79.36H684.09Z" transform="translate(-112.25 -476.16)"/><path class="cls-16" d="M759.25,602.65H740.73V523.29h18.52Z" transform="translate(-112.25 -476.16)"/><path class="cls-17" d="M785.67,523.4a4.76,4.76,0,0,1,2.72,1.25,16.13,16.13,0,0,1,1.36,1.47l37.7,47.66c-.15-1.52-.26-3-.33-4.43s-.11-2.79-.11-4.06v-42h16.23v79.36h-9.59a8.76,8.76,0,0,1-3.59-.65,7.61,7.61,0,0,1-2.83-2.4l-37.42-47.28c.11,1.38.2,2.74.27,4.06s.11,2.57.11,3.73v42.54H774V523.29h9.69A16.22,16.22,0,0,1,785.67,523.4Z" transform="translate(-112.25 -476.16)"/><path class="cls-18" d="M907.41,523.29v14.16H874.83V556h24.95v13.62H874.83v18.9h32.58v14.16h-51.1V523.29Z" transform="translate(-112.25 -476.16)"/><path class="cls-19" d="M962.09,539.42a6.91,6.91,0,0,1-1.72,2,3.85,3.85,0,0,1-2.31.65,5.62,5.62,0,0,1-2.7-.79l-3.26-1.77a28.11,28.11,0,0,0-4.17-1.77,16.57,16.57,0,0,0-5.34-.79c-3.45,0-6,.73-7.71,2.21a7.48,7.48,0,0,0-2.53,6,5.5,5.5,0,0,0,1.53,4,13.08,13.08,0,0,0,4,2.72,44,44,0,0,0,5.66,2.1q3.19.95,6.51,2.12a57.93,57.93,0,0,1,6.51,2.75,22,22,0,0,1,5.67,4,18.9,18.9,0,0,1,4,6,21.13,21.13,0,0,1,1.52,8.47,27.6,27.6,0,0,1-1.9,10.29,24.13,24.13,0,0,1-5.53,8.36,25.65,25.65,0,0,1-8.93,5.61,33.5,33.5,0,0,1-12.07,2,38.49,38.49,0,0,1-7.54-.76,44.72,44.72,0,0,1-7.44-2.15,43.51,43.51,0,0,1-6.75-3.29,29,29,0,0,1-5.5-4.25l5.44-8.61a4.52,4.52,0,0,1,1.69-1.58,4.81,4.81,0,0,1,2.35-.6,6.22,6.22,0,0,1,3.29,1q1.67,1,3.76,2.28a30.07,30.07,0,0,0,4.82,2.29,18.06,18.06,0,0,0,6.43,1c3.34,0,5.93-.74,7.79-2.21s2.77-3.8,2.77-7a6.64,6.64,0,0,0-1.52-4.52,12,12,0,0,0-4-2.89,37.65,37.65,0,0,0-5.64-2c-2.11-.58-4.27-1.23-6.48-1.93a47.1,47.1,0,0,1-6.49-2.62,20.54,20.54,0,0,1-5.63-4.08,19.12,19.12,0,0,1-4-6.32,25.26,25.26,0,0,1-1.52-9.34,22.51,22.51,0,0,1,7.08-16.29,25.89,25.89,0,0,1,8.55-5.31,31.48,31.48,0,0,1,11.6-2,43.74,43.74,0,0,1,7.11.57,37.51,37.51,0,0,1,6.56,1.69,36.65,36.65,0,0,1,5.8,2.67,27.47,27.47,0,0,1,4.83,3.51Z" transform="translate(-112.25 -476.16)"/><path class="cls-20" d="M611.35,513a3.48,3.48,0,0,0-.06-3.79,3.52,3.52,0,0,1-.28,3.19,4,4,0,0,1-3.41,2l0,.06A3.84,3.84,0,0,0,611.35,513Z" transform="translate(-112.25 -476.16)"/><path class="cls-20" d="M544.16,533.56a1,1,0,0,0,.72.53,2.29,2.29,0,0,0,1.73-.31,2.1,2.1,0,0,0,1.62.58.91.91,0,0,0,.85-.55.75.75,0,0,0-.27-.73,1.83,1.83,0,0,0-.74-.33.79.79,0,0,0-.26-.94,2,2,0,0,0-1-.31,1.72,1.72,0,0,0-.64,0,.66.66,0,0,0-.44.37c-.09.22,0,.39,0,.59a3.74,3.74,0,0,0-1,.1A.82.82,0,0,0,544.16,533.56Z" transform="translate(-112.25 -476.16)"/><path class="cls-20" d="M551.42,518.8a11.7,11.7,0,0,0,.38,6.9,60,60,0,0,0,11.55,19.94c-3.58-5.84-8.44-14.77-10.91-22.53A29.67,29.67,0,0,1,551.42,518.8Z" transform="translate(-112.25 -476.16)"/><path class="cls-20" d="M607.69,514.73h0a2.93,2.93,0,0,0,2.7.85,2.32,2.32,0,0,0,1.9-2.61,4.29,4.29,0,0,1-.29.5A3.5,3.5,0,0,1,607.69,514.73Z" transform="translate(-112.25 -476.16)"/><path class="cls-20" d="M611.26,508.6c.25-.05.8-.29.94-1.32a3,3,0,0,0-1.4-3,3.2,3.2,0,0,1,.68,1.13A3.91,3.91,0,0,1,611.26,508.6Z" transform="translate(-112.25 -476.16)"/><path class="cls-20" d="M578.57,540.18c.11-.18.22-.37.32-.56C578.83,539.72,578.72,539.93,578.57,540.18Z" transform="translate(-112.25 -476.16)"/><path class="cls-20" d="M608,515.56l-.09,0c.65,2,1.58,4,.67,7.38a14.67,14.67,0,0,1-.62,1.72c1-1.56,2.1-3.32,2.1-5.17A5.25,5.25,0,0,0,608,515.56Z" transform="translate(-112.25 -476.16)"/><path class="cls-20" d="M594,534.3a58.82,58.82,0,0,0,3-9.82,137.68,137.68,0,0,1-11.14,19.12l-8.14-1.88a3.31,3.31,0,0,1-.28.42,3.31,3.31,0,0,0,.28-.42l-1-.23s-3.93-17-11-24.61c5.7,10.69,10.15,25.84,10.15,25.84l16.72,3.69h0l1.46.32C590.75,542.68,593,536.49,594,534.3Z" transform="translate(-112.25 -476.16)"/><path class="cls-20" d="M538.43,537.27a.92.92,0,0,0-.51.28,1,1,0,0,0-1.25,0,.64.64,0,0,0,0,1,1.07,1.07,0,0,0-.27,1,.6.6,0,0,0,.51.37.79.79,0,0,0,.49-.2,1.1,1.1,0,0,0,.37-.91,1.29,1.29,0,0,0,1.06-.34.88.88,0,0,0,.29-.45.6.6,0,0,0-.11-.52A.57.57,0,0,0,538.43,537.27Z" transform="translate(-112.25 -476.16)"/><path class="cls-20" d="M625.66,579.25c-.39-5.58-5-10.62-10.75-10.62a12.06,12.06,0,0,0-2.22.2c3.93,4.77,8.47,10.34,13.22,16.55a4.08,4.08,0,0,1,2.67-1C626.2,583.26,626,584.37,625.66,579.25Z" transform="translate(-112.25 -476.16)"/><path class="cls-20" d="M542.43,542.87a68.82,68.82,0,0,1,4.56,5.26c-1.06-1.79-2.07-3.44-2.93-4.75A8.25,8.25,0,0,1,542.43,542.87Z" transform="translate(-112.25 -476.16)"/><path class="cls-20" d="M545.79,538.87c.54,1,1.22,2.41,2,4-.35-1.51-.69-2.9-1-4.09a5.77,5.77,0,0,1-1.06-.71C545.75,538.31,545.77,538.59,545.79,538.87Z" transform="translate(-112.25 -476.16)"/><path class="cls-20" d="M545.65,541.17a8.56,8.56,0,0,1-.48,1.64s1.79,2.9,4.1,6.94c-.16-.74-.31-1.48-.46-2.22C547.76,545.38,546.67,543.17,545.65,541.17Z" transform="translate(-112.25 -476.16)"/><path class="cls-20" d="M542.76,539.58a.82.82,0,0,0,.58-.79.83.83,0,0,0-.61-.76,2.19,2.19,0,0,0,.77-.71.78.78,0,0,0-.12-1,.73.73,0,0,0-.69-.09,1,1,0,0,0-.56.76.71.71,0,0,0-.85-.65,1.07,1.07,0,0,0-.79.72c-.15.66.18.88.32.94a2.19,2.19,0,0,0-.58.74.77.77,0,0,0,.19.87.78.78,0,0,0,.77.06,2.34,2.34,0,0,0,.66-.47A.82.82,0,0,0,542.76,539.58Z" transform="translate(-112.25 -476.16)"/><path class="cls-20" d="M541,534a2.45,2.45,0,0,0,1.32-1.38,2.41,2.41,0,0,0,1.5-.35,1.35,1.35,0,0,0,.48-.44.78.78,0,0,0,.08-.63.83.83,0,0,0-.72-.49,2.35,2.35,0,0,0-.91.15.86.86,0,0,0-.81-.76,1.62,1.62,0,0,0-1.12.41,1.34,1.34,0,0,0-.5.72.9.9,0,0,0,.16.82,1.87,1.87,0,0,0-.46.26,1.37,1.37,0,0,0-.38.38,1,1,0,0,0,0,1.14,1,1,0,0,0,.65.31A1.75,1.75,0,0,0,541,534Z" transform="translate(-112.25 -476.16)"/><path class="cls-20" d="M541,534a2.45,2.45,0,0,0,1.32-1.38,2.41,2.41,0,0,0,1.5-.35,1.35,1.35,0,0,0,.48-.44.78.78,0,0,0,.08-.63.83.83,0,0,0-.72-.49,2.35,2.35,0,0,0-.91.15.86.86,0,0,0-.81-.76,1.62,1.62,0,0,0-1.12.41,1.34,1.34,0,0,0-.5.72.9.9,0,0,0,.16.82,1.87,1.87,0,0,0-.46.26,1.37,1.37,0,0,0-.38.38,1,1,0,0,0,0,1.14,1,1,0,0,0,.65.31A1.75,1.75,0,0,0,541,534Z" transform="translate(-112.25 -476.16)"/><path class="cls-20" d="M538.43,537.27a.92.92,0,0,0-.51.28,1,1,0,0,0-1.25,0,.64.64,0,0,0,0,1,1.07,1.07,0,0,0-.27,1,.6.6,0,0,0,.51.37.79.79,0,0,0,.49-.2,1.1,1.1,0,0,0,.37-.91,1.29,1.29,0,0,0,1.06-.34.88.88,0,0,0,.29-.45.6.6,0,0,0-.11-.52A.57.57,0,0,0,538.43,537.27Z" transform="translate(-112.25 -476.16)"/><path class="cls-20" d="M545.79,538.87c.54,1,1.22,2.41,2,4-.35-1.51-.69-2.9-1-4.09a5.77,5.77,0,0,1-1.06-.71C545.75,538.31,545.77,538.59,545.79,538.87Z" transform="translate(-112.25 -476.16)"/><path class="cls-20" d="M544.16,533.56a1,1,0,0,0,.72.53,2.29,2.29,0,0,0,1.73-.31,2.1,2.1,0,0,0,1.62.58.91.91,0,0,0,.85-.55.75.75,0,0,0-.27-.73,1.83,1.83,0,0,0-.74-.33.79.79,0,0,0-.26-.94,2,2,0,0,0-1-.31,1.72,1.72,0,0,0-.64,0,.66.66,0,0,0-.44.37c-.09.22,0,.39,0,.59a3.74,3.74,0,0,0-1,.1A.82.82,0,0,0,544.16,533.56Z" transform="translate(-112.25 -476.16)"/><path class="cls-20" d="M542.76,539.58a.82.82,0,0,0,.58-.79.83.83,0,0,0-.61-.76,2.19,2.19,0,0,0,.77-.71.78.78,0,0,0-.12-1,.73.73,0,0,0-.69-.09,1,1,0,0,0-.56.76.71.71,0,0,0-.85-.65,1.07,1.07,0,0,0-.79.72c-.15.66.18.88.32.94a2.19,2.19,0,0,0-.58.74.77.77,0,0,0,.19.87.78.78,0,0,0,.77.06,2.34,2.34,0,0,0,.66-.47A.82.82,0,0,0,542.76,539.58Z" transform="translate(-112.25 -476.16)"/><path class="cls-20" d="M551.42,518.8a11.7,11.7,0,0,0,.38,6.9,60,60,0,0,0,11.55,19.94c-3.58-5.84-8.44-14.77-10.91-22.53A29.67,29.67,0,0,1,551.42,518.8Z" transform="translate(-112.25 -476.16)"/><path class="cls-20" d="M542.43,542.87a68.82,68.82,0,0,1,4.56,5.26c-1.06-1.79-2.07-3.44-2.93-4.75A8.25,8.25,0,0,1,542.43,542.87Z" transform="translate(-112.25 -476.16)"/><path class="cls-20" d="M545.65,541.17a8.56,8.56,0,0,1-.48,1.64s1.79,2.9,4.1,6.94c-.16-.74-.31-1.48-.46-2.22C547.76,545.38,546.67,543.17,545.65,541.17Z" transform="translate(-112.25 -476.16)"/><path class="cls-21" d="M573.1,553.81" transform="translate(-112.25 -476.16)"/><path class="cls-20" d="M545.79,538.87c.54,1,1.22,2.41,2,4-.35-1.51-.69-2.9-1-4.09a5.77,5.77,0,0,1-1.06-.71C545.75,538.31,545.77,538.59,545.79,538.87Z" transform="translate(-112.25 -476.16)"/><path class="cls-20" d="M541,534a2.45,2.45,0,0,0,1.32-1.38,2.41,2.41,0,0,0,1.5-.35,1.35,1.35,0,0,0,.48-.44.78.78,0,0,0,.08-.63.83.83,0,0,0-.72-.49,2.35,2.35,0,0,0-.91.15.86.86,0,0,0-.81-.76,1.62,1.62,0,0,0-1.12.41,1.34,1.34,0,0,0-.5.72.9.9,0,0,0,.16.82,1.87,1.87,0,0,0-.46.26,1.37,1.37,0,0,0-.38.38,1,1,0,0,0,0,1.14,1,1,0,0,0,.65.31A1.75,1.75,0,0,0,541,534Z" transform="translate(-112.25 -476.16)"/><path class="cls-20" d="M542.76,539.58a.82.82,0,0,0,.58-.79.83.83,0,0,0-.61-.76,2.19,2.19,0,0,0,.77-.71.78.78,0,0,0-.12-1,.73.73,0,0,0-.69-.09,1,1,0,0,0-.56.76.71.71,0,0,0-.85-.65,1.07,1.07,0,0,0-.79.72c-.15.66.18.88.32.94a2.19,2.19,0,0,0-.58.74.77.77,0,0,0,.19.87.78.78,0,0,0,.77.06,2.34,2.34,0,0,0,.66-.47A.82.82,0,0,0,542.76,539.58Z" transform="translate(-112.25 -476.16)"/><path class="cls-20" d="M544.16,533.56a1,1,0,0,0,.72.53,2.29,2.29,0,0,0,1.73-.31,2.1,2.1,0,0,0,1.62.58.91.91,0,0,0,.85-.55.75.75,0,0,0-.27-.73,1.83,1.83,0,0,0-.74-.33.79.79,0,0,0-.26-.94,2,2,0,0,0-1-.31,1.72,1.72,0,0,0-.64,0,.66.66,0,0,0-.44.37c-.09.22,0,.39,0,.59a3.74,3.74,0,0,0-1,.1A.82.82,0,0,0,544.16,533.56Z" transform="translate(-112.25 -476.16)"/><path class="cls-20" d="M538.43,537.27a.92.92,0,0,0-.51.28,1,1,0,0,0-1.25,0,.64.64,0,0,0,0,1,1.07,1.07,0,0,0-.27,1,.6.6,0,0,0,.51.37.79.79,0,0,0,.49-.2,1.1,1.1,0,0,0,.37-.91,1.29,1.29,0,0,0,1.06-.34.88.88,0,0,0,.29-.45.6.6,0,0,0-.11-.52A.57.57,0,0,0,538.43,537.27Z" transform="translate(-112.25 -476.16)"/><path class="cls-20" d="M542.43,542.87a68.82,68.82,0,0,1,4.56,5.26c-1.06-1.79-2.07-3.44-2.93-4.75A8.25,8.25,0,0,1,542.43,542.87Z" transform="translate(-112.25 -476.16)"/><path class="cls-20" d="M545.65,541.17a8.56,8.56,0,0,1-.48,1.64s1.79,2.9,4.1,6.94c-.16-.74-.31-1.48-.46-2.22C547.76,545.38,546.67,543.17,545.65,541.17Z" transform="translate(-112.25 -476.16)"/></svg>