<svg id="Layer_1" data-name="Layer 1" xmlns="http://www.w3.org/2000/svg" xmlns:xlink="http://www.w3.org/1999/xlink" viewBox="0 0 1080 1080"><defs><style>.cls-1{fill:url(#linear-gradient);}.cls-2{fill:url(#linear-gradient-2);}.cls-3{fill:url(#linear-gradient-3);}.cls-4{fill:url(#linear-gradient-4);}.cls-5{fill:url(#linear-gradient-5);}.cls-6{fill:url(#linear-gradient-6);}.cls-7{fill:none;}</style><linearGradient id="linear-gradient" x1="516.82" y1="2321.15" x2="693" y2="428.34" gradientUnits="userSpaceOnUse"><stop offset="0" stop-color="#ff69c6"/><stop offset="1" stop-color="#f20a3d"/></linearGradient><linearGradient id="linear-gradient-2" x1="534.19" y1="1265.82" x2="563.58" y2="950" xlink:href="#linear-gradient"/><linearGradient id="linear-gradient-3" x1="462.57" y1="2067.71" x2="670.87" y2="-170.14" xlink:href="#linear-gradient"/><linearGradient id="linear-gradient-4" x1="183.74" y1="1525.2" x2="297.77" y2="300.12" xlink:href="#linear-gradient"/><linearGradient id="linear-gradient-5" x1="450.08" y1="-421.36" x2="331.18" y2="1141.9" gradientUnits="userSpaceOnUse"><stop offset="0.01" stop-color="#044f1d"/><stop offset="1" stop-color="#1bdbb6"/></linearGradient><linearGradient id="linear-gradient-6" x1="535.92" y1="-414.83" x2="417.02" y2="1148.43" xlink:href="#linear-gradient-5"/></defs><title>SHAADI VINES ICON</title><path class="cls-1" d="M893.53,957.25a140.53,140.53,0,0,0,14.89-62.32c0-62.31-50.95-127.4-135-127.4a102.2,102.2,0,0,0-27.11,3.67c-33.55-40.77-60.87-73.7-77.93-97.38-7.47,1.7-19.23,1-19.23,1,16.42,25.37,44.21,60.33,78.91,103.35C700.14,792,680,818.46,680,852.21c0,42.31,36.64,61.87,60.61,61.87s42.12-21.46,31.6-36.19S743,893.24,722.3,893.24s-29-21.68-29-42.94c0-21.65,14.12-48.73,43.29-61.66,34.53,42.72,75.06,92.77,117.52,148.67-10.19,29.68-27.42,82.27-108.4,82.27-51.79,0-139.25-30.29-192.93-129.1,31.58,47.74,82.17,86.22,139.12,95.62,28.3,4.71,68.11,1.64,83.29-27.13a12.63,12.63,0,0,0,1.5-5.74c-.28-17.28-14.94-15-18.8-10.3a12.46,12.46,0,0,0-2.14,10.75c1.55,5.17,3.36,6.19,5.14,7.24a33.33,33.33,0,0,1-28.27,6.92c-12.07-2.42-25.37-13.2-36.34-18.34-16.9-7.83-41.12-18.16-52.76,10.28a196.53,196.53,0,0,1-31.53-19c-48.43-35.89-78.28-90-92.79-147.67,6,15.16,14.18,29.2,26,41.12,16.85,17.09,42.17,27.87,65,15.59,9.64-5.21,17.56-14.44,18.85-25.6,1.26-10.69-5.86-22.83-17.8-22.11-9.67.59-17.23,12.78-10.76,21.06,4.9,6.31,13.73,5,18.18-.26-.4,5-3.4,10-6.85,13.4C605,843,595,846,585.67,845.45c-23-1.26-41-21.82-52.28-40.05-21.61-35-26-75.32-26.27-115.47a280.46,280.46,0,0,0,7.37,29.18c5.1,17,15.64,32.72,29.92,43.36,13,9.78,29.65,15.58,46,12.73,7.74-1.36,15.62-5.07,18.3-13,2.17-6.36-1-14.14-7.66-16.19-7.16-2.21-15.44,4.62-12.94,12.24,1.31,4.07,5.57,6.33,9.49,6.06a19,19,0,0,1-4.61,2.27c-6.57,2.09-14,1.9-20.61.59-13.69-2.71-25.92-11.23-35-21.66-9.71-11.09-16.95-25.41-21-39.6-2.83-10-4.38-20.42-6.69-30.55-4.45-.74-8.8-1.45-13-2.24a458.35,458.35,0,0,0,.19,64.16c-6.47,7.92-21,27-21,26.7-18.61,19.61-142.1,153.59-177.36,290.65h6.21c25.92-67.68,61.21-123.23,90.15-161.92-34.18,48.54-58.9,104.92-74.92,161.92h9.93a562.69,562.69,0,0,1,33.05-89.15c13.83-29.34,30.18-57.21,47.76-84.34a731.45,731.45,0,0,0-50.38,173.49h26.63c.72-20.16,3-41.46,7.12-66.3a322.89,322.89,0,0,1,7.66-35.84,2.34,2.34,0,0,0,.12-.41,293.5,293.5,0,0,0-2.31,36c0,24.08,2.88,46.55,8.62,66.59h16.28c-6.67-19.59-10.36-42.48-10.36-68.3,0-88.89,40.32-162.31,73.4-200.67-19.44,36.72-44.31,99.14-39.91,154.43.74,9.49,4.47,22.56,10.64,34.1-21.11-21.3-24-52.14-24-52.14-13.66,39.81,25.87,78.37,57.35,78.37l-.21-.22a24.06,24.06,0,0,0,4.48-.38c8.75-1.5,18.6-9.88,13-19.47-6.07-10.37-17.47-3.35-21.87,4.26a20.71,20.71,0,0,1-2.91-1.85,16.57,16.57,0,0,1-5.61-9.43c-2.07-9.71,2.36-19.39,4.21-28.77,1.6-8.07,2.19-17.35-2.66-24.51-4.17-6.12-12.28-11.85-20-9a224.23,224.23,0,0,1,2.88-26.75,315.46,315.46,0,0,1,17-60.38c6.35-16.59,14.4-32.39,21.25-48.74,17.66,116.19,79,229.85,192,258.81,14.35,5.4,28.87,11.42,40.69,20.68H791a161.37,161.37,0,0,0,24.84-1.93,316.33,316.33,0,0,0-36.19-13.14c23.53-.69,46.71-.52,70,4q5.9-2.32,11.54-5.12c-7.06-1.31-14.16-2.33-21.39-3.16a286.68,286.68,0,0,0-36.27-2,150.64,150.64,0,0,0,79.18-57.62c7.37,10,60.46,79,60.46,79h27.77c-1.34,0-6-7.23-6.82-8.23-5.72-6.89-11.48-13.77-17.17-20.69C937.45,1014.12,901.93,968.56,893.53,957.25ZM864.3,918.51c-39-51-76.22-96.62-108.45-135.74a100.23,100.23,0,0,1,18.21-1.65c47.17,0,85,41.36,88.12,87.15,2.88,42,4.43,32.84,24,41.74C886.2,910,873.87,909.56,864.3,918.51Z"/><path class="cls-2" d="M552.19,990.5c-35.39,0-56.45,23.7-56.45,48.88a37.32,37.32,0,0,0,3.05,15.21h33.86a9.8,9.8,0,0,0-8.69-4.69c-13.89,0-14.7-7.16-14.7-12.66,0-8.83,7.47-32.41,40.62-32.41,30.77,0,26.46,27.67,24.94,49.76h38.74C608.64,1020.06,583.79,990.5,552.19,990.5Z"/><path class="cls-3" d="M626.92,419c-5.9,32.92-20.94,71.92-24.34,80.5-8,18-26.72,68.75-.26,102l-12-2.64,57.24,12.65c1.66-11.3,4.8-25.44,8.52-41.26,4.83,9.47,13.63,14.63,29.12,11.37-40.74-21.15,34.51-53,7.38-109.66,3.26,6.26,10.69,12.9,17.75,12.78a19.78,19.78,0,0,0,17-11,23.06,23.06,0,0,1-6.26-.76c-4.12-1.9-11.59-7.16-11.59-20.39,0-18.07,31.58-34.51,31.58-66.5,0-18.08-7.26-29.27-13.54-35.6a33.14,33.14,0,0,0,10.14,1.67c21.2,0,24.22-22.66,17.54-35.75,1.45-9.73-3-17.51-7.31-22.61,1.24-.66,9.57-5.68,9.57-17.42,0-10.61-6-24.29-26.92-30.41a155.38,155.38,0,0,0-1.9-39.46c0-.26-.1-.5-.17-.76-.24-1.4-.45-2.81-.74-4.21-5.92-27.82-18.15-50-39.45-63.87-36-27.44-81.58-16.62-87.65-11.59-7.17,5.87-9.28,18.06-9.28,18.06s-26,22.44-29.18,31.94c-1,3-1.9,5.75-2.86,8.37a34.71,34.71,0,0,0-7.3,5.1,11.21,11.21,0,0,1-3.67-6.17s-2.57,6.66,4.6,12.78a15.84,15.84,0,0,1-1.84,2c-5.83,4.91-26.79,8.93-27.29,15-.38,4.72,11.64,8.12,9.09,12.09s-9.54,5.57-9,8.86,6,8.42,6,8.42c-4.22-.19-7.57,1-7.57,3.17s3.26,3,5,6.83-6,8.11-5.88,18.84,24,12.09,30.3,13,9.68,2.93,23.61,36.63c6.32,15.37,4.75,30.27,1.21,42a68.48,68.48,0,0,0-5.83,5.21c-47.6,47.57-64.47,123.25-92.16,175-.85,1.59-1.74,3.1-2.61,4.64-2.25,4-5.21,9.16-7.26,12.59,15.24,3.42,40.06,9.19,66.83,15.46C585.29,507,625.65,421.63,626.92,419Zm107.37-41.34c0,15.16-8.61,29.63-17.2,42.38a119.13,119.13,0,0,0,5.07-14.11c7.52-27.37-.1-44.05-5.43-60.56a3.49,3.49,0,0,1,.71.45C723.8,351.09,734.29,362.3,734.29,377.65Zm18.3-53c.15,7-1.71,19.21-15.58,21.47-10.4,1.67-17.57-2.36-22.14-7a.21.21,0,0,0,0-.15c7.23,2.5,24.77,6.43,35.45-10.18A32.1,32.1,0,0,0,752.59,324.6Zm-.81-46.76c-1.14,8.47-5.66,10.42-7.71,10.88a31.81,31.81,0,0,0,1.81-25.83,25.63,25.63,0,0,0-5.57-9.28C747,258.18,753.35,265.8,751.78,277.84Zm-9.78,42a28.73,28.73,0,0,0,2.36-26.13c3.35,5.69,9,18.52.45,31.06-8.61,12.78-23.75,12.61-30.58,11.78-.05-.17-.09-.36-.14-.5C724,336.69,735.29,330.53,742,319.84Z"/><path class="cls-4" d="M423.68,664.49a59.42,59.42,0,0,0,7-5.09,209.07,209.07,0,0,1-32.05-11.59s-16.15-7.65-20.92-14.19a514.18,514.18,0,0,1-68.23,38.56c-8.38,4-26,.49-40.51-2q-2-4.92-4.07-9.8a262.15,262.15,0,0,1-13.39-104s-12.07,15.68-11.47,45.71c-7.93-39-14.85-67.58-14.85-67.58,21-24.21,21.06-63.76,12.3-66.83s-11.76,7-11.76,7-11.06-14.58-18.44-13a10.07,10.07,0,0,0-5.12,3.76c-2.31-8.61-5.9-14.42-9.42-14.73-9.23-.86-9.71,9.66-9.71,9.66s-14.3-11.37-21.06-8-7.14,21-7.14,21-14.09-2.23-13.07,9.69c.6,6.57,8.17,16.3,18.4,24.61-1.62,2.31-2.57,5.73-3.07,9.09-4.71-8.64-9.92-13.85-13-13.26-6.59,1.26-4.69,12.64-4.69,12.64s-11.06-10.73-18.68-5.09,1,20.58,1,20.58-13.54,2.81-12.59,8.83,26.83,24.63,50.5,22.73c23.92,15.13,55.84,57.76,60.64,64.23-54.92-68.33-89.34-27.63-89.34-27.63C182,591.59,229.8,648,243.53,665.94c.09.62.21,1.26.35,1.9-12.94-12.11-58.75-51.16-88-30.72-34.43,24-6,78.32-6,78.32s4.1-36.34,32.85-49.88c19.65-9.33,48.57,7.71,64.82,19.39-5,1.72-9.14,3-10.28,4.26C230.56,696.5,240,704,240,704c-1.55,5.83,8,8.28,8,8.28,0,4.81,8.57,5.61,8.57,5.61s-.05,5.62,14.18,4.12c10.4-1.12,31.7-12,47.88-18.51C363.26,689.62,398.79,678.37,423.68,664.49ZM152,529.43a8.06,8.06,0,0,1-2.35,3.76,10.89,10.89,0,0,1-8.71,2.74,9.08,9.08,0,0,1-3.07,7.47,6,6,0,0,1-4,1.62,5,5,0,0,1-4.16-3c-.81-1.9.09-5.9,2.26-8a5.23,5.23,0,0,1,.28-8.12,8,8,0,0,1,10.28.31,8.18,8.18,0,0,1,4.17-2.3,4.81,4.81,0,0,1,4.45,1.35A5,5,0,0,1,152,529.43Zm54.62-44.78c0-1.65-.81-3-.1-4.81a5.21,5.21,0,0,1,3.6-3,14.5,14.5,0,0,1,5.26-.31c2.9.29,5.88.81,8.18,2.59s3.55,5.17,2.15,7.69a15.36,15.36,0,0,1,6.06,2.71,6.09,6.09,0,0,1,2.22,6c-.72,2.81-4,4.26-6.93,4.48a17.4,17.4,0,0,1-13.32-4.72,18.69,18.69,0,0,1-14.19,2.5c-2.43-.59-5-1.9-5.88-4.3-1.21-3.17,1.22-6.76,4.36-8C200.93,484.24,203.74,485.05,206.64,484.65Zm16.73,84.93c-6.31-12.83-11.92-24-16.33-32.53-.11-2.36-.3-4.62-.57-6.83a51.58,51.58,0,0,0,8.69,5.83C217.75,545.76,220.51,557.21,223.37,569.58Zm-66.59-73.94c-2.14-2.52-1.83-6.57,0-9.33a11.51,11.51,0,0,1,3.14-3.12,17.31,17.31,0,0,1,3.76-2.14c-2.05-1.76-1.6-5.52-1.31-6.68a11,11,0,0,1,4.16-5.95c2.57-2.07,5.79-3.67,9.14-3.38s6.57,2.92,6.62,6.23a20.29,20.29,0,0,1,7.47-1.21c2.5.21,5.07,1.62,6,4a6.36,6.36,0,0,1-.69,5.16,11.33,11.33,0,0,1-3.9,3.67,19.6,19.6,0,0,1-12.31,2.83A20.12,20.12,0,0,1,168,497a13,13,0,0,1-5.91,1.15A7.71,7.71,0,0,1,156.78,495.64Zm17.92,44.22a17.88,17.88,0,0,1-5.38,3.85,6.37,6.37,0,0,1-6.3-.45c-2.07-1.59-2.48-4.71-1.57-7.16s2.85-4.21,4.73-6c-1.16-.5-3.88-2.31-2.57-7.78.81-3.24,4-5.26,6.43-5.86s7,1.19,7,5.31a7.92,7.92,0,0,1,4.54-6.26,6.11,6.11,0,0,1,5.72.76c2.3,1.83,2.33,5.45,1,8s-3.92,4.31-6.38,5.85a6.58,6.58,0,0,1,.27,12.74A6.72,6.72,0,0,1,174.7,539.86Zm4.81,29.94A59.55,59.55,0,0,0,192.88,574c7.07,10.81,15.31,24.33,24,39C202,594,188.62,579.27,179.51,569.8Zm22.42-.46a64.48,64.48,0,0,0,3.95-13.44c8.38,16.39,17.35,34.5,25.91,52.19q1.91,9.1,3.81,18.2C216.66,593.09,201.93,569.34,201.93,569.34Z"/><path class="cls-5" d="M474.63,668.77a361.69,361.69,0,0,1-43.91-9.37c-1.55,1.33-7,5.4-7,5.4-19.72,13.28-53.9,37.65-106.54,55.16-17,5.67-27,15.38-52.64,19.4-12.54,76.2-39,266.08-39,266.08a228.38,228.38,0,0,0,35.75-14.94c1.4,20.35,2.57,42.15,3.21,64.09h33.9c35.27-137.06,158.76-271,177.37-290.65C475.66,747.09,475.26,711.54,474.63,668.77Z"/><path class="cls-6" d="M697.55,626.2c-2.43-4-14.11-8.14-14.11-8.14s9.59-1.79,10.49-4.55-8.38-5.66-20.92-4.11a66,66,0,0,0-11.26,2.43,7.66,7.66,0,0,0-5.3,7.85c1.37,26-8,42.75-17.61,53,5.31-10.5,13.32-32.11,8.92-61.17h-.16l-57.24-12.65L457.53,569.53a7.49,7.49,0,0,1-5.58-5.14c-6.78-22.38-40.28-129.59-82-207.75,58.05,62.28,90.24,201.85,90.24,201.85l8.52,1.89c2.05-3.43,2.21-3.77,3.72-6.43-1.31-55.62-3.07-107-5.31-133.13-4.42-52.24-26.84-108.67-30.61-117.88a7.23,7.23,0,0,1-.54-2.8V287.57a7.59,7.59,0,0,0-2.29-5.42q-2.06-2-4.1-3.9a7.7,7.7,0,0,1-2.43-5.68,103.78,103.78,0,0,1,1.64-17.24,7.51,7.51,0,0,1,11.41-5.06c6.64,4.18,15.56,8.54,20.3,5.51,8.17-5.24,8.52-11.28,12.43-19.78s7.07-5.59,8.83-7.9-3.67-8.42-4.26-9.09c.83.1,9.71,1.21,11-.64s.55-13,3.81-15.18c4-2.67,15.71,3.49,19.21.59s-.6-25.63-1.74-33.2,7.57-13.37,10.47-25c2.41-9.71.41-41.89-.34-52.48a7.64,7.64,0,0,1,1.92-5.54,17.85,17.85,0,0,0,3.68-17.09C522,58.23,451.57-8.12,384,39.62s-32,143.19-32,153.07a55.1,55.1,0,0,1-.95,8.62c26.11,11.57,42.38,25,52.63,37.48,5.45,6.64-3.1,15.62-10.2,10.8a286.51,286.51,0,0,0-58.11-30.69,7.5,7.5,0,0,0-9.12,3.23l-7.78,13.19a7.25,7.25,0,0,1-2.13,2.31c-10.55,7.32-83,60.38-83,137.71,0,83.34,35.08,146,35.08,272.3,0,3-.05,6-.09,9,11.49,3.76,28.43,7.76,39.36,3.19,18.51-7.86,44.52-18.09,67.39-29.82.91,1.31,1.79,2.54,2.6,3.66a25.58,25.58,0,0,0,5.28,5,67.27,67.27,0,0,0,26.36,11.59c54.75,11.73,190,35.67,225.33,29.55a57.43,57.43,0,0,0,3.55-6c3.47.45,7.18.81,10.9,1.1,0,0,11.76.7,19.23-1,10-2.51,10.35-9.12,10.35-9.28A18.44,18.44,0,0,0,689.12,656a4.84,4.84,0,0,0-.45-4.81s9.12-6.66,9.66-9.83a6.54,6.54,0,0,0-2-5.47S700,630.15,697.55,626.2ZM256.38,429c-7.78-23.06-7.12-41.94-3.17-56.67a235.54,235.54,0,0,0,8.43,35.39c20.2,63.68,60.06,136.89,89.43,184.82C316,551.42,279.68,498.33,256.38,429Z"/><path class="cls-7" d="M744.81,324.77c8.52-12.54,2.9-25.37-.45-31.06A28.73,28.73,0,0,1,742,319.84c-6.71,10.69-18,16.85-27.91,16.21,0,.14.09.33.14.5C721.06,337.38,736.2,337.55,744.81,324.77Z"/><path class="cls-7" d="M193.69,493.48c.86,2.4,3.45,3.71,5.88,4.3a18.69,18.69,0,0,0,14.19-2.5A17.4,17.4,0,0,0,227.08,500c2.93-.22,6.21-1.67,6.93-4.48a6.09,6.09,0,0,0-2.22-6,15.36,15.36,0,0,0-6.06-2.71c1.4-2.52.11-5.88-2.15-7.69s-5.28-2.3-8.18-2.59a14.5,14.5,0,0,0-5.26.31,5.21,5.21,0,0,0-3.6,3c-.71,1.81.1,3.16.1,4.81-2.9.4-5.71-.41-8.59.81C194.91,486.72,192.48,490.31,193.69,493.48Z"/><path class="cls-7" d="M253.21,372.34c-4,14.73-4.61,33.61,3.17,56.67,23.3,69.32,59.66,122.41,94.69,163.54-29.37-47.93-69.23-121.14-89.43-184.82A235.54,235.54,0,0,1,253.21,372.34Z"/><path class="cls-7" d="M714.83,339a.21.21,0,0,1,0,.15c4.57,4.61,11.74,8.64,22.14,7,13.87-2.26,15.73-14.49,15.58-21.47a32.1,32.1,0,0,1-2.31,4.17C739.6,345.38,722.06,341.45,714.83,339Z"/><path class="cls-7" d="M744.07,288.72c2-.46,6.57-2.41,7.71-10.88,1.57-12-4.76-19.66-11.47-24.23a25.59,25.59,0,0,1,5.57,9.29A31.8,31.8,0,0,1,744.07,288.72Z"/><path class="cls-7" d="M476,547.79c.87-1.54,1.76-3,2.61-4.64Z"/><path class="cls-7" d="M717.44,345.81a3.49,3.49,0,0,0-.71-.45c5.33,16.51,12.95,33.19,5.43,60.56A119.13,119.13,0,0,1,717.09,420c8.59-12.75,17.2-27.22,17.2-42.38C734.29,362.3,723.8,351.09,717.44,345.81Z"/><path class="cls-7" d="M602.58,499.49c3.4-8.58,18.44-47.58,24.34-80.5-1.27,2.64-41.63,88-91.39,156.85-26.77-6.27-51.59-12-66.83-15.46a26.65,26.65,0,0,1-2.25,3.47,26.65,26.65,0,0,0,2.25-3.47l-8.52-1.89S428,418.92,369.94,356.64c46.81,87.69,83.27,211.94,83.27,211.94l137.15,30.28-.17,0,.17,0,12,2.64C575.86,568.24,594.58,517.45,602.58,499.49Z"/><path class="cls-7" d="M146.67,523.87a8.18,8.18,0,0,0-4.17,2.3,8,8,0,0,0-10.28-.31,5.23,5.23,0,0,0-.28,8.12c-2.17,2.12-3.07,6.12-2.26,8a5,5,0,0,0,4.16,3,6,6,0,0,0,4-1.62,9,9,0,0,0,3.07-7.47,10.89,10.89,0,0,0,8.71-2.74,8,8,0,0,0,2.35-3.76,5,5,0,0,0-.9-4.21A4.81,4.81,0,0,0,146.67,523.87Z"/><path class="cls-7" d="M862.18,868.27c-3.14-45.79-40.95-87.15-88.12-87.15a100.23,100.23,0,0,0-18.21,1.65c32.23,39.12,69.45,84.79,108.45,135.74,9.57-9,21.9-8.5,21.9-8.5C866.61,901.11,865.06,910.23,862.18,868.27Z"/><path class="cls-7" d="M179.51,569.8c9.11,9.47,22.47,24.15,37.36,43.14-8.68-14.63-16.92-28.15-24-39A59.55,59.55,0,0,1,179.51,569.8Z"/><path class="cls-7" d="M207,537.05c4.41,8.57,10,19.7,16.33,32.53-2.86-12.37-5.62-23.82-8.21-33.53a51.58,51.58,0,0,1-8.69-5.83C206.74,532.43,206.93,534.69,207,537.05Z"/><path class="cls-7" d="M205.88,555.9a64.48,64.48,0,0,1-3.95,13.44s14.73,23.75,33.67,56.95q-1.92-9.1-3.81-18.2C223.23,590.4,214.26,572.29,205.88,555.9Z"/><path class="cls-7" d="M182.18,542.86a6.58,6.58,0,0,0-.27-12.74c2.45-1.54,5-3.3,6.38-5.85s1.33-6.19-1-8a6.11,6.11,0,0,0-5.72-.76,7.92,7.92,0,0,0-4.54,6.26c0-4.12-4.57-6-7-5.31s-5.62,2.62-6.43,5.86c-1.31,5.47,1.41,7.28,2.57,7.78-1.88,1.81-3.78,3.52-4.73,6s-.5,5.57,1.57,7.16a6.37,6.37,0,0,0,6.3.45,17.88,17.88,0,0,0,5.38-3.85A6.72,6.72,0,0,0,182.18,542.86Z"/><path class="cls-7" d="M168,497.05a20.17,20.17,0,0,0,10.82-11.31,19.6,19.6,0,0,0,12.31-2.83,11.33,11.33,0,0,0,3.9-3.67,6.36,6.36,0,0,0,.69-5.16c-.88-2.4-3.45-3.81-6-4a20.29,20.29,0,0,0-7.47,1.21c0-3.31-3.31-6-6.62-6.23s-6.57,1.31-9.14,3.38a11,11,0,0,0-4.16,5.95c-.29,1.16-.74,4.92,1.31,6.68a17.31,17.31,0,0,0-3.76,2.14,11.51,11.51,0,0,0-3.14,3.12c-1.86,2.76-2.17,6.81,0,9.33a7.71,7.71,0,0,0,5.33,2.55A13.16,13.16,0,0,0,168,497.05Z"/><path class="cls-7" d="M168,497.05a20.17,20.17,0,0,0,10.82-11.31,19.6,19.6,0,0,0,12.31-2.83,11.33,11.33,0,0,0,3.9-3.67,6.36,6.36,0,0,0,.69-5.16c-.88-2.4-3.45-3.81-6-4a20.29,20.29,0,0,0-7.47,1.21c0-3.31-3.31-6-6.62-6.23s-6.57,1.31-9.14,3.38a11,11,0,0,0-4.16,5.95c-.29,1.16-.74,4.92,1.31,6.68a17.31,17.31,0,0,0-3.76,2.14,11.51,11.51,0,0,0-3.14,3.12c-1.86,2.76-2.17,6.81,0,9.33a7.71,7.71,0,0,0,5.33,2.55A13.16,13.16,0,0,0,168,497.05Z"/><path class="cls-7" d="M146.67,523.87a8.18,8.18,0,0,0-4.17,2.3,8,8,0,0,0-10.28-.31,5.23,5.23,0,0,0-.28,8.12c-2.17,2.12-3.07,6.12-2.26,8a5,5,0,0,0,4.16,3,6,6,0,0,0,4-1.62,9,9,0,0,0,3.07-7.47,10.89,10.89,0,0,0,8.71-2.74,8,8,0,0,0,2.35-3.76,5,5,0,0,0-.9-4.21A4.81,4.81,0,0,0,146.67,523.87Z"/><path class="cls-7" d="M207,537.05c4.41,8.57,10,19.7,16.33,32.53-2.86-12.37-5.62-23.82-8.21-33.53a51.58,51.58,0,0,1-8.69-5.83C206.74,532.43,206.93,534.69,207,537.05Z"/><path class="cls-7" d="M193.69,493.48c.86,2.4,3.45,3.71,5.88,4.3a18.69,18.69,0,0,0,14.19-2.5A17.4,17.4,0,0,0,227.08,500c2.93-.22,6.21-1.67,6.93-4.48a6.09,6.09,0,0,0-2.22-6,15.36,15.36,0,0,0-6.06-2.71c1.4-2.52.11-5.88-2.15-7.69s-5.28-2.3-8.18-2.59a14.5,14.5,0,0,0-5.26.31,5.21,5.21,0,0,0-3.6,3c-.71,1.81.1,3.16.1,4.81-2.9.4-5.71-.41-8.59.81C194.91,486.72,192.48,490.31,193.69,493.48Z"/><path class="cls-7" d="M182.18,542.86a6.58,6.58,0,0,0-.27-12.74c2.45-1.54,5-3.3,6.38-5.85s1.33-6.19-1-8a6.11,6.11,0,0,0-5.72-.76,7.92,7.92,0,0,0-4.54,6.26c0-4.12-4.57-6-7-5.31s-5.62,2.62-6.43,5.86c-1.31,5.47,1.41,7.28,2.57,7.78-1.88,1.81-3.78,3.52-4.73,6s-.5,5.57,1.57,7.16a6.37,6.37,0,0,0,6.3.45,17.88,17.88,0,0,0,5.38-3.85A6.72,6.72,0,0,0,182.18,542.86Z"/><path class="cls-7" d="M253.21,372.34c-4,14.73-4.61,33.61,3.17,56.67,23.3,69.32,59.66,122.41,94.69,163.54-29.37-47.93-69.23-121.14-89.43-184.82A235.54,235.54,0,0,1,253.21,372.34Z"/><path class="cls-7" d="M179.51,569.8c9.11,9.47,22.47,24.15,37.36,43.14-8.68-14.63-16.92-28.15-24-39A59.55,59.55,0,0,1,179.51,569.8Z"/><path class="cls-7" d="M205.88,555.9a64.48,64.48,0,0,1-3.95,13.44s14.73,23.75,33.67,56.95q-1.92-9.1-3.81-18.2C223.23,590.4,214.26,572.29,205.88,555.9Z"/><path class="cls-7" d="M207,537.05c4.41,8.57,10,19.7,16.33,32.53-2.86-12.37-5.62-23.82-8.21-33.53a51.58,51.58,0,0,1-8.69-5.83C206.74,532.43,206.93,534.69,207,537.05Z"/><path class="cls-7" d="M168,497.05a20.17,20.17,0,0,0,10.82-11.31,19.6,19.6,0,0,0,12.31-2.83,11.33,11.33,0,0,0,3.9-3.67,6.36,6.36,0,0,0,.69-5.16c-.88-2.4-3.45-3.81-6-4a20.29,20.29,0,0,0-7.47,1.21c0-3.31-3.31-6-6.62-6.23s-6.57,1.31-9.14,3.38a11,11,0,0,0-4.16,5.95c-.29,1.16-.74,4.92,1.31,6.68a17.31,17.31,0,0,0-3.76,2.14,11.51,11.51,0,0,0-3.14,3.12c-1.86,2.76-2.17,6.81,0,9.33a7.71,7.71,0,0,0,5.33,2.55A13.16,13.16,0,0,0,168,497.05Z"/><path class="cls-7" d="M182.18,542.86a6.58,6.58,0,0,0-.27-12.74c2.45-1.54,5-3.3,6.38-5.85s1.33-6.19-1-8a6.11,6.11,0,0,0-5.72-.76,7.92,7.92,0,0,0-4.54,6.26c0-4.12-4.57-6-7-5.31s-5.62,2.62-6.43,5.86c-1.31,5.47,1.41,7.28,2.57,7.78-1.88,1.81-3.78,3.52-4.73,6s-.5,5.57,1.57,7.16a6.37,6.37,0,0,0,6.3.45,17.88,17.88,0,0,0,5.38-3.85A6.72,6.72,0,0,0,182.18,542.86Z"/><path class="cls-7" d="M193.69,493.48c.86,2.4,3.45,3.71,5.88,4.3a18.69,18.69,0,0,0,14.19-2.5A17.4,17.4,0,0,0,227.08,500c2.93-.22,6.21-1.67,6.93-4.48a6.09,6.09,0,0,0-2.22-6,15.36,15.36,0,0,0-6.06-2.71c1.4-2.52.11-5.88-2.15-7.69s-5.28-2.3-8.18-2.59a14.5,14.5,0,0,0-5.26.31,5.21,5.21,0,0,0-3.6,3c-.71,1.81.1,3.16.1,4.81-2.9.4-5.71-.41-8.59.81C194.91,486.72,192.48,490.31,193.69,493.48Z"/><path class="cls-7" d="M146.67,523.87a8.18,8.18,0,0,0-4.17,2.3,8,8,0,0,0-10.28-.31,5.23,5.23,0,0,0-.28,8.12c-2.17,2.12-3.07,6.12-2.26,8a5,5,0,0,0,4.16,3,6,6,0,0,0,4-1.62,9,9,0,0,0,3.07-7.47,10.89,10.89,0,0,0,8.71-2.74,8,8,0,0,0,2.35-3.76,5,5,0,0,0-.9-4.21A4.81,4.81,0,0,0,146.67,523.87Z"/><path class="cls-7" d="M179.51,569.8c9.11,9.47,22.47,24.15,37.36,43.14-8.68-14.63-16.92-28.15-24-39A59.55,59.55,0,0,1,179.51,569.8Z"/><path class="cls-7" d="M205.88,555.9a64.48,64.48,0,0,1-3.95,13.44s14.73,23.75,33.67,56.95q-1.92-9.1-3.81-18.2C223.23,590.4,214.26,572.29,205.88,555.9Z"/></svg>