<?xml version="1.0" encoding="UTF-8"?>
<svg id="Layer_1" data-name="Layer 1" xmlns="http://www.w3.org/2000/svg" viewBox="0 0 25 25">
  <defs>
    <style>
      .cls-1 {
        fill: #cd1f26;
      }

      .cls-2 {
        fill: #cd2027;
      }
    </style>
  </defs>
  <path class="cls-1" d="m21.96,12.22s-.01-.02-.02-.03c.01,0,.03.01.02.03Z"/>
  <g>
    <path class="cls-2" d="m24.47,1.13c-.07,0-.12.02-.18.06-.13.1-.27.19-.41.28-.46.3-.94.55-1.44.75-.53.21-1.06.43-1.65.44-.03,0-.05,0-.08,0-2.23,0-4.46,0-6.69,0-.11,0-.23,0-.34.03-.03,0-.06,0-.08,0-.04.03-.07.03-.11,0-.31.05-.63.07-.93.13-.32.07-.63.18-.91.33-.38.2-.66.52-.85.9-.07.15-.17.29-.15.47,0,.04.01.09-.01.12,0,.02,0,.04,0,.06.02.02.02.03,0,.05,0,.09,0,.19,0,.28,0,.07,0,.15,0,.22,0,1.74,0,3.47,0,5.21,0,.13-.04.16-.16.16-.55,0-1.11,0-1.66,0-1.04,0-2.07-.02-3.11-.02-.09,0-.16-.03-.22-.1-.05-.06-.01-.14-.04-.2,0,0,0-.02,0-.03,0-.12,0-.24,0-.36,0-.03,0-.06,0-.1,0-1.19,0-2.38,0-3.58,0-.37,0-.75-.08-1.12-.07-.36-.16-.71-.31-1.05-.14-.49-.37-.94-.67-1.36-.45-.63-.98-1.18-1.61-1.63-.39-.29-.81-.52-1.23-.75-.09-.05-.18-.08-.28-.07-.14.01-.21.09-.15.21.05.11.1.22.18.31.23.28.4.6.57.91.21.38.37.77.51,1.18.12.37.23.73.26,1.12-.02.23.02.45.02.67,0,1.93,0,3.86,0,5.79,0,.49,0,.99.09,1.47.02.12.02.24.05.36.1.44.24.87.53,1.22.22.27.48.51.83.63,0,.02,0,.03.03.02,0,0,.02,0,.03,0,.22.12.47.12.71.12,1.86,0,3.72,0,5.59,0,.08,0,.12,0,.12.11-.01,1.59-.02,3.18-.03,4.76,0,.24-.09.26-.28.3-.04,0-.09,0-.14,0-1.36,0-2.72,0-4.07,0-.29,0-.59,0-.88.03-.03,0-.07,0-.1,0-.18.07-.37.1-.56.14-.41.1-.8.25-1.17.43-.52.26-1,.61-1.43,1.02-.29.28-.57.57-.82.89-.35.45-.62.96-.91,1.46-.05.09-.04.2,0,.29.05.09.14.06.21.04.06-.01.12-.06.18-.1.31-.19.59-.42.92-.59.31-.16.63-.29.95-.44.25-.08.48-.19.74-.26.3-.08.61-.12.92-.12,1.19,0,2.38,0,3.56,0,1.16,0,2.33,0,3.49-.01.08,0,.15-.01.23-.02.18-.02.37-.04.55-.07.25-.04.5-.1.73-.18.23-.08.45-.19.65-.32.28-.19.48-.44.65-.74.1-.19.17-.38.18-.6.05-.04.02-.09.02-.14,0-.02,0-.04,0-.06,0,0,0-.02,0-.03,0-1.88,0-3.77,0-5.65,0-.11.01-.16.14-.16.83.01,1.67.02,2.5.02.75,0,1.49,0,2.24,0,.2,0,.27.05.29.21.01.09.02.19.02.29-.01.72.03,1.44-.01,2.17-.01.22.01.44.01.66,0,.76-.08,1.51.07,2.26.04.17.08.34.13.51.18.59.42,1.16.76,1.68.2.31.45.58.69.87.41.48.91.85,1.44,1.19.24.16.5.3.75.44.1.05.19.12.31.11.13-.01.19-.1.16-.22-.03-.11-.09-.21-.16-.3-.19-.27-.37-.55-.53-.83-.23-.4-.4-.82-.57-1.25-.03-.08-.06-.16-.09-.24-.06-.2-.15-.39-.15-.6-.01-.53-.01-1.06-.01-1.59,0-1.79-.01-3.58-.01-5.37,0-.37-.07-.73-.09-1.09-.01-.31-.07-.61-.17-.91,0-.02,0-.04,0-.05,0,0-.01-.02-.02-.03-.07-.23-.15-.46-.3-.66-.15-.19-.28-.41-.5-.53-.33-.26-.7-.38-1.11-.39-1.79,0-3.58,0-5.38,0-.11,0-.22.02-.33.01-.05,0-.11-.02-.08-.1,0-.03.01-.05.01-.08,0-.76.01-1.51.02-2.27,0-.83,0-1.66,0-2.49,0-.11.03-.19.14-.22.07-.02.15-.03.23-.03.96,0,1.93.01,2.89,0,.83-.01,1.67.09,2.5-.09.19-.06.38-.12.57-.19.63-.21,1.24-.48,1.76-.91.19-.15.38-.32.56-.48.28-.24.54-.52.76-.81.21-.29.42-.59.6-.9.12-.22.23-.45.36-.66.08-.13-.02-.28-.17-.29Z"/>
    <path class="cls-2" d="m15.74,8.03c.03.78.68,1.4,1.41,1.39.75-.01,1.39-.58,1.4-1.4,0-.85-.65-1.42-1.42-1.44-.8-.02-1.43.72-1.4,1.44Z"/>
    <path class="cls-2" d="m9.1,16.77c-.06-.66-.58-1.3-1.5-1.28-.6.01-1.35.66-1.3,1.42-.05.7.67,1.43,1.41,1.41.66-.02,1.47-.57,1.38-1.54Z"/>
    <path class="cls-2" d="m7.15,8.84c.53.37,1.03.41,1.58.07.38-.24.62-.59.65-1.06.05-.11.01-.21,0-.32-.07-.71-.74-1.28-1.51-1.23-.03,0-.06,0-.07.03-.1-.01-.19.02-.29.06-.44.19-.77.49-.89.97-.05.2-.07.41-.02.61.08.35.25.66.56.87Z"/>
    <path class="cls-2" d="m17.29,15.83c-.21-.06-.42-.1-.63-.06-.71.13-1.32.83-1.17,1.62.11.57.45.93.97,1.13.28.11.57.08.85-.02.85-.3,1.1-1.05.89-1.83-.16-.43-.47-.71-.91-.85Z"/>
  </g>
</svg>