<svg width="1920" height="149" viewBox="0 0 1920 149" fill="none" xmlns="http://www.w3.org/2000/svg">
<path d="M1920.43 118.365C1917.17 127.564 1927.36 138.552 1920.43 148.645L-42.7822 144.306C-43.4304 144.418 -44.1331 144.424 -44.897 144.301L-42.7822 144.306C-36.668 143.247 -35.3962 132.685 -33.2701 130.375C-28.0446 125.137 -38.1038 120.154 -33.2701 112.36C-39.9327 101.756 -38.6264 101.372 -37.7119 94.9842C-41.7617 88.3404 -33.5315 85.7851 -37.7119 82.2076C-43.46 76.7138 -39.8022 80.5467 -42.023 69.4311C-39.8022 64.7038 -49.6 67.5147 -47.7711 56.6546C-43.0681 52.4384 -45.8115 60.6153 -37.7119 49.3719C-38.3651 39.7896 -33.7927 48.4777 -29.2204 47.0723C-27.8379 47.6323 -26.3498 47.8992 -24.8541 47.8554C-23.3585 47.8116 -21.8892 47.4582 -20.5435 46.8182C-19.1978 46.1783 -18.0062 45.2663 -17.0473 44.1429C-16.0884 43.0194 -15.3841 41.71 -14.9808 40.3007C-5.05223 36.4678 2.78617 36.8511 1.61042 40.3007C5.79086 50.5219 15.3275 35.1902 29.6978 37.7455C36.0798 40.1955 43.1729 40.1955 49.5549 37.7455C63.2719 44.2615 69.8038 24.969 77.9035 37.7455C90.5754 41.3229 90.4448 43.7503 99.067 35.19C103.322 38.188 108.401 39.8644 113.643 40.0011C118.885 40.1378 124.048 38.7287 128.461 35.9568C138.259 44.6448 147.926 35.7011 157.985 37.6176C165.693 34.8067 173.531 42.0894 181.37 37.6176C189.208 38.5119 197.569 43.1115 204.885 37.6176C212.2 32.1237 219.647 38.7675 226.963 37.6176C234.409 31.6126 241.725 38.6398 248.91 35.3179C255.442 39.0231 259.622 29.3128 263.541 25.2244C267.461 21.1359 272.947 21.9026 277.65 21.136C284.182 22.9247 290.584 12.7034 295.94 18.8361C301.296 24.9688 307.567 16.4087 313.054 15.7699C318.54 15.131 323.635 11.9369 328.861 10.787C334.086 9.63715 339.312 -0.20082 345.06 5.9319C353.944 4.65425 363.48 9.63709 372.494 5.9319C377.197 4.65425 380.071 -0.711842 384.382 3.37664C391.316 4.70876 398.472 4.44636 405.285 2.61008C412.47 6.82633 419.786 -3.90604 426.317 3.50433C432.849 10.9147 438.467 1.07681 444.476 6.31518C447.873 6.57071 450.616 23.1801 454.405 12.8311C459.238 -1.22303 465.77 28.9296 470.996 16.1531C477.659 24.5856 477.789 12.8312 481.186 23.308C484.06 38.0009 486.411 17.9418 491.898 31.8682C497.385 45.7946 504.309 34.0402 511.363 35.8289C519.071 41.8338 526.387 34.168 532.135 34.9346C537.883 35.7012 544.546 31.7405 550.947 35.7012C557.479 18.1974 563.88 34.4235 569.628 35.7012C575.622 34.0234 581.815 33.1213 588.048 33.018C595.364 39.9173 596.932 23.5635 603.464 37.8732C608.951 37.4899 612.086 53.0772 618.226 42.856C624.758 48.3499 631.29 41.9616 637.822 42.856C643.309 48.3499 648.142 42.8559 653.629 44.0058C657.679 48.8609 661.859 39.6618 665.779 45.7945C669.567 56.0157 672.572 58.571 676.36 50.3941C684.982 55.5047 696.609 41.8338 705.493 50.3941C711.502 42.6004 717.512 48.9887 723.521 50.3941C730.053 47.711 733.972 51.1608 740.243 45.9224C745.599 49.7554 751.478 38.2565 757.356 44.9003C763.366 44.9003 769.245 53.8438 774.731 44.9003C785.052 58.3156 795.242 35.7012 805.562 44.9003C815.812 43.8779 826.143 43.8779 836.393 44.9003C838.267 45.8627 840.351 46.3656 842.468 46.3656C844.584 46.3656 846.669 45.8627 848.542 44.9003C854.682 50.0109 856.511 46.4334 861.606 50.0108C866.962 47.5833 872.58 50.522 878.328 52.3107C883.815 45.1558 886.036 54.2271 889.302 54.6104C892.568 54.9937 894.135 61.893 898.185 59.4655C901.451 69.8145 904.848 58.3156 908.114 59.4655C915.172 56.784 923.002 56.784 930.061 59.4655C935.809 54.3549 941.557 56.6547 947.436 59.4655C953.184 57.4212 958.932 68.1535 964.68 59.4655C974.609 50.5219 983.361 64.7038 992.898 57.0379C1001.26 64.3205 1008.84 52.8216 1016.81 51.5439C1020.19 52.6312 1023.81 52.826 1027.3 52.1081C1030.78 51.3903 1034.01 49.7853 1036.66 47.4555C1043.72 53.5883 1050.25 45.028 1056.78 48.4777C1062.53 40.3007 1068.28 48.861 1073.76 49.8831C1079.38 46.689 1085 54.3549 1090.49 46.689C1101.33 35.5734 1110.34 41.4506 1121.45 42.4727C1130.59 36.9788 1139.61 40.8118 1148.75 42.4727C1154.24 34.0402 1159.85 40.4285 1165.47 42.4727C1170.96 37.1066 1176.58 37.6176 1181.93 43.8781C1192.38 51.2885 1202.31 47.5833 1212.37 50.0108C1219.96 51.0885 1227.47 52.6678 1234.84 54.7381C1241.37 47.5832 1247.51 56.6547 1254.44 59.0822C1260.05 53.3328 1265.93 64.7038 1271.81 59.9765C1277.82 60.8708 1283.7 64.3205 1289.45 59.9765C1295.33 52.9494 1304.86 68.0257 1310.22 59.9765C1313.09 55.1214 1313.88 55.6324 1317.8 54.3548C1320.53 52.4126 1323.69 51.114 1327.02 50.56C1330.35 50.006 1333.76 50.2114 1337 51.1606C1343.01 61.1263 1349.8 42.4726 1356.07 48.3498C1367.31 41.706 1378.81 50.6497 1391.87 42.856C1403.88 45.788 1416.44 45.788 1428.45 42.856C1435.63 40.684 1441.64 50.1386 1448.7 45.4113C1453.92 49.4997 1459.54 39.5341 1464.64 45.4113C1470.12 46.1778 1474.96 54.7382 1480.57 48.0944C1484.23 50.2664 1488.02 41.8339 1491.68 48.0944C1496.77 42.856 1499.65 46.1778 1503.43 52.5661C1507.22 58.9543 1510.49 59.2099 1515.45 52.5661C1520.42 45.9223 1523.55 52.1828 1528.52 50.3941C1534.27 45.7945 1540.54 51.9273 1546.28 50.3941C1557 44.0058 1567.19 49.7553 1576.98 44.0058C1585.48 28.2907 1595.14 32.8904 1604.03 36.34C1609.25 29.9518 1613.82 40.3006 1618.92 33.7846C1624.54 36.0844 1627.02 24.5857 1631.98 28.1631C1640.48 23.1803 1652.23 30.0795 1661.12 26.5021C1667.78 21.5192 1669.35 12.5757 1674.18 23.9468C1678.1 22.4136 1683.85 38.512 1687.9 23.9468C1697.49 22.9252 1707.17 22.9252 1716.77 23.9468C1718.37 26.4517 1720.54 28.5556 1723.12 30.0898C1725.7 31.6241 1728.61 32.5462 1731.62 32.7821C1734.63 33.0181 1737.66 32.5614 1740.45 31.4487C1743.25 30.3359 1745.74 28.5981 1747.73 26.3744C1753.87 11.1703 1758.44 15.1309 1764.45 28.8018C1772.29 33.5291 1779.21 28.8018 1787.31 31.2293C1792.02 28.4185 1797.63 38.8952 1802.21 31.2293C1805.6 32.507 1808.61 30.9738 1811.87 26.2465C1819.45 23.819 1833.43 24.33 1841.66 22.0302C1849.89 19.7305 1848.97 26.7575 1854.72 22.0302C1854.33 26.2465 1866.22 22.0303 1864.52 19.475C1872.36 20.7526 1886.08 24.8411 1889.34 19.475C1894.63 18.7988 1899.79 17.3338 1904.63 15.131C1911.03 13.0868 1913.38 15.5142 1917.69 13.0867C1920.7 15.3865 1913.25 36.8509 1916.12 35.5733C1921.87 43.6225 1915.21 53.716 1916.12 63.1706C1915.81 72.2586 1917.28 81.3213 1920.43 89.8734C1922.77 99.2331 1922.77 109.006 1920.43 118.365Z" fill="white"/>
</svg>
