<?xml version="1.0" encoding="UTF-8"?>
<svg id="Layer_1" data-name="Layer 1" xmlns="http://www.w3.org/2000/svg" viewBox="0 0 500 500">
  <defs>
    <style>
      .cls-1 {
        fill: #18caa3;
      }

      .cls-2 {
        fill: #f20a3d;
      }

      .cls-3 {
        fill: #aa022e;
      }

      .cls-4 {
        fill: none;
      }
    </style>
  </defs>
  <g>
    <path class="cls-2" d="m250.02,231.8c-1.48,1.48-1.48,3.92.01,5.43l16.83,16.83-16.63,16.63c1.59-3.02,3.33-5.96,5.19-8.81l-15.03-15.02c-6.79-6.81-6.79-17.89,0-24.69l8.33-8.34c3.29-3.29,7.69-5.12,12.34-5.12s9.04,1.82,12.33,5.12l15.04,15.03c2.86-1.86,5.8-3.61,8.81-5.19l-16.63,16.63-16.84-16.84c-.73-.72-1.73-1.09-2.72-1.09s-1.98.37-2.7,1.09l-8.34,8.34Z"/>
    <path class="cls-2" d="m218.19,300.45h2.27l-19.73,19.73v-2.27c0-9.61,7.83-17.46,17.46-17.46Z"/>
    <path class="cls-2" d="m344.48,174.16h2.28l-19.74,19.74v-2.28c0-9.63,7.84-17.46,17.46-17.46Z"/>
    <path class="cls-2" d="m425.82,95.09l-23.02,23.02-48.49,48.49h-9.84c-13.8,0-25.03,11.23-25.03,25.01v9.85l-7.75,7.75h-.01c-7.69,2.6-15.08,5.96-22.11,10.06l-10.81-10.8c-4.72-4.74-11.02-7.33-17.69-7.33s-12.97,2.6-17.69,7.33l-8.33,8.33c-9.73,9.76-9.73,25.62,0,35.38l10.81,10.81c-4.11,7.03-7.48,14.43-10.06,22.11h0s-7.77,7.77-7.77,7.77h-9.84c-13.79,0-25.03,11.23-25.03,25.03v9.84l-92.37,92.37-56.77-56.77L315.85,91.53l6.48-6.47,23.7-23.72,23.02-23.02c15.67-15.67,41.09-15.67,56.77,0,15.67,15.67,15.67,41.09,0,56.77Z"/>
    <polygon class="cls-2" points="32.9 374.47 89.67 431.24 46.2 449.73 14.41 417.95 32.9 374.47"/>
    <polygon class="cls-3" points="0 464.14 26.66 457 7.14 437.49 0 464.14"/>
  </g>
  <path class="cls-2" d="m482.55,300.45h-21.25c-2.87-13.69-8.34-26.85-16-38.58l15.04-15.03c6.78-6.79,6.78-17.88-.01-24.69l-8.32-8.33c-3.31-3.29-7.7-5.12-12.36-5.12s-9.05,1.82-12.33,5.12l-15.03,15.03c-11.75-7.66-24.91-13.1-38.6-15.99v-21.25c0-9.63-7.82-17.46-17.45-17.46h-11.78c-9.61,0-17.46,7.83-17.46,17.46v21.25c-10.36,2.18-20.41,5.82-29.76,10.8-3.02,1.59-5.96,3.33-8.81,5.19l-15.04-15.03c-3.29-3.29-7.67-5.12-12.33-5.12s-9.05,1.82-12.34,5.12l-8.33,8.34c-6.79,6.79-6.79,17.88,0,24.69l15.03,15.02c-1.86,2.86-3.61,5.8-5.19,8.81-4.97,9.35-8.62,19.4-10.81,29.76h-21.24c-9.63,0-17.46,7.84-17.46,17.46v11.78c0,9.63,7.83,17.45,17.46,17.45h21.24c2.9,13.69,8.34,26.86,16,38.6l-15.03,15.03c-6.79,6.79-6.79,17.88,0,24.67l8.33,8.32c3.4,3.41,7.87,5.12,12.34,5.12s8.95-1.71,12.33-5.12l15.03-15.01c11.74,7.65,24.91,13.12,38.59,15.99v21.25c0,9.63,7.84,17.45,17.46,17.45h11.78c9.63,0,17.45-7.82,17.45-17.45v-21.25c13.69-2.87,26.85-8.34,38.6-15.99l15.02,15.01c1.64,1.65,3.57,2.94,5.65,3.8,2.11.88,4.35,1.32,6.69,1.32,4.66,0,9.05-1.82,12.33-5.12l8.34-8.33c3.31-3.29,5.12-7.67,5.12-12.34s-1.81-9.05-5.12-12.33l-15.03-15.03c7.66-11.75,13.13-24.91,16-38.6h21.25c9.6,0,17.45-7.82,17.45-17.45v-11.78c0-9.61-7.84-17.46-17.45-17.46Zm3.83,29.24c0,2.12-1.73,3.83-3.83,3.83h-32.75l-.9,5.77c-2.43,15.53-8.62,30.48-17.92,43.23l-3.44,4.72,23.16,23.15c.72.72,1.13,1.68,1.13,2.7s-.41,1.98-1.13,2.72l-8.33,8.33c-.73.72-1.68,1.13-2.72,1.13s-1.98-.41-2.7-1.14l-23.18-23.15-4.71,3.44c-12.74,9.31-27.69,15.49-43.23,17.92l-5.76.91v32.75c0,2.1-1.72,3.83-3.83,3.83h-11.78c-2.11,0-3.84-1.73-3.84-3.83v-32.75l-5.74-.91c-15.54-2.43-30.5-8.6-43.25-17.92l-4.71-3.44-23.15,23.15c-.75.76-1.73,1.13-2.72,1.13s-1.97-.37-2.73-1.13l-8.32-8.32c-1.48-1.5-1.48-3.92,0-5.42l23.16-23.15-3.44-4.72c-9.29-12.75-15.49-27.7-17.92-43.23l-.9-5.77h-32.74c-2.11,0-3.83-1.71-3.83-3.83v-11.78c0-2.11,1.72-3.84,3.83-3.84h32.74l.9-5.75c2.43-15.56,8.63-30.51,17.92-43.23l3.44-4.71-23.15-23.15c-1.5-1.51-1.5-3.95-.01-5.43l8.34-8.34c.72-.72,1.71-1.09,2.7-1.09s1.98.37,2.72,1.09l16.84,16.84,6.32,6.32,4.71-3.42c12.74-9.3,27.68-15.5,43.23-17.92l5.74-.91v-32.75c0-2.11,1.73-3.83,3.84-3.83h11.78c2.11,0,3.83,1.72,3.83,3.83v32.75l5.76.91c15.54,2.41,30.5,8.6,43.23,17.92l4.72,3.42,23.18-23.16c.71-.72,1.69-1.09,2.69-1.09s1.98.37,2.72,1.1l8.32,8.32c1.5,1.5,1.5,3.94.01,5.43l-23.16,23.16,3.44,4.71c9.3,12.74,15.49,27.68,17.92,43.23l.9,5.75h32.75c2.1,0,3.83,1.73,3.83,3.84v11.78Z"/>
  <path class="cls-1" d="m350.36,242.53c-44.81,0-81.27,36.46-81.27,81.27s36.46,81.27,81.27,81.27,81.26-36.46,81.26-81.27-36.45-81.27-81.26-81.27Zm0,148.91c-37.3,0-67.66-30.34-67.66-67.64s30.35-67.66,67.66-67.66,67.64,30.35,67.64,67.66-30.34,67.64-67.64,67.64Z"/>
  <path class="cls-4" d="m418.01,323.79c0,37.3-30.34,67.64-67.64,67.64s-67.66-30.34-67.66-67.64,30.35-67.66,67.66-67.66,67.64,30.35,67.64,67.66Z"/>
  <rect class="cls-3" x="345.8" y="61.44" width="33.53" height="80.28" transform="translate(34.36 286.13) rotate(-45)"/>
</svg>