<?xml version="1.0" encoding="UTF-8"?>
<svg id="Layer_1" data-name="Layer 1" xmlns="http://www.w3.org/2000/svg" viewBox="0 0 500 500">
  <defs>
    <style>
      .cls-1 {
        fill: #18caa3;
      }

      .cls-2 {
        fill: #f20a3d;
      }

      .cls-3 {
        fill: #2d2d2d;
      }

      .cls-4 {
        fill: #088769;
      }

      .cls-5 {
        fill: #1d3443;
      }

      .cls-6 {
        fill: none;
        stroke: #1d3443;
        stroke-linecap: round;
        stroke-miterlimit: 10;
        stroke-width: 10.57px;
      }
    </style>
  </defs>
  <circle class="cls-3" cx="163.19" cy="66.61" r="19.03"/>
  <circle class="cls-3" cx="163.19" cy="140.62" r="19.03"/>
  <circle class="cls-3" cx="163.19" cy="214.64" r="19.03"/>
  <circle class="cls-3" cx="163.19" cy="288.66" r="19.03"/>
  <circle class="cls-3" cx="163.19" cy="362.67" r="19.03"/>
  <line class="cls-6" x1="60.11" y1="436.69" x2="163.19" y2="436.69"/>
  <circle class="cls-5" cx="163.19" cy="436.69" r="19.03"/>
  <path class="cls-3" d="m439.17,500H141.91c-25.82,0-46.83-21.01-46.83-46.83V46.83C95.08,21.01,116.09,0,141.91,0h297.26c25.82,0,46.83,21.01,46.83,46.83v406.34c0,25.82-21.01,46.83-46.83,46.83ZM141.91,15.75c-17.14,0-31.08,13.94-31.08,31.08v406.34c0,17.14,13.94,31.08,31.08,31.08h297.26c17.14,0,31.08-13.94,31.08-31.08V46.83c0-17.14-13.94-31.08-31.08-31.08H141.91Z"/>
  <g>
    <g>
      <path class="cls-2" d="m295.83,224.54c-1.03,0-2.07-.39-2.86-1.18l-38.92-38.92c-1.58-1.58-1.58-4.14,0-5.71,1.58-1.58,4.14-1.58,5.71,0l38.92,38.92c1.58,1.58,1.58,4.14,0,5.71-.79.79-1.82,1.18-2.86,1.18Z"/>
      <path class="cls-2" d="m256.92,224.54c-1.03,0-2.07-.39-2.86-1.18-1.58-1.58-1.58-4.14,0-5.71l38.92-38.92c1.58-1.58,4.14-1.58,5.71,0,1.58,1.58,1.58,4.14,0,5.71l-38.92,38.92c-.79.79-1.82,1.18-2.86,1.18Z"/>
    </g>
    <g>
      <circle class="cls-2" cx="276.38" cy="288.65" r="3.94"/>
      <circle class="cls-2" cx="276.38" cy="257.61" r="3.94"/>
      <path class="cls-2" d="m303.89,277.17h-55.04c-2.23,0-4.04-1.81-4.04-4.04s1.81-4.04,4.04-4.04h55.04c2.23,0,4.04,1.81,4.04,4.04s-1.81,4.04-4.04,4.04Z"/>
    </g>
    <path class="cls-2" d="m399.4,277.17h-55.04c-2.23,0-4.04-1.81-4.04-4.04s1.81-4.04,4.04-4.04h55.04c2.23,0,4.04,1.81,4.04,4.04s-1.81,4.04-4.04,4.04Z"/>
    <g>
      <path class="cls-2" d="m399.4,206.3h-55.04c-2.23,0-4.04-1.81-4.04-4.04s1.81-4.04,4.04-4.04h55.04c2.23,0,4.04,1.81,4.04,4.04s-1.81,4.04-4.04,4.04Z"/>
      <path class="cls-2" d="m371.88,233.82c-2.23,0-4.04-1.81-4.04-4.04v-55.04c0-2.23,1.81-4.04,4.04-4.04s4.04,1.81,4.04,4.04v55.04c0,2.23-1.81,4.04-4.04,4.04Z"/>
    </g>
  </g>
  <g>
    <path class="cls-1" d="m287.62,416.83v39.71H35.97c-12.14,0-21.98-8.89-21.98-19.85s9.84-19.86,21.98-19.86h251.65Z"/>
    <polygon class="cls-1" points="296.23 456.55 296.23 416.83 320.22 425.57 320.22 447.81 296.23 456.55"/>
    <polygon class="cls-4" points="343.68 436.69 330.6 429.86 330.6 443.51 343.68 436.69"/>
  </g>
  <path class="cls-3" d="m163.19,74.18H60.11c-4.18,0-7.57-3.39-7.57-7.57s3.39-7.57,7.57-7.57h103.08c4.18,0,7.57,3.39,7.57,7.57s-3.39,7.57-7.57,7.57Z"/>
  <path class="cls-3" d="m163.19,148.19H60.11c-4.18,0-7.57-3.39-7.57-7.57s3.39-7.57,7.57-7.57h103.08c4.18,0,7.57,3.39,7.57,7.57s-3.39,7.57-7.57,7.57Z"/>
  <path class="cls-3" d="m163.19,222.21H60.11c-4.18,0-7.57-3.39-7.57-7.57s3.39-7.57,7.57-7.57h103.08c4.18,0,7.57,3.39,7.57,7.57s-3.39,7.57-7.57,7.57Z"/>
  <path class="cls-3" d="m163.19,296.22H60.11c-4.18,0-7.57-3.39-7.57-7.57s3.39-7.57,7.57-7.57h103.08c4.18,0,7.57,3.39,7.57,7.57s-3.39,7.57-7.57,7.57Z"/>
  <path class="cls-3" d="m163.19,370.24H60.11c-4.18,0-7.57-3.39-7.57-7.57s3.39-7.57,7.57-7.57h103.08c4.18,0,7.57,3.39,7.57,7.57s-3.39,7.57-7.57,7.57Z"/>
  <rect class="cls-4" x="52.54" y="416.83" width="22.63" height="39.71"/>
</svg>