<?xml version="1.0" encoding="UTF-8"?>
<svg id="Layer_1" data-name="Layer 1" xmlns="http://www.w3.org/2000/svg" viewBox="0 0 500 500">
  <defs>
    <style>
      .cls-1 {
        fill: #19b28e;
      }

      .cls-2 {
        fill: #f20a3d;
      }

      .cls-3 {
        fill: #ff33ad;
      }

      .cls-4 {
        fill: #efe743;
      }

      .cls-5 {
        fill: #2d2d2d;
      }
    </style>
  </defs>
  <path class="cls-2" d="m492.87,459.83l-119.22-119.22c-9.17-9.17-24.1-9.17-33.28,0-9.17,9.17-9.17,24.1,0,33.28l119.22,119.22c4.44,4.44,10.35,6.89,16.64,6.89s12.19-2.45,16.64-6.89c9.17-9.17,9.17-24.1,0-33.28Z"/>
  <path class="cls-2" d="m243.25,405.69c-89.67,0-162.62-72.95-162.62-162.62S153.58,80.44,243.25,80.44s162.62,72.95,162.62,162.62-72.95,162.62-162.62,162.62Zm0-295.9c-73.49,0-133.27,59.79-133.27,133.27s59.79,133.27,133.27,133.27,133.27-59.79,133.27-133.27-59.79-133.27-133.27-133.27Z"/>
  <path class="cls-5" d="m281.91,325.31c-1.91,0-3.55-.29-4.94-.88-1.39-.59-2.53-1.39-3.4-2.42-.88-1.02-1.69-2.2-2.42-3.52l-29.22-44.16c-2.49-3.95-5.05-7.14-7.69-9.56-2.64-2.42-5.6-4.14-8.9-5.16-3.3-1.02-7.29-1.54-11.97-1.54h-25.04c-2.49,0-4.43-.66-5.82-1.98-1.39-1.32-2.09-3.22-2.09-5.71,0-2.34.69-4.14,2.09-5.38,1.39-1.24,3.33-1.87,5.82-1.87h38.23c12.89,0,22.48-2.6,28.78-7.8,6.3-5.2,9.52-12.92,9.67-23.18l2.86,3.73h-79.96c-2.34,0-4.17-.58-5.49-1.76-1.32-1.17-1.98-2.78-1.98-4.83s.66-3.66,1.98-4.83c1.32-1.17,3.15-1.76,5.49-1.76h79.96l-3.29,3.95c-1.17-8.05-4.8-14.17-10.88-18.34-6.08-4.18-14.54-6.26-25.37-6.26h-40.42c-2.34,0-4.17-.58-5.49-1.76-1.32-1.17-1.98-2.78-1.98-4.83s.66-3.66,1.98-4.83c1.32-1.17,3.15-1.76,5.49-1.76h110.72c2.34,0,4.18.59,5.49,1.76,1.32,1.17,1.98,2.78,1.98,4.83s-.66,3.66-1.98,4.83c-1.32,1.17-3.15,1.76-5.49,1.76h-39.76l3.73-3.95c5.71,2.78,10.22,6.56,13.51,11.32,3.3,4.76,5.31,10.29,6.04,16.58l-3.73-3.29h20.21c2.34,0,4.18.58,5.49,1.76,1.32,1.17,1.98,2.78,1.98,4.83s-.66,3.66-1.98,4.83c-1.32,1.17-3.15,1.76-5.49,1.76h-19.55l3.52-4.61c.44,9.37-1.36,17.5-5.38,24.39-4.03,6.88-9.96,12.19-17.79,15.93-7.84,3.73-17.39,5.6-28.67,5.6v-1.98h3.52c5.56,0,10.58,1.32,15.05,3.95,4.47,2.64,8.82,7.25,13.07,13.84l25.92,39.1c1.32,2.05,1.9,4.1,1.76,6.15-.15,2.05-.92,3.73-2.31,5.05-1.39,1.32-3.33,1.98-5.82,1.98Z"/>
  <path class="cls-3" d="m327.25,421.78c-3.42-3.42-8.56-4.39-13.03-2.54-21.88,9.05-45.85,14.05-70.97,14.05-88.49,0-162.75-62.04-181.58-144.9-1.23-5.39-6.04-9.2-11.57-9.2H12.17c-7.43,0-13.09,6.74-11.71,14.04,21.66,114.29,122.29,200.97,242.78,200.97,39.06,0,76.03-9.12,108.91-25.32,7.29-3.6,8.87-13.32,3.12-19.07l-28.02-28.02Z"/>
  <path class="cls-1" d="m354.62,42.2l-13.35,35.49c-1.95,5.18-.07,11.02,4.54,14.08,50.36,33.35,83.64,90.53,83.64,155.33,0,25.12-5,49.09-14.05,70.97-1.85,4.47-.88,9.61,2.54,13.03l28.02,28.02c5.75,5.75,15.47,4.18,19.07-3.12,16.21-32.87,25.32-69.84,25.32-108.91,0-89.09-47.39-167.32-118.3-210.8-6.4-3.93-14.79-1.13-17.43,5.9Z"/>
  <path class="cls-4" d="m243.25,0C122.75,0,22.13,86.69.46,200.97c-1.38,7.3,4.28,14.04,11.71,14.04h37.92c5.53,0,10.35-3.81,11.57-9.2C80.49,122.95,154.76,60.91,243.25,60.91c8.59,0,17.05.59,25.33,1.72,5.47.75,10.71-2.44,12.65-7.6l13.35-35.5c2.64-7.02-1.81-14.65-9.2-15.92-13.7-2.37-27.78-3.6-42.14-3.6Z"/>
</svg>