<?xml version="1.0" encoding="UTF-8"?>
<svg id="Illustration" xmlns="http://www.w3.org/2000/svg" xmlns:xlink="http://www.w3.org/1999/xlink" viewBox="0 0 1000 1000">
  <defs>
    <style>
      .cls-1 {
        fill: url(#linear-gradient-2);
      }

      .cls-2 {
        fill: #f0f0f0;
      }

      .cls-3 {
        fill: #202263;
      }

      .cls-4, .cls-5 {
        fill: #fff;
      }

      .cls-6 {
        fill: #b5236d;
      }

      .cls-7 {
        fill: #e0e0e0;
      }

      .cls-5 {
        opacity: .7;
      }

      .cls-8 {
        opacity: .3;
      }

      .cls-9 {
        fill: #7d97f4;
      }

      .cls-10 {
        fill: url(#linear-gradient-5);
      }

      .cls-11 {
        fill: #16ba92;
      }

      .cls-12 {
        fill: #f72f73;
      }

      .cls-13 {
        fill: url(#linear-gradient-3);
      }

      .cls-14 {
        fill: url(#linear-gradient);
      }

      .cls-15 {
        opacity: .79;
      }

      .cls-16 {
        fill: #bdd0fb;
      }

      .cls-17 {
        fill: url(#linear-gradient-4);
      }

      .cls-18 {
        fill: #f9b575;
      }
    </style>
    <linearGradient id="linear-gradient" x1="1121.23" y1="1290.78" x2="237.15" y2="192.81" gradientUnits="userSpaceOnUse">
      <stop offset="0" stop-color="#dae3fe"/>
      <stop offset="1" stop-color="#e9effd"/>
    </linearGradient>
    <linearGradient id="linear-gradient-2" x1="2892.65" y1="563.73" x2="2784.16" y2="1090.05" gradientTransform="translate(-2105.78 -130.35) rotate(-4.44)" gradientUnits="userSpaceOnUse">
      <stop offset="0" stop-color="#cb236d"/>
      <stop offset="1" stop-color="#4c246d"/>
    </linearGradient>
    <linearGradient id="linear-gradient-3" x1="28.65" y1="288.19" x2="81.89" y2="288.19" xlink:href="#linear-gradient"/>
    <linearGradient id="linear-gradient-4" x1="132.08" y1="559.97" x2="760.76" y2="559.97" gradientTransform="translate(57.42 -79.94) rotate(-1.25)" gradientUnits="userSpaceOnUse">
      <stop offset="0" stop-color="#09005d"/>
      <stop offset="1" stop-color="#1a0f91"/>
    </linearGradient>
    <linearGradient id="linear-gradient-5" x1="-1829" y1="563.47" x2="-1858.42" y2="632.51" gradientTransform="translate(-1633.22) rotate(-180) scale(1 -1)" xlink:href="#linear-gradient-4"/>
  </defs>
  <path class="cls-14" d="m880.74,855.89c-20.46,21.27-39.81,34.99-55.1,45.83-179.76,127.42-392.47,90.28-437.67,81.21-66.75-13.39-195.79-39.28-289.08-147.66C-42.26,671.29-20.28,412.97,89.2,242.44c20.03-31.19,125.81-204.32,340.8-232.08,130.11-16.8,281.78,17.09,391.62,107.99,230.56,190.82,214.14,576.31,59.12,737.53Z"/>
  <g class="cls-15">
    <path class="cls-16" d="m765.38,722.85c44.07,5.31,95.82-46.31,109.66-99.39,14.24-54.62-21.18-74.29-26.65-148.13-6.22-83.88,36.42-99.9,56.5-215.17,4.53-26.01,30.74-176.51-18.1-200.54-45.16-22.22-160.71,60.59-174.67,156.19-9.95,68.16,39.08,92.65,27.24,172.06-10.38,69.68-51.57,73.87-62.25,141.15-13,81.9,30.39,186.86,88.26,193.83Z"/>
    <path class="cls-1" d="m770.1,742.92c-18.71-89.44-6.71-230.59,6.65-333.26,14.47-111.15,33.6-202.39,33.79-203.29l3.69.78c-.19.91-19.3,92.02-33.75,203.03-13.32,102.37-25.3,243.05-6.69,331.97l-3.7.77Z"/>
  </g>
  <g>
    <path class="cls-16" d="m849.41,896.92c44.07,5.31,95.82-46.31,109.66-99.39,14.24-54.62-21.18-74.29-26.65-148.13-6.22-83.88,36.42-99.9,56.5-215.17,4.53-26.01,30.74-176.51-18.1-200.54-45.16-22.22-160.71,60.59-174.67,156.19-9.95,68.16,39.08,92.65,27.24,172.06-10.38,69.68-51.57,73.87-62.25,141.15-13,81.9,30.39,186.86,88.26,193.83Z"/>
    <path class="cls-9" d="m854.14,916.99c-18.71-89.44-6.71-230.59,6.65-333.26,14.47-111.15,33.6-202.39,33.79-203.29l3.69.78c-.19.91-19.3,92.02-33.75,203.03-13.32,102.37-25.3,243.05-6.69,331.97l-3.7.77Z"/>
  </g>
  <g class="cls-15">
    <path class="cls-16" d="m315.13,814.76c85.05-35.93,124.79-179.7,82.23-230.91-28.76-34.6-76.43-4.5-117.12-41.25-51.94-46.92-4.75-123.56-39.91-230.74-29.92-91.21-112.04-181.87-165.35-168.94-55.81,13.54-95.19,144.26-55.23,228.07,25.98,54.51,71.99,60.8,78.1,110.03,7.09,57.13-51.18,78.21-55.89,132.66-8.46,97.81,160.65,248.61,273.17,201.07Z"/>
    <path class="cls-9" d="m268.06,848.6c.49.04.99-.03,1.48-.22,1.72-.67,2.57-2.6,1.9-4.32-90.19-231.7-101.01-492.92-101.11-495.53-.07-1.84-1.62-3.28-3.46-3.21-1.84.07-3.28,1.62-3.21,3.46.1,2.62,10.97,264.96,101.56,497.69.48,1.23,1.61,2.02,2.84,2.12Z"/>
    <path class="cls-13" d="m80.17,408.68c.34.03.69-.05,1-.26.74-.48.94-1.47.46-2.21-30.61-46.6-63.14-115.52-44.28-179.23,11.23-37.94,35.7-56.23,35.95-56.41.71-.52.86-1.52.34-2.23-.52-.71-1.52-.86-2.23-.34-1.04.76-25.58,19.11-37.12,58.08-10.6,35.81-11.46,96.44,44.67,181.88.28.43.73.68,1.2.71Z"/>
    <path class="cls-2" d="m324.06,795.89c.51.04,1.02-.16,1.37-.58,58.68-72.36,81.36-130.1,67.41-171.62-12.4-36.91-50.45-46.67-50.83-46.77-.86-.2-1.72.31-1.93,1.17-.21.85.31,1.72,1.17,1.93.37.09,36.77,9.47,48.58,44.72,13.55,40.42-8.95,97.13-66.88,168.56-.55.68-.45,1.69.23,2.24.26.21.56.33.87.35Z"/>
  </g>
  <path class="cls-17" d="m247.13,8.32c-24.38,2.12-43.06,22.53-43.13,47-.42,149.63-1.12,665.73,8.63,848.4,1.03,19.35,16.9,34.55,36.28,34.76,95.85,1.03,371.55,2.93,528.07-7.08,32.6-2.09,57.97-29.09,57.93-61.75-.19-157.04-2.7-598.68-24.21-800.56-2.58-24.19-22.02-43.07-46.27-44.96C659.88,16,382.28-3.43,247.13,8.32Z"/>
  <path class="cls-4" d="m242.47,94.54c-1.88,127.99-7.24,553.77,2.11,710.92,1.37,22.97,19.21,41.1,41.24,41.87,90.71,3.16,323.31,9.28,455.85-5.31,23.87-2.63,42.11-23.31,42.74-48.36,3.32-130.62,12.27-527.18,3.18-682.57-1.45-24.79-20.39-44.57-44.13-46.17-98.21-6.62-350.42-21.88-463.12-12.49-21.16,1.76-37.55,19.95-37.87,42.11Z"/>
  <g class="cls-8">
    <path class="cls-7" d="m258.29,113.32c-1.68,121.69-6.42,526.51,2.36,675.93,1.28,21.84,17.88,39.09,38.35,39.83,84.3,3.06,300.48,9,423.65-4.79,22.18-2.48,39.12-22.14,39.7-45.96,3.01-124.19,11.11-501.22,2.57-648.97-1.36-23.57-18.97-42.39-41.04-43.92-91.28-6.35-325.68-21-430.42-12.14-19.66,1.66-34.88,18.95-35.17,40.02Z"/>
  </g>
  <path class="cls-4" d="m461.63,30.58c.08,3.54,2.9,6.39,6.43,6.5,17.45.53,66.62,2.04,88.6,2.83,4.33.16,7.64-3.81,6.73-8.05-.08-.13-.64-5.57-6.19-5.95-14.87-1.03-59.71-3.82-89.35-2.11-6.09.35-6.42,7.27-6.22,6.78Z"/>
  <g>
    <g>
      <path class="cls-12" d="m307,108.78h305.96v95.69c0,6.62-5.38,12-12,12h-294.96c-7.54,0-13.67-6.12-13.67-13.67v-79.36c0-8.09,6.57-14.67,14.67-14.67Z"/>
      <path class="cls-12" d="m578.07,108.78h68.1c1.51,0,2.04,2.64.73,3.62l-60.93,45.64-7.9-49.26Z"/>
      <g>
        <path class="cls-4" d="m512.2,141.99h-115.76c-.99,0-1.8-.81-1.8-1.8s.81-1.8,1.8-1.8h115.76c.99,0,1.8.81,1.8,1.8s-.81,1.8-1.8,1.8Z"/>
        <path class="cls-4" d="m379.32,141.99h-53.23c-.99,0-1.8-.81-1.8-1.8s.81-1.8,1.8-1.8h53.23c.99,0,1.8.81,1.8,1.8s-.81,1.8-1.8,1.8Z"/>
        <path class="cls-4" d="m575.87,161.19h-123.64c-.99,0-1.8-.81-1.8-1.8s.81-1.8,1.8-1.8h123.64c.99,0,1.8.81,1.8,1.8s-.81,1.8-1.8,1.8Z"/>
        <path class="cls-4" d="m442.03,161.19h-114.59c-.99,0-1.8-.81-1.8-1.8s.81-1.8,1.8-1.8h114.59c.99,0,1.8.81,1.8,1.8s-.81,1.8-1.8,1.8Z"/>
        <path class="cls-4" d="m480.79,180.39h-154.5c-.99,0-1.8-.81-1.8-1.8s.81-1.8,1.8-1.8h154.5c.99,0,1.8.81,1.8,1.8s-.81,1.8-1.8,1.8Z"/>
      </g>
    </g>
    <g>
      <path class="cls-11" d="m428.63,254.83h294.96c6.62,0,12,5.38,12,12v95.69h-305.96c-8.09,0-14.67-6.57-14.67-14.67v-79.36c0-7.54,6.12-13.67,13.67-13.67Z" transform="translate(1150.55 617.34) rotate(180)"/>
      <path class="cls-11" d="m449.84,254.83h-68.1c-1.51,0-2.04,2.64-.73,3.62l60.93,45.64,7.9-49.26Z"/>
      <g>
        <path class="cls-4" d="m611.89,288.03h-158.19c-.99,0-1.8-.81-1.8-1.8s.81-1.8,1.8-1.8h158.19c.99,0,1.8.81,1.8,1.8s-.81,1.8-1.8,1.8Z"/>
        <path class="cls-4" d="m701.83,288.03h-67.51c-.99,0-1.8-.81-1.8-1.8s.81-1.8,1.8-1.8h67.51c.99,0,1.8.81,1.8,1.8s-.81,1.8-1.8,1.8Z"/>
        <path class="cls-4" d="m539.17,307.23h-87.13c-.99,0-1.8-.81-1.8-1.8s.81-1.8,1.8-1.8h87.13c.99,0,1.8.81,1.8,1.8s-.81,1.8-1.8,1.8Z"/>
        <path class="cls-4" d="m700.48,307.23h-144.09c-.99,0-1.8-.81-1.8-1.8s.81-1.8,1.8-1.8h144.09c.99,0,1.8.81,1.8,1.8s-.81,1.8-1.8,1.8Z"/>
        <path class="cls-4" d="m600.94,326.43h-119.9c-.99,0-1.8-.81-1.8-1.8s.81-1.8,1.8-1.8h119.9c.99,0,1.8.81,1.8,1.8s-.81,1.8-1.8,1.8Z"/>
        <path class="cls-4" d="m701.63,326.43h-86.89c-.99,0-1.8-.81-1.8-1.8s.81-1.8,1.8-1.8h86.89c.99,0,1.8.81,1.8,1.8s-.81,1.8-1.8,1.8Z"/>
      </g>
    </g>
    <g>
      <path class="cls-12" d="m309.72,402.82h305.96v95.69c0,6.62-5.38,12-12,12h-294.96c-7.54,0-13.67-6.12-13.67-13.67v-79.36c0-8.09,6.57-14.67,14.67-14.67Z"/>
      <path class="cls-12" d="m580.8,402.82h68.1c1.51,0,2.04,2.64.73,3.62l-60.93,45.64-7.9-49.26Z"/>
      <g>
        <path class="cls-4" d="m576.93,436.03h-158.19c-.99,0-1.8-.81-1.8-1.8s.81-1.8,1.8-1.8h158.19c.99,0,1.8.81,1.8,1.8s-.81,1.8-1.8,1.8Z"/>
        <path class="cls-4" d="m396.32,436.03h-67.51c-.99,0-1.8-.81-1.8-1.8s.81-1.8,1.8-1.8h67.51c.99,0,1.8.81,1.8,1.8s-.81,1.8-1.8,1.8Z"/>
        <path class="cls-4" d="m578.59,455.22h-87.13c-.99,0-1.8-.81-1.8-1.8s.81-1.8,1.8-1.8h87.13c.99,0,1.8.81,1.8,1.8s-.81,1.8-1.8,1.8Z"/>
        <path class="cls-4" d="m474.25,455.22h-144.09c-.99,0-1.8-.81-1.8-1.8s.81-1.8,1.8-1.8h144.09c.99,0,1.8.81,1.8,1.8s-.81,1.8-1.8,1.8Z"/>
        <path class="cls-4" d="m549.59,474.42h-119.9c-.99,0-1.8-.81-1.8-1.8s.81-1.8,1.8-1.8h119.9c.99,0,1.8.81,1.8,1.8s-.81,1.8-1.8,1.8Z"/>
        <path class="cls-4" d="m415.9,474.42h-86.89c-.99,0-1.8-.81-1.8-1.8s.81-1.8,1.8-1.8h86.89c.99,0,1.8.81,1.8,1.8s-.81,1.8-1.8,1.8Z"/>
      </g>
    </g>
    <g>
      <path class="cls-12" d="m310.94,700.18h305.96v95.69c0,6.62-5.38,12-12,12h-294.96c-7.54,0-13.67-6.12-13.67-13.67v-79.36c0-8.09,6.57-14.67,14.67-14.67Z"/>
      <path class="cls-12" d="m582.02,700.18h68.1c1.51,0,2.04,2.64.73,3.62l-60.93,45.64-7.9-49.26Z"/>
      <g>
        <path class="cls-4" d="m578.16,733.39h-87.58c-.99,0-1.8-.81-1.8-1.8s.81-1.8,1.8-1.8h87.58c.99,0,1.8.81,1.8,1.8s-.81,1.8-1.8,1.8Z"/>
        <path class="cls-4" d="m477.9,733.39h-147.87c-.99,0-1.8-.81-1.8-1.8s.81-1.8,1.8-1.8h147.87c.99,0,1.8.81,1.8,1.8s-.81,1.8-1.8,1.8Z"/>
        <path class="cls-4" d="m579.81,752.59h-178.5c-.99,0-1.8-.81-1.8-1.8s.81-1.8,1.8-1.8h178.5c.99,0,1.8.81,1.8,1.8s-.81,1.8-1.8,1.8Z"/>
        <path class="cls-4" d="m388.6,752.59h-57.21c-.99,0-1.8-.81-1.8-1.8s.81-1.8,1.8-1.8h57.21c.99,0,1.8.81,1.8,1.8s-.81,1.8-1.8,1.8Z"/>
        <path class="cls-4" d="m550.81,771.78h-119.9c-.99,0-1.8-.81-1.8-1.8s.81-1.8,1.8-1.8h119.9c.99,0,1.8.81,1.8,1.8s-.81,1.8-1.8,1.8Z"/>
        <path class="cls-4" d="m417.12,771.78h-86.89c-.99,0-1.8-.81-1.8-1.8s.81-1.8,1.8-1.8h86.89c.99,0,1.8.81,1.8,1.8s-.81,1.8-1.8,1.8Z"/>
      </g>
    </g>
    <g>
      <path class="cls-11" d="m427.68,551.31h294.96c6.62,0,12,5.38,12,12v95.69h-305.96c-8.09,0-14.67-6.57-14.67-14.67v-79.36c0-7.54,6.12-13.67,13.67-13.67Z" transform="translate(1148.64 1210.31) rotate(180)"/>
      <path class="cls-11" d="m448.89,551.31h-68.1c-1.51,0-2.04,2.64-.73,3.62l60.93,45.64,7.9-49.26Z"/>
      <g>
        <path class="cls-4" d="m515.49,584.52h-62.74c-.99,0-1.8-.81-1.8-1.8s.81-1.8,1.8-1.8h62.74c.99,0,1.8.81,1.8,1.8s-.81,1.8-1.8,1.8Z"/>
        <path class="cls-4" d="m700.88,584.52h-170.3c-.99,0-1.8-.81-1.8-1.8s.81-1.8,1.8-1.8h170.3c.99,0,1.8.81,1.8,1.8s-.81,1.8-1.8,1.8Z"/>
        <path class="cls-4" d="m579.83,603.72h-128.74c-.99,0-1.8-.81-1.8-1.8s.81-1.8,1.8-1.8h128.74c.99,0,1.8.81,1.8,1.8s-.81,1.8-1.8,1.8Z"/>
        <path class="cls-4" d="m699.52,603.72h-107.38c-.99,0-1.8-.81-1.8-1.8s.81-1.8,1.8-1.8h107.38c.99,0,1.8.81,1.8,1.8s-.81,1.8-1.8,1.8Z"/>
        <path class="cls-4" d="m573.05,622.91h-119.9c-.99,0-1.8-.81-1.8-1.8s.81-1.8,1.8-1.8h119.9c.99,0,1.8.81,1.8,1.8s-.81,1.8-1.8,1.8Z"/>
      </g>
    </g>
    <g>
      <circle class="cls-12" cx="694.68" cy="160" r="48.29"/>
      <circle class="cls-12" cx="694.68" cy="160" r="46.68"/>
      <path class="cls-5" d="m651.64,158.16s-.02,0-.02,0c-.24-.01-.43-.22-.42-.46.1-1.83.31-3.67.63-5.47.04-.24.27-.4.51-.36.24.04.4.27.36.51-.32,1.76-.53,3.56-.62,5.36-.01.24-.21.42-.44.42Z"/>
      <path class="cls-5" d="m656.18,141.05c-.07,0-.13-.02-.2-.05-.22-.11-.31-.38-.2-.59,7.46-14.77,22.36-23.94,38.89-23.94,2.64,0,5.28.24,7.85.71.24.04.4.27.36.51-.04.24-.27.4-.51.36-2.52-.46-5.11-.69-7.69-.69-16.2,0-30.8,8.99-38.1,23.46-.08.15-.23.24-.39.24Z"/>
      <circle class="cls-4" cx="695.7" cy="161.02" r="39.51" transform="translate(280.7 742.14) rotate(-67.5)"/>
      <path class="cls-12" d="m707.79,146.09c0,6.69-5.42,13.91-12.11,13.91s-12.11-7.22-12.11-13.91,5.42-11.44,12.11-11.44,12.11,4.75,12.11,11.44Z"/>
      <path class="cls-12" d="m680.65,185.76h29.57c3.11,0,5.87-2.01,6.82-4.98l1.59-4.97c1.17-3.64-.73-7.58-4.32-8.9-12.03-4.4-24.48-3.84-37.23.41-3.57,1.19-5.55,5.01-4.57,8.64l1.23,4.52c.85,3.12,3.68,5.28,6.91,5.28Z"/>
    </g>
    <g>
      <circle class="cls-11" cx="328.78" cy="308.07" r="48.29"/>
      <circle class="cls-11" cx="328.78" cy="308.07" r="46.68"/>
      <path class="cls-4" d="m285.74,306.23s-.02,0-.02,0c-.24-.01-.43-.22-.42-.46.1-1.83.31-3.67.63-5.47.04-.24.27-.4.51-.36.24.04.4.27.36.51-.32,1.76-.53,3.56-.62,5.36-.01.24-.21.42-.44.42Z"/>
      <path class="cls-4" d="m290.28,289.12c-.07,0-.13-.02-.2-.05-.22-.11-.31-.38-.2-.59,7.46-14.77,22.36-23.94,38.89-23.94,2.64,0,5.28.24,7.85.71.24.04.4.27.36.51-.04.24-.27.4-.51.36-2.52-.46-5.11-.69-7.69-.69-16.2,0-30.8,8.99-38.1,23.46-.08.15-.23.24-.39.24Z"/>
      <circle class="cls-4" cx="329.79" cy="309.09" r="39.51"/>
      <path class="cls-11" d="m341.89,294.16c0,6.69-5.42,13.91-12.11,13.91s-12.11-7.22-12.11-13.91,5.42-11.44,12.11-11.44,12.11,4.75,12.11,11.44Z"/>
      <path class="cls-11" d="m314.74,333.83h29.57c3.11,0,5.87-2.01,6.82-4.98l1.59-4.97c1.17-3.64-.73-7.58-4.32-8.9-12.03-4.4-24.48-3.84-37.23.41-3.57,1.19-5.55,5.01-4.57,8.64l1.23,4.52c.85,3.12,3.68,5.28,6.91,5.28Z"/>
    </g>
    <g>
      <circle class="cls-12" cx="699.57" cy="456.15" r="48.29" transform="translate(137.26 1073.62) rotate(-80.78)"/>
      <circle class="cls-12" cx="699.57" cy="456.15" r="46.68" transform="translate(137.26 1073.62) rotate(-80.78)"/>
      <path class="cls-4" d="m656.54,454.3s-.02,0-.02,0c-.24-.01-.43-.22-.42-.46.1-1.83.31-3.67.63-5.47.04-.24.27-.4.51-.36.24.04.4.27.36.51-.32,1.76-.53,3.56-.62,5.36-.01.24-.21.42-.44.42Z"/>
      <path class="cls-4" d="m661.08,437.2c-.07,0-.13-.02-.2-.05-.22-.11-.31-.38-.2-.59,7.46-14.77,22.36-23.94,38.89-23.94,2.64,0,5.28.24,7.85.71.24.04.4.27.36.51-.04.24-.27.4-.51.36-2.52-.46-5.11-.69-7.69-.69-16.2,0-30.8,8.99-38.1,23.46-.08.15-.23.24-.39.24Z"/>
      <circle class="cls-4" cx="700.59" cy="457.17" r="39.51" transform="translate(10.12 929.48) rotate(-67.5)"/>
      <path class="cls-12" d="m712.69,442.24c0,6.69-5.42,13.91-12.11,13.91s-12.11-7.22-12.11-13.91,5.42-11.44,12.11-11.44,12.11,4.75,12.11,11.44Z"/>
      <path class="cls-12" d="m685.54,481.91h29.57c3.11,0,5.87-2.01,6.82-4.98l1.59-4.97c1.17-3.64-.73-7.58-4.32-8.9-12.03-4.4-24.48-3.84-37.23.41-3.57,1.19-5.55,5.01-4.57,8.64l1.23,4.52c.85,3.12,3.68,5.28,6.91,5.28Z"/>
    </g>
    <g>
      <circle class="cls-11" cx="337.34" cy="607.89" r="48.29" transform="translate(-316.74 843.51) rotate(-80.78)"/>
      <circle class="cls-11" cx="337.34" cy="607.89" r="46.68" transform="translate(-316.74 843.51) rotate(-80.78)"/>
      <path class="cls-4" d="m294.31,606.05s-.02,0-.02,0c-.24-.01-.43-.22-.42-.46.1-1.83.31-3.67.63-5.47.04-.24.27-.4.51-.36.24.04.4.27.36.51-.32,1.76-.53,3.56-.62,5.36-.01.24-.21.42-.44.42Z"/>
      <path class="cls-4" d="m298.85,588.94c-.07,0-.13-.02-.2-.05-.22-.11-.31-.38-.2-.59,7.46-14.77,22.36-23.94,38.89-23.94,2.64,0,5.28.24,7.85.71.24.04.4.27.36.51-.04.24-.27.4-.51.36-2.52-.46-5.11-.69-7.7-.69-16.2,0-30.8,8.99-38.1,23.46-.08.15-.23.24-.39.24Z"/>
      <circle class="cls-4" cx="338.36" cy="608.91" r="39.51" transform="translate(-316.89 845.36) rotate(-80.78)"/>
      <path class="cls-11" d="m350.46,593.98c0,6.69-5.42,13.91-12.11,13.91s-12.11-7.22-12.11-13.91,5.42-11.44,12.11-11.44,12.11,4.75,12.11,11.44Z"/>
      <path class="cls-11" d="m323.31,633.65h29.57c3.11,0,5.87-2.01,6.82-4.98l1.59-4.97c1.17-3.64-.73-7.58-4.32-8.9-12.03-4.4-24.48-3.84-37.23.41-3.57,1.19-5.55,5.01-4.57,8.64l1.23,4.52c.85,3.12,3.68,5.28,6.91,5.28Z"/>
    </g>
    <g>
      <circle class="cls-12" cx="703.24" cy="753.52" r="48.29"/>
      <circle class="cls-12" cx="703.24" cy="753.52" r="46.68"/>
      <path class="cls-5" d="m660.21,751.67s-.02,0-.02,0c-.24-.01-.43-.22-.42-.46.1-1.83.31-3.67.63-5.47.04-.24.27-.4.51-.36.24.04.4.27.36.51-.32,1.76-.53,3.56-.62,5.36-.01.24-.21.42-.44.42Z"/>
      <path class="cls-5" d="m664.75,734.57c-.07,0-.13-.02-.2-.05-.22-.11-.31-.38-.2-.59,7.46-14.77,22.36-23.94,38.89-23.94,2.64,0,5.28.24,7.85.71.24.04.4.27.36.51-.04.24-.27.4-.51.36-2.52-.46-5.11-.69-7.7-.69-16.2,0-30.8,8.99-38.1,23.46-.08.15-.23.24-.39.24Z"/>
      <circle class="cls-4" cx="704.26" cy="754.54" r="39.51"/>
      <path class="cls-12" d="m716.36,739.61c0,6.69-5.42,13.91-12.11,13.91s-12.11-7.22-12.11-13.91,5.42-11.44,12.11-11.44,12.11,4.75,12.11,11.44Z"/>
      <path class="cls-12" d="m689.21,779.28h29.57c3.11,0,5.87-2.01,6.82-4.98l1.59-4.97c1.17-3.64-.73-7.58-4.32-8.9-12.03-4.4-24.48-3.84-37.23.41-3.57,1.19-5.55,5.01-4.57,8.64l1.23,4.52c.85,3.12,3.68,5.28,6.91,5.28Z"/>
    </g>
  </g>
  <g>
    <path class="cls-18" d="m260.14,600.01s0,60.91-26.7,55.95c-16.32-3.03-25.98-68.65-25.98-68.65,0,0,16.88-37.6,18.77-25.29,13.7,89.47,23.91,20.99,33.91,38Z"/>
    <path class="cls-6" d="m188.42,961.56s-2.02,11.42-3,22.72c-.39,4.42,3.02,8.25,7.45,8.44,15.05.63,47.24,1.85,58.79,1.33,1.74-.08,2.87-1.86,2.23-3.47h0c-.54-1.35-1.58-2.45-2.9-3.06l-53.17-24.44-9.39-1.52Z"/>
    <path class="cls-18" d="m186.77,954.85l1.62,13.65s9.31,4.34,15.68-.55l-3.86-15.22-13.44,2.11Z"/>
    <path class="cls-11" d="m187.99,698.14c-.7,3.57-3.76,177.94,14.88,256.09.3,1.28-.34,2.59-1.56,3.09-2.86,1.17-8.46,2.86-15.18,3.08-2.08.07-3.95-1.28-4.53-3.28-5.33-18.13-30.86-108.97-34.19-195.75-3.72-96.96,0-3.3,0-3.3l2.18-59.94h38.39Z"/>
    <path class="cls-6" d="m127.26,967.52s-3.21,5.76-6.32,21.08c-.56,2.77,1.37,5.41,4.18,5.69,4.97.49,12.62,1.12,18.75,1.07,2.82-.02,5.03-2.48,4.69-5.28-.68-5.59-2.79-14.76-9.33-21.91l-11.97-.65Z"/>
    <path class="cls-18" d="m124.44,949.95l3.79,20.65s3.74,2.78,11.15.77l-1.81-22.22-13.13.8Z"/>
    <path class="cls-11" d="m114.21,703.49c-15.24,92,3.31,227.39,9.56,253.89.38,1.62,1.69,2.87,3.34,3.14,2.79.46,7.39.84,11.92-.48,1.56-.45,2.66-1.86,2.72-3.49.84-21.42-.67-152.94,13.53-204.92.72-2.63,2.33-4.93,4.55-6.51l27.57-19.6,2.11-31.68-75.32,9.65Z"/>
    <path class="cls-12" d="m213.03,532.64c-55.66-5.57-97.77,8.52-97.77,8.52-13.62,79.46-2.38,171.11-2.38,171.11,35.37,9.28,75.27-5.67,75.27-5.67,5.88-33.21,30.37-109.9,30.37-109.9,11.16-1.39,21.63,4.25,19.23-11.24-2.41-15.49-17.7-52.12-24.71-52.82Z"/>
    <path class="cls-12" d="m132.78,585.4l-17.52-44.24s-40.69,27.65-49.14,63.18c-.32,1.34.59,2.66,1.96,2.84,8.88,1.12,24.85,5.06,37.86,11.63,3.16-17.36,26.84-33.4,26.84-33.4Z"/>
    <path class="cls-18" d="m173.78,627.02s-47.91,27.08-64.08,3.96c-3.36-4.8-4.16-9.57-3.33-14.12-14.36-7.25-29.03-9.35-37.1-9.94-2.12,11.08-1,22.87,5.52,34.78,28.32,51.8,105.33-2.86,105.33-2.86l-6.34-11.81Z"/>
    <g>
      <path class="cls-10" d="m182.57,645.39l15.72-54.89c.18-.62.71-1.08,1.35-1.15,2.85-.33,11.1-1.27,20.63-2.07,11.48-.97,24.8-1.76,32.77-1.09,1.13.09,1.82,1.29,1.31,2.31-4.53,9.16-23.16,46.43-32.49,58.64-.31.4-.79.64-1.3.64l-36.47-.34c-1.06,0-1.82-1.03-1.53-2.05Z"/>
      <path class="cls-18" d="m174.34,639.22s-3.64-14.98-2.17-20.29c1.47-5.31,4.32-12.15,13.81-10.63,9.49,1.52,20.68,5.52,20.68,5.52,0,0-.57,6.92-7.78,4.69l4.47,3.46s-.64,5.54-6.73,2.58l4.16,4.59s-2.62,4.55-7.1,1.63c-4.48-2.92-6.63,10.26-19.34,8.45Z"/>
      <path class="cls-18" d="m247.52,616.04s11.04-10.75,12.62-16.04c1.58-5.28,2.8-12.58-6.05-16.34-8.85-3.75-20.45-6.31-20.45-6.31,0,0-3.2,6.16,4.1,8.1l-5.63.56s-2.4,5.03,4.33,5.76l-5.96,1.68s-.2,5.25,5.15,5.15c5.35-.09.17,12.21,11.9,17.43Z"/>
    </g>
    <path class="cls-18" d="m167.1,497.75l-14.54,42.04c-.24.7.05,1.47.69,1.82,3.96,2.19,18.24,8.52,35.44-2.38,1.79-1.14,3.01-2.99,3.28-5.09l4.71-36.38h-29.59Z"/>
    <g>
      <path class="cls-18" d="m210.5,487.35s-4.7,33.7-13.47,42.33c-8.78,8.63-24.29-3.68-32.5-21.8l9.25-33.36,36.72,12.83Z"/>
      <path class="cls-3" d="m174.5,495.42c.75.16,1.46-.38,1.5-1.15.11-2.33.51-6.97,1.93-10.24,0,0-1.25-3.17,8.42.82,9.67,4,24.17,9.83,31.83,4.69,7.47-5.01,13.31-27-7.17-20.94-.78.23-1.57-.33-1.6-1.14-.1-3.51-1.26-11.47-9.63-13.21-7.83-1.63-11.63,2.22-13.13,4.46-.44.66-1.38.74-1.92.17-2.58-2.73-9.39-8.42-18.07-3.49-7.15,4.06-7.84,8.79-7.42,11.65.14.93-.74,1.65-1.63,1.35-2.4-.82-6.14-.99-9.22,3.79-4.26,6.61,3.26,11.21,5.5,12.38.37.19.62.55.66.96.34,3.18,2.26,17,10.01,24.12.67.62,1.76.3,2.03-.57l4.05-13.3c.19-.62.82-.99,1.45-.85l2.4.51Z"/>
      <path class="cls-18" d="m174.87,498s-4.63-12.98-9.16-8.15c-4.52,4.83,2.71,13.71,8.58,14.94l.57-6.79Z"/>
    </g>
  </g>
</svg>