<?xml version="1.0" encoding="UTF-8"?>
<svg id="Illustration" xmlns="http://www.w3.org/2000/svg" xmlns:xlink="http://www.w3.org/1999/xlink" viewBox="0 0 1000 1000">
  <defs>
    <style>
      .cls-1 {
        fill: url(#linear-gradient-2);
      }

      .cls-2 {
        fill: #fff;
      }

      .cls-3 {
        fill: url(#linear-gradient-17);
      }

      .cls-4, .cls-5, .cls-6 {
        fill: #dbdbdb;
      }

      .cls-7 {
        fill: url(#linear-gradient-15);
      }

      .cls-8 {
        fill: #2b3581;
      }

      .cls-9 {
        fill: url(#linear-gradient-18);
      }

      .cls-10 {
        opacity: .6;
      }

      .cls-11 {
        fill: url(#linear-gradient-14);
      }

      .cls-12 {
        fill: url(#linear-gradient-20);
      }

      .cls-13 {
        fill: url(#linear-gradient-6);
      }

      .cls-5 {
        opacity: .91;
      }

      .cls-14 {
        fill: url(#linear-gradient-11);
      }

      .cls-15 {
        fill: url(#linear-gradient-10);
      }

      .cls-16 {
        opacity: .48;
      }

      .cls-17 {
        fill: url(#linear-gradient-16);
      }

      .cls-18, .cls-19 {
        opacity: .3;
      }

      .cls-20 {
        fill: #252a71;
      }

      .cls-21 {
        fill: url(#linear-gradient-21);
      }

      .cls-22 {
        fill: url(#linear-gradient-5);
      }

      .cls-23 {
        fill: #16ba92;
      }

      .cls-24 {
        opacity: .53;
      }

      .cls-25 {
        fill: #f72f73;
      }

      .cls-26 {
        fill: url(#linear-gradient-7);
      }

      .cls-27 {
        fill: url(#linear-gradient-9);
      }

      .cls-28 {
        fill: url(#linear-gradient-22);
      }

      .cls-6 {
        opacity: .44;
      }

      .cls-29 {
        fill: url(#linear-gradient-3);
      }

      .cls-30 {
        fill: url(#linear-gradient-19);
      }

      .cls-31 {
        fill: url(#linear-gradient-4);
      }

      .cls-32 {
        fill: url(#linear-gradient-8);
      }

      .cls-19 {
        fill: url(#linear-gradient);
      }

      .cls-33 {
        fill: url(#linear-gradient-12);
      }

      .cls-34 {
        fill: url(#linear-gradient-13);
      }

      .cls-35 {
        fill: #f9b575;
      }
    </style>
    <linearGradient id="linear-gradient" x1="1074.75" y1="1010.26" x2="333.65" y2="361.8" gradientUnits="userSpaceOnUse">
      <stop offset="0" stop-color="#b37cff"/>
      <stop offset="1" stop-color="#f895e7"/>
    </linearGradient>
    <linearGradient id="linear-gradient-2" x1="136.24" y1="20.91" x2="339.05" y2="20.91" gradientTransform="translate(236.72 48.35) rotate(3.88)" xlink:href="#linear-gradient"/>
    <linearGradient id="linear-gradient-3" x1="348.91" y1="-32.51" x2="360.75" y2="-32.51" gradientTransform="translate(236.72 48.35) rotate(3.88)" xlink:href="#linear-gradient"/>
    <linearGradient id="linear-gradient-4" x1="410.38" y1="58" x2="418.51" y2="58" gradientTransform="translate(236.72 48.35) rotate(3.88)" xlink:href="#linear-gradient"/>
    <linearGradient id="linear-gradient-5" x1="211.36" y1="150.45" x2="420.25" y2="150.45" gradientTransform="translate(236.72 48.35) rotate(3.88)" xlink:href="#linear-gradient"/>
    <linearGradient id="linear-gradient-6" x1="190.53" y1="194.48" x2="202.23" y2="194.48" gradientTransform="translate(236.72 48.35) rotate(3.88)" xlink:href="#linear-gradient"/>
    <linearGradient id="linear-gradient-7" x1="759.8" y1="293.11" x2="14.68" y2="-34.02" gradientTransform="translate(236.72 48.35) rotate(3.88)" gradientUnits="userSpaceOnUse">
      <stop offset="0" stop-color="#a737d5"/>
      <stop offset="1" stop-color="#ef497a"/>
    </linearGradient>
    <linearGradient id="linear-gradient-8" x1="15.61" y1="189.81" x2="21.39" y2="189.81" gradientTransform="translate(236.72 48.35) rotate(3.88)" xlink:href="#linear-gradient"/>
    <linearGradient id="linear-gradient-9" x1="13.27" y1="124.87" x2="126.56" y2="124.87" gradientTransform="translate(236.72 48.35) rotate(3.88)" xlink:href="#linear-gradient"/>
    <linearGradient id="linear-gradient-10" x1="63.83" y1="233.49" x2="193.14" y2="233.49" gradientTransform="translate(236.72 48.35) rotate(3.88)" xlink:href="#linear-gradient"/>
    <linearGradient id="linear-gradient-11" x1="49.61" y1="241.57" x2="58.46" y2="241.57" gradientTransform="translate(236.72 48.35) rotate(3.88)" xlink:href="#linear-gradient"/>
    <linearGradient id="linear-gradient-12" x1="701.34" y1="426.06" x2="-43.78" y2="98.94" xlink:href="#linear-gradient-7"/>
    <linearGradient id="linear-gradient-13" x1="214.71" y1="551.07" x2="175.58" y2="669.36" gradientTransform="translate(466.94 22) rotate(45)" gradientUnits="userSpaceOnUse">
      <stop offset="0" stop-color="#fdf53f"/>
      <stop offset="1" stop-color="#d93c65"/>
    </linearGradient>
    <linearGradient id="linear-gradient-14" x1="429.58" y1="578.06" x2="403.81" y2="655.99" gradientUnits="userSpaceOnUse">
      <stop offset="0" stop-color="#cb236d"/>
      <stop offset="1" stop-color="#4c246d"/>
    </linearGradient>
    <linearGradient id="linear-gradient-15" x1="228.52" y1="945.66" x2="16.09" y2="1176.73" xlink:href="#linear-gradient-14"/>
    <linearGradient id="linear-gradient-16" x1="159.57" y1="962.82" x2="178.44" y2="962.82" gradientUnits="userSpaceOnUse">
      <stop offset="0" stop-color="#f9b776"/>
      <stop offset="1" stop-color="#f47960"/>
    </linearGradient>
    <linearGradient id="linear-gradient-17" x1="180.87" y1="901.84" x2="-31.57" y2="1132.91" xlink:href="#linear-gradient-14"/>
    <linearGradient id="linear-gradient-18" x1="91.57" y1="961.85" x2="107.86" y2="961.85" xlink:href="#linear-gradient-16"/>
    <linearGradient id="linear-gradient-19" x1="7425.63" y1="454.38" x2="7490.32" y2="601.56" gradientTransform="translate(7737.78) rotate(-180) scale(1 -1)" xlink:href="#linear-gradient-16"/>
    <linearGradient id="linear-gradient-20" x1="333.16" y1="405.36" x2="360.15" y2="363.86" xlink:href="#linear-gradient-16"/>
    <linearGradient id="linear-gradient-21" x1="185.18" y1="520.35" x2="252.26" y2="799.86" gradientUnits="userSpaceOnUse">
      <stop offset="0" stop-color="#9cfffb"/>
      <stop offset="1" stop-color="#9bfffa"/>
    </linearGradient>
    <linearGradient id="linear-gradient-22" x1="-5785.03" y1="-1907.61" x2="-5769.95" y2="-1821.61" gradientTransform="translate(5684.46 -2049.64) rotate(-41.75)" gradientUnits="userSpaceOnUse">
      <stop offset="0" stop-color="#2b3582"/>
      <stop offset="1" stop-color="#150e42"/>
    </linearGradient>
  </defs>
  <path class="cls-19" d="m948.8,673.48c-95.78,225.52-350.92,351.86-572.17,317.78-36-5.55-134.7-22.06-222.09-100C-13.69,741.25-49.67,444.18,86.04,234.83,184.8,82.46,361.86-3.91,530.09.41c36.24.93,175.11,6.67,297.16,107.31,17.93,14.78,57.47,49.91,93.1,105.63,83.68,130.85,90.87,313.16,28.45,460.13Z"/>
  <g>
    <g>
      <g class="cls-18">
        <path class="cls-1" d="m370.1,158.59c-1.79-.12-3.24-1.58-3.31-3.42-.15-4.01-.12-8.09.07-12.13.1-1.96,1.76-3.47,3.72-3.38.02,0,.05,0,.07,0,1.93.13,3.4,1.78,3.31,3.72-.19,3.83-.21,7.71-.07,11.52.07,1.96-1.46,3.61-3.42,3.68-.13,0-.25,0-.37,0Zm2.32-30.89c-.14,0-.28-.03-.42-.05-1.93-.36-3.2-2.22-2.84-4.15.74-3.96,1.66-7.94,2.74-11.8.52-1.89,2.48-3,4.38-2.48,1.89.52,3,2.48,2.48,4.38-1.02,3.68-1.89,7.45-2.6,11.22-.34,1.79-1.96,3.01-3.73,2.89Zm9.07-29.61c-.39-.03-.79-.12-1.18-.29-1.8-.78-2.63-2.88-1.84-4.68,1.6-3.69,3.39-7.36,5.3-10.9.94-1.73,3.09-2.37,4.82-1.44,1.73.93,2.37,3.09,1.44,4.82-1.82,3.36-3.51,6.85-5.04,10.35-.62,1.42-2.04,2.23-3.5,2.13Zm15.46-26.84c-.65-.04-1.3-.27-1.87-.69-1.58-1.17-1.92-3.39-.75-4.97,2.39-3.24,4.95-6.42,7.61-9.44,1.3-1.47,3.54-1.62,5.02-.32,1.47,1.3,1.62,3.54.32,5.02-2.52,2.87-4.96,5.89-7.23,8.97-.75,1.01-1.93,1.52-3.11,1.44Zm21.06-22.72c-.92-.06-1.81-.48-2.45-1.23-1.28-1.49-1.12-3.73.37-5.01,3.04-2.62,6.24-5.15,9.51-7.52,1.59-1.15,3.81-.8,4.97.79,1.15,1.59.8,3.81-.79,4.97-3.1,2.25-6.14,4.65-9.03,7.15-.74.64-1.66.92-2.56.86Zm25.56-17.49c-1.19-.08-2.3-.75-2.9-1.88-.92-1.73-.26-3.89,1.47-4.81,3.55-1.89,7.23-3.65,10.93-5.23,1.81-.77,3.9.07,4.67,1.87.77,1.8-.07,3.89-1.87,4.67-3.52,1.5-7.01,3.17-10.39,4.97-.61.32-1.27.45-1.91.41Zm130.56.36c-.49-.03-.98-.17-1.44-.42-3.36-1.81-6.85-3.5-10.36-5.02-1.8-.78-2.63-2.87-1.85-4.67.78-1.8,2.87-2.63,4.67-1.85,3.7,1.6,7.37,3.38,10.92,5.29,1.73.93,2.37,3.09,1.44,4.82-.68,1.27-2.02,1.95-3.37,1.86Zm-101.78-11.75c-1.47-.1-2.78-1.12-3.19-2.62-.51-1.9.61-3.85,2.5-4.36,3.88-1.05,7.86-1.95,11.82-2.66,1.93-.34,3.78.93,4.13,2.87.35,1.93-.94,3.78-2.87,4.13-3.76.68-7.54,1.53-11.23,2.53-.39.11-.79.14-1.17.12Zm73.03.23c-.23-.02-.47-.05-.71-.12-3.69-1.01-7.46-1.88-11.23-2.58-1.93-.36-3.21-2.21-2.85-4.14.36-1.93,2.21-3.21,4.14-2.85,3.96.74,7.94,1.65,11.82,2.71,1.89.52,3.01,2.48,2.49,4.37-.46,1.66-2.01,2.72-3.67,2.61Zm-42.42-4.9c-1.79-.12-3.24-1.58-3.31-3.41-.08-1.96,1.45-3.61,3.42-3.69,4.02-.16,8.1-.14,12.12.05.02,0,.05,0,.08,0,1.92.13,3.4,1.78,3.31,3.71-.09,1.96-1.76,3.48-3.72,3.39-3.82-.18-7.7-.19-11.51-.05-.13,0-.26,0-.38,0Z"/>
        <path class="cls-29" d="m594.94,45.18c-.7-.05-1.39-.3-1.98-.77-1.43-1.15-2.91-2.28-4.39-3.38-1.58-1.16-1.92-3.39-.76-4.97,1.16-1.58,3.39-1.92,4.97-.75,1.56,1.15,3.12,2.34,4.62,3.55,1.53,1.23,1.78,3.47.55,5-.76.95-1.9,1.4-3.02,1.33Z"/>
      </g>
      <g class="cls-18">
        <path class="cls-31" d="m646.37,140.61c-1.71-.12-3.13-1.46-3.3-3.22-.17-1.83-.37-3.68-.62-5.51-.26-1.95,1.11-3.73,3.05-3.99,1.95-.26,3.73,1.11,3.99,3.05.26,1.92.48,3.88.65,5.8.18,1.96-1.26,3.69-3.22,3.86-.19.02-.38.02-.57,0Z"/>
        <path class="cls-22" d="m499.25,291.49c-1.63-.11-3.27-.25-4.91-.42-1.95-.2-3.38-1.94-3.18-3.9.2-1.95,1.95-3.38,3.9-3.18,3.79.38,7.58.62,11.32.68,1.96.04,3.53,1.66,3.49,3.62-.04,1.96-1.66,3.53-3.62,3.49-2.31-.04-4.67-.14-6.99-.3Zm-23.41-3.59c-.2-.01-.4-.04-.6-.09-3.86-.93-7.72-2.04-11.47-3.28-1.86-.62-2.87-2.63-2.25-4.49.62-1.86,2.64-2.88,4.5-2.25,3.57,1.19,7.23,2.23,10.9,3.12,1.91.46,3.08,2.38,2.62,4.29-.41,1.71-2,2.83-3.69,2.71Zm49.09,2.94c-1.67-.11-3.08-1.4-3.29-3.13-.23-1.95,1.16-3.72,3.11-3.95,3.73-.44,7.49-1.05,11.18-1.81,1.92-.39,3.8.84,4.2,2.77.4,1.92-.84,3.8-2.77,4.2-3.89.8-7.85,1.44-11.78,1.91-.22.03-.45.03-.66.02Zm-77.76-13.32c-.45-.03-.9-.15-1.33-.36-3.55-1.75-7.08-3.68-10.47-5.73-1.68-1.01-2.22-3.2-1.21-4.88,1.01-1.68,3.2-2.22,4.88-1.21,3.22,1.94,6.56,3.77,9.94,5.44,1.76.87,2.48,3,1.61,4.76-.66,1.33-2.04,2.07-3.43,1.98Zm107.42,6.39c-1.37-.09-2.62-.98-3.11-2.36-.66-1.85.31-3.88,2.17-4.54,3.54-1.25,7.07-2.67,10.51-4.23,1.79-.81,3.9-.01,4.7,1.78.81,1.79.01,3.89-1.78,4.7-3.62,1.63-7.34,3.13-11.06,4.45-.47.17-.96.23-1.43.2Zm27.43-13.27c-1.1-.07-2.14-.65-2.77-1.66-1.04-1.66-.54-3.86,1.12-4.9,3.19-2,6.33-4.16,9.34-6.42,1.57-1.18,3.8-.86,4.98.71,1.18,1.57.86,3.8-.71,4.98-3.16,2.38-6.47,4.65-9.83,6.76-.66.41-1.4.59-2.13.54Zm23.88-18.93c-.83-.06-1.65-.41-2.29-1.05-1.38-1.4-1.37-3.65.03-5.03,2.68-2.65,5.28-5.44,7.72-8.3,1.28-1.49,3.52-1.67,5.01-.39,1.49,1.28,1.67,3.52.39,5.01-2.57,3.01-5.3,5.95-8.12,8.74-.75.75-1.76,1.09-2.74,1.02Zm19.18-23.69c-.58-.04-1.15-.22-1.68-.55-1.65-1.06-2.13-3.26-1.07-4.91,2.03-3.17,3.96-6.46,5.71-9.79.92-1.74,3.07-2.4,4.8-1.49,1.74.92,2.4,3.07,1.48,4.8-1.85,3.5-3.87,6.97-6.01,10.31-.73,1.13-1.98,1.71-3.24,1.63Zm13.52-27.33c-.32-.02-.65-.09-.97-.21-1.85-.67-2.8-2.71-2.13-4.55,1.28-3.53,2.43-7.17,3.41-10.8.51-1.9,2.47-3.01,4.36-2.51,1.9.51,3.02,2.46,2.51,4.36-1.03,3.83-2.24,7.65-3.59,11.37-.55,1.52-2.04,2.44-3.58,2.34Zm7.18-29.61c-.07,0-.15-.01-.22-.02-1.95-.25-3.32-2.03-3.07-3.98.36-2.75.63-5.54.82-8.3.07-1,.12-2,.17-2.99.09-1.96,1.75-3.48,3.72-3.39,1.99.05,3.48,1.75,3.39,3.71-.05,1.05-.11,2.1-.18,3.15-.2,2.9-.49,5.84-.86,8.73-.24,1.87-1.9,3.22-3.76,3.09Z"/>
        <path class="cls-13" d="m421.43,261.04c-.71-.05-1.4-.31-1.99-.78-1.5-1.21-3-2.48-4.46-3.76-1.47-1.3-1.62-3.54-.32-5.02,1.3-1.47,3.54-1.62,5.02-.32,1.39,1.22,2.81,2.42,4.23,3.57,1.53,1.23,1.76,3.47.53,5-.76.94-1.89,1.39-3.01,1.31Z"/>
      </g>
      <g>
        <path class="cls-26" d="m429.01,220.22c.41.58,1.14.83,1.82.63l19.41-5.68c7.08,6.26,15.2,11.43,24.16,15.2l3.29,19.94c.12.7.66,1.25,1.36,1.37l23.92,4.07c.7.12,1.4-.22,1.74-.84l9.7-17.73c9.7-.6,19.08-2.79,27.83-6.35l16.44,11.78c.58.41,1.35.41,1.93,0l19.79-14.03c.58-.41.83-1.14.63-1.82l-5.68-19.41c6.26-7.08,11.43-15.2,15.2-24.16l19.94-3.29c.7-.12,1.25-.66,1.37-1.36l4.07-23.92c.12-.7-.22-1.4-.84-1.74l-17.73-9.7c-.6-9.7-2.79-19.08-6.35-27.83l11.78-16.44c.41-.58.41-1.35,0-1.93l-14.03-19.79c-.41-.58-1.14-.83-1.82-.63l-19.41,5.68c-7.08-6.26-15.2-11.43-24.16-15.2l-3.29-19.94c-.12-.7-.66-1.25-1.36-1.37l-23.92-4.07c-.7-.12-1.4.22-1.74.84l-9.7,17.73c-9.7.6-19.08,2.79-27.83,6.35l-16.44-11.78c-.58-.41-1.35-.42-1.93,0l-19.79,14.03c-.58.41-.83,1.14-.63,1.82l5.68,19.41c-6.26,7.08-11.43,15.2-15.2,24.16l-19.94,3.29c-.7.12-1.25.66-1.37,1.36l-4.07,23.92c-.12.7.22,1.4.84,1.74l17.73,9.7c.6,9.7,2.79,19.08,6.35,27.83l-11.78,16.44c-.41.58-.42,1.35,0,1.93l14.03,19.79Z"/>
        <path class="cls-2" d="m507.22,173.04c-11.86-.8-21.68-10.22-22.64-22.41-1.06-13.41,8.99-25.17,22.39-26.23,6.49-.51,12.8,1.54,17.75,5.76,4.95,4.23,7.96,10.13,8.48,16.63,1.06,13.41-8.99,25.17-22.39,26.23-1.21.09-2.41.1-3.58.02Zm2.97-42.98c-.92-.06-1.84-.06-2.77.02-10.28.81-17.98,9.83-17.17,20.11.81,10.28,9.83,17.98,20.11,17.17,10.28-.81,17.98-9.83,17.17-20.11-.39-4.98-2.7-9.51-6.5-12.75-3.09-2.64-6.86-4.17-10.84-4.44Z"/>
        <path class="cls-2" d="m505.33,208.21c-2.04-.14-4.08-.38-6.12-.73h0c-.64-.11-1.28-.23-1.92-.36-3.15-.64-6.24-1.53-9.23-2.66-.04-.02-.08-.03-.12-.05-.12-.04-.23-.09-.35-.13-.22-.09-.45-.18-.67-.26-.59-.23-.93-.82-.89-1.41,0-.15.04-.29.1-.43.29-.73,1.12-1.08,1.85-.79,3.75,1.5,7.69,2.61,11.71,3.29,19.95,3.4,39.29-4.04,51.96-18.03,7.05-7.78,12.04-17.59,13.93-28.69.33-1.95.56-3.89.69-5.84.88-13.08-2.72-25.95-10.41-36.78-8.82-12.45-21.97-20.71-37.01-23.27-31.06-5.28-60.61,15.67-65.89,46.72-.33,1.91-.55,3.84-.68,5.76-.56,8.34.7,16.71,3.74,24.51.08.2.11.41.09.61-.04.53-.37,1.02-.9,1.23-.73.28-1.56-.07-1.84-.81-3.19-8.19-4.52-16.97-3.93-25.73.14-2.02.38-4.04.72-6.05,5.55-32.6,36.59-54.59,69.17-49.05,15.79,2.69,29.59,11.36,38.85,24.43,8.07,11.37,11.85,24.89,10.93,38.62-.14,2.04-.38,4.08-.73,6.13-2.69,15.79-11.36,29.59-24.43,38.85-11.38,8.07-24.9,11.85-38.63,10.92Z"/>
      </g>
    </g>
    <g>
      <g class="cls-18">
        <path class="cls-32" d="m242.71,243.87c-.95-.06-1.78-.74-1.99-1.72-.4-1.82-.76-3.68-1.05-5.52-.19-1.2.62-2.32,1.82-2.51,1.2-.2,2.32.63,2.51,1.82.28,1.76.62,3.53,1,5.26.26,1.18-.49,2.35-1.67,2.62-.21.05-.42.06-.62.05Z"/>
        <path class="cls-27" d="m240.59,227.11c-1.11-.08-2.01-.98-2.04-2.12-.11-3.21-.05-6.46.16-9.66.05-.67.1-1.35.16-2.03.11-1.21,1.24-2.05,2.38-1.99,1.21.11,2.1,1.17,1.99,2.38-.06.65-.11,1.29-.15,1.94-.21,3.05-.26,6.15-.16,9.21.04,1.21-.91,2.23-2.12,2.27-.08,0-.15,0-.23,0Zm2.02-22.71c-.1,0-.21-.02-.31-.04-1.19-.25-1.94-1.42-1.69-2.61.81-3.81,1.87-7.59,3.14-11.26.4-1.15,1.65-1.75,2.79-1.36,1.15.4,1.75,1.65,1.36,2.79-1.21,3.5-2.22,7.11-2.99,10.74-.23,1.08-1.22,1.8-2.29,1.73Zm7.47-21.54c-.28-.02-.56-.09-.82-.22-1.09-.54-1.53-1.85-1-2.94,1.72-3.48,3.67-6.9,5.81-10.15.67-1.01,2.03-1.29,3.04-.63,1.01.67,1.29,2.03.63,3.04-2.04,3.1-3.91,6.35-5.54,9.68-.41.82-1.26,1.28-2.12,1.22Zm12.54-19.05c-.45-.03-.9-.2-1.27-.52-.92-.79-1.03-2.17-.25-3.1,2.53-2.96,5.26-5.79,8.12-8.41.89-.82,2.28-.75,3.1.14.82.89.76,2.28-.14,3.1-2.73,2.5-5.33,5.2-7.74,8.02-.47.55-1.15.81-1.82.77Zm16.81-15.41c-.63-.04-1.24-.36-1.64-.92-.7-.99-.47-2.36.51-3.06,3.17-2.26,6.5-4.34,9.91-6.19,1.07-.58,2.4-.18,2.98.88s.18,2.4-.88,2.98c-3.26,1.77-6.44,3.75-9.46,5.9-.43.31-.93.44-1.42.4Zm20.04-10.86c-.82-.06-1.58-.57-1.9-1.39-.44-1.13.11-2.4,1.24-2.85,3.62-1.42,7.36-2.62,11.12-3.58,1.18-.3,2.37.41,2.67,1.59.3,1.17-.41,2.37-1.59,2.67-3.59.91-7.15,2.06-10.6,3.41-.31.12-.64.17-.95.15Zm22.08-5.63c-1.03-.07-1.89-.86-2.03-1.91-.15-1.2.7-2.3,1.9-2.45,3.84-.49,7.77-.74,11.67-.74,1.22.02,2.2.98,2.2,2.19,0,1.21-.98,2.2-2.19,2.2-3.72,0-7.46.24-11.13.71-.14.02-.29.02-.43.01Zm34.04,2.03c-.13,0-.25-.03-.38-.06-3.11-.77-6.31-1.39-9.52-1.83-.49-.07-.96-.13-1.44-.19-1.2-.15-2.06-1.24-1.92-2.44.14-1.21,1.25-2.1,2.44-1.92.51.06,1.02.13,1.53.2,3.36.46,6.72,1.11,9.97,1.92,1.18.29,1.89,1.48,1.6,2.66-.26,1.05-1.23,1.73-2.28,1.66Z"/>
      </g>
      <g class="cls-18">
        <path class="cls-15" d="m328.21,316.36c-1.2-.08-2.11-1.11-2.04-2.31.07-1.21,1.1-2.14,2.31-2.07,3.65.2,7.33.18,10.96-.06,1.2-.07,2.26.83,2.34,2.05.08,1.21-.84,2.26-2.05,2.34-3.81.25-7.67.28-11.5.07,0,0-.02,0-.03,0Zm-11.16-1.29c-.08,0-.16-.02-.24-.03-3.76-.66-7.53-1.56-11.18-2.67-1.16-.35-1.82-1.58-1.46-2.74.35-1.16,1.58-1.81,2.74-1.47,3.49,1.06,7.08,1.92,10.67,2.55,1.19.21,1.99,1.35,1.78,2.54-.2,1.12-1.2,1.89-2.31,1.81Zm33.53-.21c-.97-.07-1.82-.78-2.01-1.78-.23-1.19.55-2.34,1.74-2.57,3.59-.69,7.16-1.6,10.63-2.71,1.16-.37,2.39.27,2.76,1.42.37,1.15-.27,2.39-1.42,2.76-3.63,1.17-7.38,2.12-11.14,2.84-.19.04-.38.05-.56.03Zm-55-6.33c-.25-.02-.5-.08-.74-.18-3.5-1.55-6.93-3.33-10.21-5.3-1.04-.62-1.38-1.97-.76-3.01.62-1.04,1.97-1.38,3.01-.75,3.13,1.87,6.4,3.57,9.74,5.05,1.11.49,1.61,1.79,1.12,2.9-.38.87-1.26,1.36-2.16,1.3Zm76.34-.53c-.78-.05-1.5-.52-1.85-1.27-.51-1.1-.03-2.41,1.07-2.91,3.31-1.53,6.56-3.27,9.66-5.19,1.03-.64,2.39-.32,3.02.71.64,1.03.32,2.39-.71,3.02-3.25,2.01-6.66,3.84-10.13,5.44-.35.16-.71.22-1.07.2Zm19.08-11.78c-.59-.04-1.17-.32-1.57-.82-.76-.95-.6-2.33.34-3.09,2.85-2.28,5.59-4.75,8.14-7.35.85-.87,2.24-.88,3.11-.03.87.85.88,2.24.03,3.1-2.67,2.72-5.55,5.32-8.54,7.71-.45.36-.99.51-1.52.48Zm15.71-16.01c-.42-.03-.83-.17-1.19-.45-.96-.74-1.14-2.12-.4-3.08,2.23-2.89,4.29-5.95,6.14-9.09.62-1.04,1.96-1.39,3.01-.77,1.04.62,1.39,1.96.78,3.01-1.94,3.29-4.11,6.49-6.44,9.53-.47.6-1.18.9-1.89.85Z"/>
        <path class="cls-14" d="m276.26,296.96c-.42-.03-.84-.18-1.2-.46-1.48-1.16-2.94-2.36-4.32-3.58-.91-.8-1-2.19-.2-3.1.8-.91,2.19-1,3.1-.2,1.32,1.16,2.71,2.31,4.12,3.42.96.75,1.13,2.13.38,3.08-.47.6-1.18.89-1.88.84Z"/>
      </g>
      <g>
        <path class="cls-33" d="m280,268.78c.27.39.76.56,1.22.42l12.99-3.8c4.73,4.19,10.17,7.65,16.17,10.17l2.2,13.34c.08.47.44.84.91.92l16,2.72c.47.08.93-.15,1.16-.56l6.49-11.86c6.49-.4,12.77-1.87,18.62-4.25l11,7.89c.39.28.9.28,1.29,0l13.24-9.39c.39-.27.56-.76.42-1.22l-3.8-12.99c4.19-4.73,7.65-10.17,10.17-16.17l13.34-2.2c.47-.08.84-.44.92-.91l2.72-16c.08-.47-.15-.93-.56-1.16l-11.86-6.49c-.4-6.49-1.87-12.77-4.25-18.62l7.89-11c.28-.39.28-.9,0-1.29l-9.39-13.24c-.27-.39-.76-.56-1.22-.42l-12.99,3.8c-4.73-4.19-10.17-7.65-16.17-10.17l-2.2-13.35c-.08-.47-.44-.84-.91-.92l-16-2.72c-.47-.08-.93.15-1.16.56l-6.49,11.86c-6.49.4-12.77,1.87-18.62,4.25l-11-7.89c-.39-.28-.9-.28-1.29,0l-13.24,9.39c-.39.27-.56.76-.42,1.22l3.8,12.99c-4.19,4.73-7.65,10.17-10.17,16.17l-13.35,2.2c-.47.08-.84.44-.91.91l-2.72,16c-.08.47.15.93.56,1.16l11.86,6.49c.4,6.49,1.87,12.77,4.25,18.62l-7.89,11c-.28.39-.28.9,0,1.29l9.39,13.24Z"/>
        <path class="cls-2" d="m332.29,237.5c-3.53-.24-6.89-1.6-9.63-3.94-3.37-2.88-5.42-6.9-5.77-11.33-.72-9.13,6.12-17.14,15.25-17.86,9.14-.7,17.15,6.13,17.86,15.26.35,4.42-1.05,8.72-3.93,12.09-2.88,3.37-6.9,5.43-11.33,5.77-.83.06-1.65.07-2.46.01Zm1.99-28.76c-.59-.04-1.19-.04-1.79,0-6.72.53-11.75,6.43-11.22,13.14.26,3.25,1.76,6.21,4.25,8.33,2.48,2.12,5.64,3.14,8.9,2.89h0c3.25-.26,6.21-1.76,8.33-4.25,2.12-2.48,3.15-5.64,2.89-8.9-.48-6.11-5.4-10.83-11.35-11.23Z"/>
        <path class="cls-2" d="m330.95,261.99c-1.39-.09-2.78-.26-4.18-.5-2.78-.47-5.51-1.23-8.12-2.25l-.35-.14c-.91-.36-1.44-1.26-1.38-2.18.02-.22.07-.45.15-.67.45-1.13,1.73-1.67,2.85-1.22,2.43.98,4.98,1.69,7.58,2.13h0c.14.02.29.05.43.07,6.15.99,12.31.4,18.04-1.62,3.11-1.1,6.08-2.62,8.86-4.55.02-.02.05-.03.07-.05.07-.05.14-.1.21-.15,8.06-5.71,13.41-14.22,15.06-23.96.22-1.26.36-2.52.45-3.78.57-8.46-1.76-16.8-6.74-23.81-5.71-8.06-14.22-13.4-23.96-15.06-9.73-1.65-19.54.58-27.59,6.29-8.06,5.71-13.41,14.22-15.06,23.96-.21,1.24-.36,2.48-.44,3.73-.36,5.4.46,10.82,2.42,15.87.12.31.17.63.14.94-.06.82-.57,1.58-1.39,1.9-1.13.44-2.4-.12-2.84-1.25-2.2-5.65-3.12-11.71-2.71-17.75.09-1.39.26-2.79.49-4.17,1.85-10.89,7.84-20.41,16.86-26.8,9.01-6.39,19.97-8.9,30.87-7.03,10.89,1.85,20.41,7.84,26.8,16.85,5.56,7.85,8.18,17.17,7.54,26.64-.1,1.41-.26,2.82-.5,4.23-3.59,21.09-22.64,35.75-43.55,34.33Z"/>
      </g>
    </g>
  </g>
  <polygon class="cls-20" points="454.73 759.62 434.51 899.15 669.08 899.15 638.53 759.62 454.73 759.62"/>
  <path class="cls-8" d="m60.69,312.86v415.29c0,34.16,27.22,62.1,61.38,62.98,151.68,3.91,682.2,13.4,826.59,11.27,24.82-.37,44.92-20.23,45.64-45.04,2.78-96.48,7.31-328.47-9.43-436.18-3.52-22.68-22.67-39.64-45.61-40.38-127.09-4.07-689.48-16.98-833.8-13.73-24.89.56-44.77,20.89-44.77,45.79Z"/>
  <path class="cls-2" d="m86.75,310.84v394.55c0,19.95,16.01,36.2,35.96,36.5l805.18,9.95c19.77.3,35.98-15.61,36.05-35.39l1.35-391.03c.05-14.14-11.21-25.73-25.35-26.07l-824.36-16.65c-15.81-.38-28.83,12.33-28.83,28.14Z"/>
  <path class="cls-2" d="m970.01,768.01h-.02l-883.25-15.05c-.62-.01-1.11-.52-1.1-1.13.01-.62.53-1.09,1.14-1.1l883.25,15.05c.62.01,1.11.52,1.1,1.14-.01.61-.51,1.1-1.12,1.1Z"/>
  <path class="cls-8" d="m719.61,936.25h-343.31c-9.33,0-16.33-6.64-14.53-13.77l4.41-17.42c1.32-5.24,7.09-9.09,13.94-9.3l330.96-10.33c7.15-.22,13.49,3.57,15.04,9.02l7.94,27.75c2.06,7.21-4.97,14.05-14.45,14.05Z"/>
  <path class="cls-2" d="m561.11,900.47c-.61,0-1.11-.49-1.12-1.1,0-.62.48-1.12,1.1-1.13l14.18-.21c.59,0,1.12.48,1.13,1.1,0,.62-.48,1.12-1.1,1.13l-14.18.21h-.02Z"/>
  <path class="cls-2" d="m374.48,926.64c-.06,0-.12,0-.18-.01-.61-.1-1.02-.67-.93-1.28l2.02-12.67c1.09-6.81,6.88-11.82,13.77-11.92l150.42-2.2h.02c.61,0,1.11.49,1.12,1.1,0,.62-.48,1.12-1.1,1.13l-150.42,2.2c-5.81.09-10.69,4.31-11.6,10.04l-2.02,12.67c-.09.55-.56.94-1.1.94Z"/>
  <g>
    <g class="cls-24">
      <rect class="cls-4" x="533.76" y="338.42" width="21.18" height="373.54"/>
      <rect class="cls-4" x="569.15" y="338.42" width="21.18" height="373.54"/>
      <rect class="cls-4" x="604.53" y="338.42" width="21.18" height="373.54"/>
      <rect class="cls-4" x="639.92" y="338.42" width="21.18" height="373.54"/>
      <rect class="cls-4" x="675.31" y="338.42" width="21.18" height="373.54"/>
      <rect class="cls-4" x="710.69" y="338.42" width="21.18" height="373.54"/>
      <rect class="cls-4" x="746.08" y="338.42" width="21.18" height="373.54"/>
    </g>
    <rect class="cls-25" x="533.76" y="516.47" width="21.18" height="195.49"/>
    <rect class="cls-25" x="569.15" y="583.66" width="21.18" height="128.3"/>
    <rect class="cls-25" x="604.53" y="417.61" width="21.18" height="294.35"/>
    <rect class="cls-25" x="639.92" y="641.25" width="21.18" height="70.71"/>
    <rect class="cls-25" x="675.31" y="456.97" width="21.18" height="254.99"/>
    <rect class="cls-25" x="710.69" y="501.12" width="21.18" height="210.84"/>
    <rect class="cls-25" x="746.08" y="549.11" width="21.18" height="162.85"/>
  </g>
  <g>
    <path class="cls-6" d="m474.82,714.03l-330.02-2.48c-6.51-.05-11.76-5.34-11.76-11.85v-169.56c0-6.55,5.31-11.85,11.85-11.85h330.02c6.55,0,11.85,5.31,11.85,11.85v172.04c0,6.58-5.36,11.9-11.94,11.85Z"/>
    <path class="cls-6" d="m423.63,594.84l-42.44-44.87-60.85,66.18-42.94-46.33-40.27,45.52-30.88-37.52-60.86,63.36v45.82c0,6.06,4.88,10.98,10.94,11.02l306.95,2.31c6.12.05,11.11-4.9,11.11-11.02v-124.65l-50.76,30.17Z"/>
    <rect class="cls-4" x="423.89" y="593.59" width="1.12" height="106.75"/>
    <rect class="cls-4" x="380.63" y="549.97" width="1.12" height="149.75"/>
    <rect class="cls-4" x="319.78" y="615.35" width="1.12" height="83.92"/>
    <rect class="cls-4" x="277.99" y="571.47" width="1.12" height="127.8"/>
    <rect class="cls-4" x="236.58" y="613.99" width="1.12" height="85.28"/>
    <rect class="cls-4" x="206.35" y="574.65" width="1.12" height="123.8"/>
    <circle class="cls-34" cx="206.91" cy="574.65" r="9.33" transform="translate(-345.74 314.62) rotate(-45)"/>
    <path class="cls-23" d="m243.28,613.99c0,3.39-2.75,6.14-6.14,6.14s-6.14-2.75-6.14-6.14,2.75-6.14,6.14-6.14,6.14,2.75,6.14,6.14Z"/>
    <path class="cls-23" d="m284.69,571.47c0,3.39-2.75,6.14-6.14,6.14s-6.14-2.75-6.14-6.14,2.75-6.14,6.14-6.14,6.14,2.75,6.14,6.14Z"/>
    <path class="cls-23" d="m326.49,615.35c0,3.39-2.75,6.14-6.14,6.14s-6.14-2.75-6.14-6.14,2.75-6.14,6.14-6.14,6.14,2.75,6.14,6.14Z"/>
    <path class="cls-23" d="m387.33,549.97c0,3.39-2.75,6.14-6.14,6.14s-6.14-2.75-6.14-6.14,2.75-6.14,6.14-6.14,6.14,2.75,6.14,6.14Z"/>
    <path class="cls-11" d="m430.59,593.59c0,3.39-2.75,6.14-6.14,6.14s-6.14-2.75-6.14-6.14,2.75-6.14,6.14-6.14,6.14,2.75,6.14,6.14Z"/>
  </g>
  <g class="cls-16">
    <path class="cls-4" d="m228.39,490.05h-90.47c-3.78,0-6.85,2.14-6.85,4.77s3.07,4.77,6.85,4.77h90.47c3.78,0,6.85-2.14,6.85-4.77s-3.07-4.77-6.85-4.77Z"/>
    <path class="cls-4" d="m228.39,468.92h-90.47c-3.78,0-6.85,2.14-6.85,4.77s3.07,4.77,6.85,4.77h90.47c3.78,0,6.85-2.14,6.85-4.77s-3.07-4.77-6.85-4.77Z"/>
    <path class="cls-4" d="m228.39,447.79h-90.47c-3.78,0-6.85,2.14-6.85,4.77s3.07,4.77,6.85,4.77h90.47c3.78,0,6.85-2.14,6.85-4.77s-3.07-4.77-6.85-4.77Z"/>
  </g>
  <g class="cls-16">
    <path class="cls-4" d="m354.15,490.05h-90.47c-3.78,0-6.85,2.14-6.85,4.77s3.07,4.77,6.85,4.77h90.47c3.78,0,6.85-2.14,6.85-4.77s-3.07-4.77-6.85-4.77Z"/>
    <path class="cls-4" d="m354.15,468.92h-90.47c-3.78,0-6.85,2.14-6.85,4.77s3.07,4.77,6.85,4.77h90.47c3.78,0,6.85-2.14,6.85-4.77s-3.07-4.77-6.85-4.77Z"/>
    <path class="cls-4" d="m354.15,447.79h-90.47c-3.78,0-6.85,2.14-6.85,4.77s3.07,4.77,6.85,4.77h90.47c3.78,0,6.85-2.14,6.85-4.77s-3.07-4.77-6.85-4.77Z"/>
  </g>
  <g class="cls-16">
    <path class="cls-4" d="m479.91,490.05h-90.47c-3.78,0-6.85,2.14-6.85,4.77s3.07,4.77,6.85,4.77h90.47c3.78,0,6.85-2.14,6.85-4.77s-3.07-4.77-6.85-4.77Z"/>
    <path class="cls-4" d="m479.91,468.92h-90.47c-3.78,0-6.85,2.14-6.85,4.77s3.07,4.77,6.85,4.77h90.47c3.78,0,6.85-2.14,6.85-4.77s-3.07-4.77-6.85-4.77Z"/>
    <path class="cls-4" d="m479.91,447.79h-90.47c-3.78,0-6.85,2.14-6.85,4.77s3.07,4.77,6.85,4.77h90.47c3.78,0,6.85-2.14,6.85-4.77s-3.07-4.77-6.85-4.77Z"/>
  </g>
  <g>
    <g>
      <circle class="cls-5" cx="862.67" cy="509.91" r="41.86"/>
      <path class="cls-25" d="m887.55,501.06c1.3,3.15,2.01,6.6,2.01,10.22,0,14.85-12.04,26.89-26.89,26.89s-26.89-12.04-26.89-26.89,12.04-26.89,26.89-26.89c.45,0,.91.01,1.36.03v-6.82c-.45-.02-.9-.03-1.36-.03-18.61,0-33.7,15.09-33.7,33.7s15.09,33.7,33.7,33.7,33.7-15.09,33.7-33.7c0-4.58-.92-8.95-2.57-12.93l-6.25,2.72Z"/>
      <path class="cls-4" d="m897.08,569.5h-68.22c-4.28,0-7.75,3.47-7.75,7.75s3.47,7.75,7.75,7.75h68.22c4.28,0,7.75-3.47,7.75-7.75s-3.47-7.75-7.75-7.75Z"/>
    </g>
    <g>
      <circle class="cls-5" cx="862.49" cy="375.37" r="41.86"/>
      <path class="cls-25" d="m876.72,399.49c-4.15,2.62-9.06,4.14-14.33,4.14-14.85,0-26.89-12.04-26.89-26.89s12.04-26.89,26.89-26.89c.45,0,.91.01,1.36.03v-6.82c-.45-.02-.9-.03-1.36-.03-18.61,0-33.7,15.09-33.7,33.7s15.09,33.7,33.7,33.7c6.5,0,12.56-1.84,17.71-5.02l-3.38-5.93Z"/>
      <path class="cls-4" d="m897.26,434.96h-68.22c-4.28,0-7.75,3.47-7.75,7.75s3.47,7.75,7.75,7.75h68.22c4.28,0,7.75-3.47,7.75-7.75s-3.47-7.75-7.75-7.75Z"/>
    </g>
    <g>
      <circle class="cls-5" cx="862.82" cy="645.14" r="41.86" transform="translate(170.96 1470.97) rotate(-86.83)"/>
      <path class="cls-25" d="m885.62,660.26c-4.84,7.1-12.99,11.77-22.24,11.77-14.85,0-26.89-12.04-26.89-26.89s12.04-26.89,26.89-26.89c.45,0,.91.01,1.36.03v-6.82c-.45-.02-.9-.03-1.36-.03-18.61,0-33.7,15.09-33.7,33.7s15.09,33.7,33.7,33.7c11.51,0,21.68-5.78,27.76-14.59l-5.52-4Z"/>
      <path class="cls-4" d="m828.72,718.87h68.22c4.28,0,7.75-3.47,7.75-7.75s-3.47-7.75-7.75-7.75h-68.22c-4.28,0-7.75,3.47-7.75,7.75s3.47,7.75,7.75,7.75Z"/>
    </g>
  </g>
  <g>
    <path class="cls-23" d="m959.03,62.66l-396.09-1.9c-4.77-.04-8.65,5.24-8.61,11.73l.88,156.71c.04,6.53,4.01,11.75,8.81,11.55l393.83-8.43c4.58-.19,8.24-5.25,8.3-11.49l1.38-146.37c.06-6.46-3.75-11.75-8.5-11.79Z"/>
    <path class="cls-2" d="m563.77,230.7c-.73,0-1.3-.69-1.31-1.58l-.88-156.71c0-.41.11-.77.33-1.07.32-.44.71-.53.98-.53l396.09,1.9c.27,0,.65.1.97.53.22.3.33.66.32,1.07l-1.38,146.37c0,.87-.55,1.54-1.26,1.57h0l-393.86,8.44Zm-.88-158.87s-.07,0-.16.11c-.09.12-.13.28-.13.47l.88,156.71c0,.35.19.57.28.57l393.85-8.44c.1,0,.27-.23.27-.56l1.38-146.37c0-.19-.04-.34-.13-.47-.08-.11-.13-.11-.15-.11l-396.09-1.9Z"/>
    <g class="cls-10">
      <rect class="cls-2" x="579" y="143.64" width="19.28" height="73.66"/>
      <rect class="cls-2" x="611.21" y="168.96" width="19.28" height="48.34"/>
      <rect class="cls-2" x="643.42" y="106.39" width="19.28" height="110.91"/>
      <rect class="cls-2" x="675.63" y="190.66" width="19.28" height="26.65"/>
      <rect class="cls-2" x="707.83" y="121.22" width="19.28" height="96.08"/>
      <rect class="cls-2" x="740.04" y="137.85" width="19.28" height="79.45"/>
      <rect class="cls-2" x="772.25" y="155.94" width="19.28" height="61.36"/>
      <rect class="cls-2" x="804.46" y="83.97" width="19.28" height="133.33"/>
      <rect class="cls-2" x="836.67" y="98.07" width="19.28" height="119.23"/>
      <rect class="cls-2" x="868.87" y="119.41" width="19.28" height="97.89"/>
      <rect class="cls-2" x="901.08" y="193.13" width="19.28" height="24.17"/>
      <rect class="cls-2" x="933.29" y="146.17" width="19.28" height="71.13"/>
    </g>
  </g>
  <g>
    <path class="cls-23" d="m488.9,238.04l-381.82-1.84c-4.6-.04-8.34,5.05-8.3,11.31l.85,151.07c.04,6.3,3.87,11.32,8.5,11.13l379.65-8.13c4.42-.18,7.94-5.06,8-11.08l1.33-141.1c.06-6.23-3.62-11.33-8.19-11.37Z"/>
    <path class="cls-4" d="m107.88,400.03c-.71,0-1.26-.67-1.26-1.52l-.85-151.07c0-.4.1-.74.32-1.04.31-.42.68-.51.94-.51l381.83,1.84c.26,0,.63.09.93.51.21.29.32.64.31,1.03l-1.33,141.1c0,.84-.53,1.49-1.21,1.51h0l-379.68,8.13Zm-.85-153.15s-.07,0-.15.11c-.09.12-.13.27-.13.45l.85,151.07c0,.33.18.55.27.55l379.67-8.13c.1,0,.26-.22.26-.54l1.33-141.1c0-.18-.04-.33-.13-.45-.08-.11-.13-.11-.15-.11l-381.82-1.84Z"/>
    <g>
      <circle class="cls-2" cx="174.78" cy="303.22" r="39.53" transform="translate(-163.22 212.4) rotate(-45)"/>
      <circle class="cls-2" cx="272.68" cy="303.22" r="39.53" transform="translate(-134.54 281.63) rotate(-45)"/>
      <circle class="cls-2" cx="370.93" cy="304.51" r="39.53" transform="translate(-106.68 351.48) rotate(-45)"/>
      <g>
        <path class="cls-25" d="m198.27,294.86c1.22,2.98,1.9,6.23,1.9,9.65,0,14.02-11.37,25.39-25.39,25.39s-25.39-11.37-25.39-25.39,11.37-25.39,25.39-25.39c.43,0,.86.01,1.28.03v-6.44c-.43-.02-.85-.03-1.28-.03-17.58,0-31.82,14.25-31.82,31.82s14.25,31.82,31.82,31.82,31.82-14.25,31.82-31.82c0-4.33-.87-8.45-2.43-12.21l-5.9,2.57Z"/>
        <path class="cls-25" d="m286.12,326c-3.92,2.47-8.55,3.91-13.53,3.91-14.02,0-25.39-11.37-25.39-25.39s11.37-25.39,25.39-25.39c.43,0,.86.01,1.28.03v-6.44c-.43-.02-.85-.03-1.28-.03-17.58,0-31.82,14.25-31.82,31.82s14.25,31.82,31.82,31.82c6.13,0,11.86-1.74,16.72-4.74l-3.19-5.6Z"/>
        <path class="cls-25" d="m392.46,318.79c-4.57,6.71-12.27,11.12-21,11.12-14.02,0-25.39-11.37-25.39-25.39s11.37-25.39,25.39-25.39c.43,0,.86.01,1.28.03v-6.44c-.43-.02-.85-.03-1.28-.03-17.58,0-31.82,14.25-31.82,31.82s14.25,31.82,31.82,31.82c10.87,0,20.47-5.45,26.21-13.77l-5.21-3.77Z"/>
      </g>
      <g>
        <path class="cls-2" d="m207.27,359.5h-64.42c-4.04,0-7.32,3.28-7.32,7.32s3.28,7.32,7.32,7.32h64.42c4.04,0,7.32-3.28,7.32-7.32s-3.28-7.32-7.32-7.32Z"/>
        <path class="cls-2" d="m305.51,359.5h-64.42c-4.04,0-7.32,3.28-7.32,7.32s3.28,7.32,7.32,7.32h64.42c4.04,0,7.32-3.28,7.32-7.32s-3.28-7.32-7.32-7.32Z"/>
        <path class="cls-2" d="m338.72,374.14h64.42c4.04,0,7.32-3.28,7.32-7.32s-3.28-7.32-7.32-7.32h-64.42c-4.04,0-7.32,3.28-7.32,7.32s3.28,7.32,7.32,7.32Z"/>
      </g>
    </g>
  </g>
  <g>
    <path class="cls-7" d="m161.37,962.87s-2.2,12.45-3.28,24.78c-.42,4.82,3.29,9,8.13,9.2,16.42.68,51.54,2.01,64.14,1.45,1.89-.08,3.13-2.02,2.43-3.79-.59-1.48-1.72-2.67-3.16-3.33l-58.01-26.66-10.24-1.66Z"/>
    <path class="cls-17" d="m159.57,955.55l1.77,14.9s10.16,4.73,17.1-.6l-4.21-16.6-14.66,2.3Z"/>
    <path class="cls-23" d="m160.9,675.47c-.76,3.89-4.1,194.14,16.24,279.4.33,1.39-.37,2.82-1.7,3.37-3.12,1.27-9.23,3.12-16.56,3.37-2.27.08-4.3-1.4-4.94-3.58-5.81-19.78-33.67-118.89-37.3-213.56-4.06-105.79,0-3.6,0-3.6l2.38-65.39h41.89Z"/>
    <path class="cls-3" d="m94.64,969.37s-3.5,6.29-6.89,23c-.61,3.02,1.5,5.91,4.56,6.21,5.42.53,13.77,1.22,20.45,1.17,3.08-.02,5.49-2.7,5.12-5.76-.74-6.1-3.05-16.1-10.17-23.9l-13.06-.71Z"/>
    <path class="cls-9" d="m91.57,950.21l4.13,22.53s4.08,3.04,12.16.84l-1.97-24.24-14.32.88Z"/>
    <path class="cls-23" d="m80.41,681.31c-16.63,100.38,3.61,248.09,10.43,277,.42,1.77,1.85,3.13,3.64,3.42,3.05.51,8.06.92,13.01-.52,1.7-.49,2.9-2.03,2.97-3.8.92-23.37-.73-166.87,14.76-223.57.79-2.87,2.54-5.38,4.97-7.11l30.08-21.38,2.31-34.57-82.17,10.53Z"/>
    <g>
      <path class="cls-25" d="m186.39,491.12c-49.84-.82-104.84,13.09-104.84,13.09-14.86,86.69-2.6,186.69-2.6,186.69,38.59,10.12,82.12-6.19,82.12-6.19,6.41-36.24,36.34-138.21,36.34-138.21,24.35-3.02,44.42-10.05,60.94-19.34-12.6-14.61-18.54-33.2-21.12-44.18-17.62,5.48-35.46,8.4-50.83,8.15Z"/>
      <path class="cls-35" d="m333.62,417.7c-4.9-5.91-11.09-3.12-11.09-3.12-7.34,30.98-45.8,56.11-85.31,68.39,2.58,10.99,8.52,29.58,21.12,44.18,65.57-36.87,75.28-109.45,75.28-109.45Z"/>
    </g>
    <g>
      <path class="cls-30" d="m332.43,419.2c.51,1.63-5.42,4.11-8.91-2.55-.12-3.19-2.06-16.87-.16-19.47,10.16-13.85,29.86-31.22,29.86-31.22,3.33,3.29.59,6.51.59,6.51l-9.56,9.95c2,3.61,4.44,6.66,5.58,11.03.87,3.31.34,6.84-1.34,9.86-1.68,3.02-3.97,6.95-6.13,10.02-4.1,5.82-9.93,5.86-9.93,5.86Z"/>
      <path class="cls-12" d="m340.07,388.89l-8.71,7.38-2.73,7.35,7.76,8.61s2.61-14.58,4.55-17.74c1.94-3.16.93-4.68-.87-5.61Z"/>
    </g>
    <path class="cls-25" d="m100.67,552.47l-19.12-48.26s-46.56,31.63-54.21,71.74c8.8.65,24.8,2.94,40.47,10.85,3.44-18.94,32.86-34.33,32.86-34.33Z"/>
    <path class="cls-35" d="m141.35,597.88s-52.27,29.54-69.91,4.32c-3.66-5.24-4.54-10.44-3.64-15.41-15.67-7.91-31.68-10.2-40.47-10.85-2.31,12.09-1.09,24.95,6.02,37.95,30.89,56.51,114.92-3.12,114.92-3.12l-6.92-12.89Z"/>
    <g>
      <path class="cls-21" d="m135.07,635.25l28.53-99.63c.32-1.13,1.29-1.96,2.46-2.09,5.17-.6,20.15-2.3,37.44-3.76,20.83-1.76,45.02-3.19,59.47-1.98,2.05.17,3.3,2.35,2.38,4.19-8.22,16.63-42.03,84.28-58.96,106.44-.56.73-1.43,1.16-2.35,1.15l-66.19-.62c-1.93-.02-3.31-1.87-2.78-3.72Z"/>
      <path class="cls-23" d="m206.45,521.14l20.68-3.45c1.1-.18,2,.87,1.65,1.93l-2.05,6.2c-.18.54-.65.93-1.21,1.01l-19.9,2.66c-1.03.14-1.88-.8-1.64-1.81l1.27-5.42c.14-.58.61-1.03,1.2-1.13Z"/>
      <path class="cls-23" d="m190.97,538.65l1.7-8.88c.17-.89.91-1.56,1.81-1.65l41.78-4.24c1.41-.14,2.53,1.15,2.2,2.52l-2.66,11.06c-.21.88-.98,1.52-1.89,1.57l-40.82,2.06c-1.33.07-2.37-1.13-2.12-2.44Z"/>
      <path class="cls-35" d="m141.96,611.18s-3.97-16.34-2.37-22.14c1.6-5.8,4.71-13.25,15.06-11.59,10.35,1.66,22.56,6.02,22.56,6.02,0,0-.62,7.55-8.48,5.12l4.88,3.78s-.7,6.05-7.34,2.82l4.54,5.01s-2.85,4.97-7.74,1.78c-4.89-3.19-7.23,11.19-21.1,9.22Z"/>
    </g>
    <path class="cls-35" d="m135.9,450.65l-15.86,45.86c-.26.76.05,1.6.75,1.99,4.32,2.39,19.9,9.3,38.67-2.6,1.96-1.24,3.29-3.26,3.58-5.56l5.14-39.7h-32.28Z"/>
    <g>
      <path class="cls-35" d="m170.41,408.18s17.42,32.78,15.18,46.03c-2.23,13.24-23.82,12.29-42.66,1.54l-13.17-35.4,40.65-12.16Z"/>
      <path class="cls-28" d="m143.76,438.36c.77-.34,1.05-1.28.59-1.98-1.4-2.13-4.01-6.48-4.85-10.29,0,0-3.13-2.01,7.97-4.66,11.1-2.66,27.65-6.78,31.13-16.23,3.39-9.21-5.52-32.38-19.74-13.92-.54.7-1.6.72-2.14.01-2.33-3.03-8.46-9.33-16.97-5.51-7.96,3.57-8.86,9.41-8.75,12.35.03.87-.74,1.54-1.59,1.38-4.03-.77-13.69-1.43-18.19,8.48-3.71,8.16-1.3,12.78.9,15.04.71.73.4,1.94-.58,2.24-2.65.81-6.06,3.05-5.72,9.25.47,8.57,10.05,7.81,12.78,7.42.45-.06.9.09,1.2.42,2.34,2.59,12.88,13.58,24.28,14.9.99.11,1.75-.86,1.43-1.8l-4.94-14.35c-.23-.67.09-1.4.73-1.68l2.45-1.08Z"/>
      <path class="cls-35" d="m145.75,440.39s-12.4-8.51-13.31-1.34c-.91,7.16,11.17,10.38,17.15,7.71l-3.84-6.36Z"/>
    </g>
  </g>
</svg>