<?xml version="1.0" encoding="UTF-8"?>
<svg id="Illustration" xmlns="http://www.w3.org/2000/svg" xmlns:xlink="http://www.w3.org/1999/xlink" viewBox="0 0 1000 1000">
  <defs>
    <style>
      .cls-1 {
        fill: #fff;
      }

      .cls-2 {
        fill: #e2e2e2;
        opacity: .3;
      }

      .cls-3 {
        fill: #c0cfff;
      }

      .cls-4 {
        fill: #12b991;
      }

      .cls-5 {
        fill: #f63073;
      }

      .cls-6 {
        fill: #2a3480;
      }

      .cls-7 {
        stroke: #fff;
      }

      .cls-7, .cls-8, .cls-9 {
        fill: none;
        stroke-linecap: round;
        stroke-linejoin: round;
        stroke-width: 3.96px;
      }

      .cls-10 {
        opacity: .43;
      }

      .cls-10, .cls-11, .cls-12 {
        fill: #353535;
      }

      .cls-11 {
        opacity: .85;
      }

      .cls-13 {
        fill: #c2bdff;
      }

      .cls-14 {
        fill: #c5d6fb;
      }

      .cls-12, .cls-15 {
        opacity: .42;
      }

      .cls-8 {
        stroke: #7a73d9;
      }

      .cls-16 {
        font-size: 125.37px;
      }

      .cls-16, .cls-17 {
        font-family: Poppins-Regular, Poppins;
      }

      .cls-16, .cls-17, .cls-18 {
        fill: #9aacff;
      }

      .cls-19 {
        fill: #604156;
      }

      .cls-20 {
        fill: url(#linear-gradient);
      }

      .cls-21 {
        fill: #fddef7;
      }

      .cls-17 {
        font-size: 32.12px;
      }

      .cls-9 {
        stroke: #6541be;
      }

      .cls-22 {
        fill: #a595fa;
      }
    </style>
    <linearGradient id="linear-gradient" x1="351.08" y1="528.75" x2="350.33" y2="599.42" gradientUnits="userSpaceOnUse">
      <stop offset="0" stop-color="#ffcd3e"/>
      <stop offset="1" stop-color="#ff936b"/>
    </linearGradient>
  </defs>
  <g>
    <path class="cls-22" d="m169.78,216.78l148.47,132.42c.74.66,2.47-.06,3.85-1.59h0c1.37-1.54,1.89-3.34,1.15-4l-148.46-132.42c-.74-.66-2.47.06-3.85,1.6h0c-1.37,1.54-1.89,3.34-1.15,4Z"/>
    <g>
      <path class="cls-22" d="m140.83,182.92l.82.74c.02.21,6.21,52.66,55.49,50.25l.48.28c-3.19-49.33-56.8-51.28-56.8-51.28Z"/>
      <path class="cls-22" d="m239.89,172.67l-.41,1.03c-.19.1-47.18,24.2-27.72,69.54l-.1.55c45.12-20.21,28.23-71.12,28.23-71.12Z"/>
      <path class="cls-22" d="m210.1,244.37l-.92.61c-.21-.03-52.56-7.06-62.46,41.27l-.4.4c48.58,9.16,63.77-42.28,63.77-42.28Z"/>
      <path class="cls-22" d="m269.51,199.84l-.41,1.03c-.19.1-47.18,24.2-27.72,69.54l-.1.55c45.12-20.21,28.23-71.12,28.23-71.12Z"/>
      <path class="cls-22" d="m239.72,271.54l-.92.61c-.21-.03-52.56-7.06-62.46,41.27l-.4.4c48.58,9.16,63.78-42.28,63.78-42.28Z"/>
      <path class="cls-22" d="m307.84,236.26l-.41,1.03c-.19.1-47.18,24.2-27.72,69.54l-.1.55c45.12-20.21,28.23-71.12,28.23-71.12Z"/>
      <path class="cls-22" d="m278.05,307.96l-.92.61c-.21-.03-52.56-7.06-62.46,41.27l-.39.4c48.58,9.16,63.78-42.28,63.78-42.28Z"/>
    </g>
  </g>
  <path class="cls-5" d="m182.5,646.63c12.23,5.84,23.35,15.18,30.62,25.66-12.05-11.12-26.7-17.5-42.12-19.41-25.47,14.67-46.94,32.5-63.96,49.28,10.79,2.68,19.8,10.02,27.71,18.15-13.83-4.95-26.67-6.51-39.94-5.49-22.12,24.02-33.95,43.21-33.95,43.21l4.82-1.6c.43.18,54.05,22.71,120.61,22.05,11.21-3.72,21.38-9.53,28.42-21.13-1.51,8.35-5.04,14.74-9.51,20.3,15.8-1.24,32.08-3.95,48.36-8.65,12.47-9.91,17.84-28.28,14.34-45.38,5.9,10.91,10.41,23.62,10.98,36.34,42.15-18.12,82.54-51.9,112.44-111.27l2.22-1.29c-84.54-40.91-156.16-28.88-211.04-.77Z"/>
  <path class="cls-7" d="m249.5,698.05c-5.63,2.11-11.25,4.25-16.85,6.42"/>
  <path class="cls-8" d="m392.14,647.47c-38.35,13.85-77.03,26.77-115.39,40.58"/>
  <path class="cls-8" d="m304.94,556.43c16.19,18.89,32.37,37.79,48.24,56.95"/>
  <g>
    <path class="cls-21" d="m276.22,411.07c-1.01,14.01-5.82,28.27-13.18,39.25,6.18-15.84,6.79-32.38,2.81-47.98-23.78-19.04-49.11-33.01-71.74-43.1,1.49,11.43-2.19,22.9-7.04,33.6-.45-15.22-3.8-28.2-9.8-40.62-31.54-12.27-54.54-16.43-54.54-16.43v-.05c0,.49,1.89,64.85,27.69,128.83,7.83,9.41,17.28,17.03,31.14,19.45-8.63,1.7-16.13.71-23.19-1.51,7.17,14.78,15.94,29.47,26.63,43.4,14.28,8.29,34.04,6.53,49.22-3.32-8.29,9.82-18.86,18.98-30.92,24.33,33.43,33.83,81.29,60.04,149.89,66.45l2.08,1.66c7.53-97.06-31.16-161.62-79.04-203.97Z"/>
    <path class="cls-7" d="m264.69,506.54c7.1,9,14.23,17.97,21.42,26.9"/>
    <path class="cls-7" d="m217,448.98c8.76,13.14,20.43,23.35,29.39,35.48"/>
  </g>
  <path class="cls-22" d="m796.29,606.24c-12.6-6.2-24.01-16.03-31.41-26.98,12.35,11.68,27.45,18.47,43.41,20.65,26.59-14.88,49.06-33.09,66.91-50.27-11.15-2.91-20.39-10.64-28.49-19.16,14.27,5.31,27.56,7.08,41.33,6.19,23.23-24.61,35.73-44.36,35.73-44.36,0,0-60.75-22.62-129.74-22.78-11.66,3.72-22.28,9.61-29.73,21.54,1.67-8.63,5.41-15.22,10.12-20.92-16.39,1.08-33.3,3.69-50.23,8.35-13.05,10.11-18.85,29.09-15.44,46.85-5.98-11.38-10.49-24.61-10.92-37.8-43.91,18.25-86.2,52.75-117.94,113.9l-2.32,1.31c87.1,43.47,161.48,31.9,218.72,3.47Z"/>
  <g>
    <path class="cls-14" d="m773,337.73l-149.5,112.23c-.75.56-.41,2.29.76,3.84h0c1.16,1.55,2.73,2.36,3.48,1.8l149.5-112.23c.75-.56.41-2.29-.76-3.84h0c-1.16-1.55-2.73-2.36-3.48-1.8Z"/>
    <g>
      <path class="cls-14" d="m809.56,317.34l-.84.62c-.2-.02-49.66-4.04-56.57,41.81l-.35.39c46.04,6.2,57.76-42.82,57.76-42.82Z"/>
      <path class="cls-14" d="m800.64,410.49l-.87-.57c-.05-.19-13.55-47.95-58.92-38.42l-.49-.19c10.26,45.31,60.29,39.18,60.29,39.18Z"/>
      <path class="cls-14" d="m740.11,369.76l-.39-.96c.06-.19,16.25-47.11-26.45-65.18l-.29-.44c-17.44,43.06,27.13,66.59,27.13,66.59Z"/>
      <path class="cls-14" d="m770.12,432.74l-.87-.57c-.05-.19-13.55-47.95-58.92-38.42l-.49-.19c10.26,45.31,60.29,39.18,60.29,39.18Z"/>
      <path class="cls-14" d="m709.6,392.01l-.39-.96c.06-.19,16.25-47.11-26.45-65.18l-.29-.44c-17.44,43.06,27.13,66.59,27.13,66.59Z"/>
      <path class="cls-14" d="m729.47,461.3l-.87-.57c-.05-.19-13.55-47.95-58.92-38.42l-.49-.19c10.26,45.31,60.29,39.18,60.29,39.18Z"/>
      <path class="cls-14" d="m668.94,420.57l-.39-.96c.06-.19,16.25-47.11-26.45-65.18l-.29-.44c-17.44,43.06,27.13,66.59,27.13,66.59Z"/>
    </g>
  </g>
  <path class="cls-22" d="m179.4,507.05c7.29,12.76,11.41,27.96,11.41,41.79-3.86-17.36-12.96-32.1-25.52-43.33-31.76-2.69-61.91-.08-87.45,4.35,7.96,9.06,11.44,21.17,13.46,33.3-9.26-12.96-19.73-22.29-32.19-29.59-34.56,7.71-56.96,17.5-56.96,17.5,0,0,39.39,55.21,99.09,95.78,12.29,3.62,24.94,4.73,38.39-1.24-6.5,6.5-13.61,10.02-21.03,12.2,14.84,8.66,31.02,16.32,48.43,22.2,17.24-1.11,33.38-14.16,40.84-31.56-1.49,13.37-5.33,27.48-12.69,39.16,48.76,9.92,105.62,4.81,168.96-29.59l2.78.23c-50.01-88.72-121.25-122.29-187.53-131.19Z"/>
  <path class="cls-9" d="m200.41,595.85c56,13.67,111.46,28.26,166.52,42.39"/>
  <path class="cls-7" d="m127.97,577.41c14.6,4.38,30.65,7.3,45.71,11.64"/>
  <path class="cls-5" d="m768.67,550.33c-9.42,16.5-14.76,36.15-14.76,54.03,4.99-22.45,16.76-41.5,32.99-56.03,41.07-3.47,80.05-.1,113.07,5.62-10.29,11.72-14.79,27.37-17.4,43.05,11.97-16.76,25.52-28.82,41.62-38.25,44.68,9.97,73.65,22.63,73.65,22.63,0,0-50.94,71.38-128.13,123.84-15.89,4.68-32.25,6.12-49.63-1.61,8.41,8.41,17.59,12.95,27.19,15.78-19.18,11.2-40.11,21.1-62.62,28.7-22.29-1.44-43.16-18.31-52.8-40.8,1.92,17.28,6.89,35.53,16.4,50.63-63.04,12.82-136.57,6.21-218.46-38.26l-3.59.3c64.66-114.72,156.77-158.12,242.46-169.62Z"/>
  <path class="cls-7" d="m664.22,676.12c-54.61,15.13-105.7,34.1-159.7,48.7"/>
  <path class="cls-7" d="m713.64,660.83c-8.1,2.49-16.19,4.99-24.28,7.49"/>
  <path class="cls-7" d="m771.62,643.09c-11.68,2.92-21.89,7.3-32.55,9.96"/>
  <path class="cls-6" d="m627.51,692.41l2.54.02,4-483.43c.27-32.59-26.17-59.47-58.76-59.74l-207.11-1.71c-32.59-.27-59.47,26.17-59.74,58.76l-4,483.14,3.39.03c3.28.03,3.23,5.11-.04,5.09l-3.39-.03-.34,41.09c-.27,32.59,26.17,59.47,58.76,59.74l207.11,1.71c32.59.27,59.47-26.17,59.74-58.76l.34-40.81-2.54-.02c-3.28-.03-3.23-5.11.04-5.09Z"/>
  <path class="cls-19" d="m631.41,322.72h0c-4.66-.04-8.45-3.89-8.41-8.55l.62-74.62c.04-4.66,3.89-8.45,8.55-8.41h0c4.66.04,8.45,3.89,8.41,8.55l-.62,74.62c-.04,4.66-3.89,8.45-8.55,8.41Z"/>
  <path class="cls-6" d="m310.24,331.37h0c-4.66-.04-8.45-3.89-8.41-8.55l.52-63.31c.04-4.66,3.89-8.45,8.55-8.41h0c4.66.04,8.45,3.89,8.41,8.55l-.52,63.31c-.04,4.66-3.89,8.45-8.55,8.41Z"/>
  <path class="cls-6" d="m306.02,349.47h10.09c1.9,0,3.43,1.54,3.43,3.43v30.65c0,1.9-1.54,3.43-3.43,3.43h-10.09c-1.9,0-3.43-1.54-3.43-3.43v-30.65c0-1.89,1.54-3.43,3.43-3.43Z" transform="translate(3.07 -2.58) rotate(.48)"/>
  <path class="cls-6" d="m306.77,394.7h10.09c1.89,0,3.43,1.54,3.43,3.43v30.65c0,1.89-1.54,3.43-3.43,3.43h-10.09c-1.9,0-3.43-1.54-3.43-3.43v-30.65c0-1.9,1.54-3.43,3.43-3.43Z" transform="translate(3.43 -2.57) rotate(.47)"/>
  <path class="cls-6" d="m558.77,786.86l-185.49-1.54c-34.15-.28-61.87-28.46-61.58-62.61l4.17-503.29c.28-34.15,28.46-61.87,62.61-61.58l185.49,1.54c34.15.28,61.87,28.46,61.58,62.61l-4.17,503.29c-.28,34.15-28.46,61.87-62.61,61.58Z"/>
  <path class="cls-1" d="m555.16,779.1l-177.59-1.47c-33.08-.27-59.93-27.57-59.65-60.65l4.07-491.74c.27-33.08,27.57-59.93,60.65-59.65l177.59,1.47c33.08.27,59.93,27.57,59.65,60.65l-4.07,491.74c-.27,33.08-27.57,59.93-60.65,59.65Z"/>
  <path class="cls-2" d="m467.32,753.12c7.05-38.88-28.98-75.24-12.49-113.5,7.79-18.08,24.28-32.07,43.52-35.97,16.96-3.43,34.27.71,50.08,6.99,17.73,7.04,34.32,16.57,51.23,25.35,4.69,2.43,9.48,4.91,14.36,7.22l2.48-299.3c-19.2-10.69-35.47-27.27-50.42-43.48-19.52-21.17-39.56-47.6-67.2-58.24-13.24-5.1-27.17-5.18-40.64-.86-18.14,5.82-31.45,21.06-41.96,36.35-10.41,15.15-19.32,31.38-31.33,45.36-13.73,15.99-32.81,27.68-51.5,37.15l-3.04,367.4c-.14,16.53,13.14,30.17,29.51,30.31l106.06.88c.53-1.84.98-3.72,1.33-5.66Z"/>
  <path class="cls-6" d="m541.5,189.69l-139.06-1.15c-7.46-.06-13.52-6.22-13.46-13.68h0c.06-7.46,6.22-13.52,13.68-13.45l139.06,1.15c7.46.06,13.52,6.22,13.45,13.68h0c-.06,7.46-6.22,13.52-13.68,13.45Z"/>
  <path class="cls-1" d="m527.45,179.4h0c-2.8-.02-5.07-2.33-5.05-5.13h0c.02-2.8,2.33-5.07,5.13-5.05h0c2.8.02,5.07,2.33,5.05,5.13h0c-.02,2.8-2.33,5.07-5.13,5.05Z"/>
  <path class="cls-1" d="m495.83,174.62l-47.48-.39c-1.55-.01-2.82-1.3-2.8-2.85h0c.01-1.55,1.3-2.82,2.85-2.8l47.48.39c1.55.01,2.82,1.3,2.8,2.85h0c-.01,1.55-1.3,2.82-2.85,2.8Z"/>
  <g class="cls-15">
    <path class="cls-10" d="m599.16,228.1h-249.58c-2.82,0-5.11-2.29-5.11-5.11h0c0-2.82,2.29-5.11,5.11-5.11h249.58c2.82,0,5.11,2.29,5.11,5.11h0c0,2.82-2.29,5.11-5.11,5.11Z"/>
    <rect class="cls-12" x="343.01" y="449.94" width="78.81" height="75.89" rx="8.52" ry="8.52"/>
    <rect class="cls-12" x="432.04" y="451.4" width="78.81" height="75.89" rx="8.52" ry="8.52"/>
    <rect class="cls-12" x="521.07" y="452.86" width="78.81" height="75.89" rx="8.52" ry="8.52"/>
    <rect class="cls-12" x="345.44" y="542.38" width="78.81" height="75.89" rx="8.52" ry="8.52"/>
    <rect class="cls-12" x="434.47" y="543.84" width="78.81" height="75.89" rx="8.52" ry="8.52"/>
    <rect class="cls-12" x="523.5" y="545.3" width="78.81" height="75.89" rx="8.52" ry="8.52"/>
    <rect class="cls-12" x="345.44" y="644.55" width="78.81" height="75.89" rx="8.52" ry="8.52"/>
    <rect class="cls-12" x="434.47" y="646.01" width="78.81" height="75.89" rx="8.52" ry="8.52"/>
    <rect class="cls-12" x="523.5" y="647.47" width="78.81" height="75.89" rx="8.52" ry="8.52"/>
    <path class="cls-11" d="m521.31,759.85h-103.62c-2.81,0-5.11-2.3-5.11-5.11h0c0-2.81,2.3-5.11,5.11-5.11h103.62c2.81,0,5.11,2.3,5.11,5.11h0c0,2.81-2.3,5.11-5.11,5.11Z"/>
  </g>
  <path class="cls-7" d="m207.39,713.5c-6.99,2.5-13.98,5-20.97,7.49"/>
  <rect class="cls-1" x="149.86" y="549.68" width="242.28" height="151.79" rx="12.27" ry="12.27"/>
  <path class="cls-3" d="m372.44,618.28h-202.87c-2.81,0-5.11-2.3-5.11-5.11h0c0-2.81,2.3-5.11,5.11-5.11h202.87c2.81,0,5.11,2.3,5.11,5.11h0c0,2.81-2.3,5.11-5.11,5.11Z"/>
  <path class="cls-3" d="m372.44,645.28h-202.87c-2.81,0-5.11-2.3-5.11-5.11h0c0-2.81,2.3-5.11,5.11-5.11h202.87c2.81,0,5.11,2.3,5.11,5.11h0c0,2.81-2.3,5.11-5.11,5.11Z"/>
  <path class="cls-18" d="m250.88,683.96h-73.28c-7.22,0-13.14-5.91-13.14-13.14h0c0-7.22,5.91-13.14,13.14-13.14h73.28c7.22,0,13.14,5.91,13.14,13.14h0c0,7.22-5.91,13.14-13.14,13.14Z"/>
  <path class="cls-3" d="m363.03,683.96h-73.28c-7.22,0-13.14-5.91-13.14-13.14h0c0-7.22,5.91-13.14,13.14-13.14h73.28c7.22,0,13.14,5.91,13.14,13.14h0c0,7.22-5.91,13.14-13.14,13.14Z"/>
  <text class="cls-17" transform="translate(175.81 595.3)"><tspan x="0" y="0">15:30</tspan></text>
  <text class="cls-17" transform="translate(259.33 594.93)"><tspan x="0" y="0">am</tspan></text>
  <path class="cls-20" d="m350.81,529.25c-13.32,0-24.16,10.86-24.16,24.21,0,16.4,21.62,41.28,22.56,42.32.39.47.93.7,1.58.72.59,0,1.16-.26,1.58-.72.93-1.03,22.71-25.92,22.63-42.34-.08-13.32-10.92-24.19-24.19-24.19Zm0,41.36c-5.71,0-10.37-4.63-10.37-10.37s4.66-10.37,10.37-10.37,10.37,4.66,10.37,10.37-4.63,10.37-10.37,10.37Z"/>
  <path class="cls-1" d="m685.3,337.9h0c-40.15,0-72.99-32.85-72.99-72.99h0c0-40.15,32.85-72.99,72.99-72.99h0c40.15,0,72.99,32.85,72.99,72.99h0c0,40.15-32.85,72.99-72.99,72.99Z"/>
  <g>
    <path class="cls-5" d="m685.3,364.51h0c-54.78,0-99.61-44.82-99.61-99.61h0c0-54.78,44.82-99.61,99.61-99.61h0c54.78,0,99.61,44.82,99.61,99.61h0c0,54.78-44.82,99.61-99.61,99.61Z"/>
    <path class="cls-1" d="m685.3,345.35h0c-44.25,0-80.45-36.2-80.45-80.45h0c0-44.25,36.2-80.45,80.45-80.45h0c44.25,0,80.45,36.2,80.45,80.45h0c0,44.25-36.2,80.45-80.45,80.45Z"/>
    <g>
      <path class="cls-5" d="m681.33,280.41h0c-2.81,0-5.11-2.3-5.11-5.11v-44.93c0-2.81,2.3-5.11,5.11-5.11h0c2.81,0,5.11,2.3,5.11,5.11v44.93c0,2.81-2.3,5.11-5.11,5.11Z"/>
      <path class="cls-5" d="m676.23,276.09h0c0-2.81,2.3-5.11,5.11-5.11h44.93c2.81,0,5.11,2.3,5.11,5.11h0c0,2.81-2.3,5.11-5.11,5.11h-44.93c-2.81,0-5.11-2.3-5.11-5.11Z"/>
    </g>
  </g>
  <g>
    <rect class="cls-1" x="564.79" y="500.06" width="263.74" height="103.15" rx="10.55" ry="10.55"/>
    <g>
      <circle class="cls-18" cx="614.78" cy="551.93" r="32.78"/>
      <path class="cls-1" d="m620.73,561.58c-.03.05-.06.1-.09.16-1.09,1.79-3.48,2.28-5.2,1.08-1.46-1.02-2.76-2.08-3.92-3.15-2.67-2.69-5.33-6.38-7.4-11.45-.05-.12-.11-.23-.17-.34.43-1.04,1.83-1.81,3.17-2.34,1.65-.65,2.59-2.41,2.22-4.15l-.72-3.36c-.4-1.9-2.23-3.19-4.14-2.84-6.52,1.17-7.3,6.97-7.3,6.97.01.05.02.09.03.13-.01.12-.02.24-.02.37.03.64.82,15.88,18.41,26.26.26.15.54.25.82.3,3.19,1.62,5.52,2.08,5.75,2.12.12.02.24.03.35.04.04.02.08.04.12.05,0,0,5.6.07,7.66-5.88.63-1.83-.39-3.83-2.21-4.51l-2.92-1.09c-1.68-.62-3.54.08-4.44,1.63Z"/>
    </g>
    <path class="cls-18" d="m733.02,543.11h-71.14c-2.79,0-5.08-2.28-5.08-5.08h0c0-2.79,2.28-5.08,5.08-5.08h71.14c2.79,0,5.08,2.28,5.08,5.08h0c0,2.79-2.28,5.08-5.08,5.08Z"/>
    <path class="cls-3" d="m805.13,566.4h-143.77c-2.77,0-5.04-2.27-5.04-5.04h0c0-2.77,2.27-5.04,5.04-5.04h143.77c2.77,0,5.04,2.27,5.04,5.04h0c0,2.77-2.27,5.04-5.04,5.04Z"/>
    <path class="cls-3" d="m804.64,582.94h-143.77c-2.77,0-5.04-2.27-5.04-5.04h0c0-2.77,2.27-5.04,5.04-5.04h143.77c2.77,0,5.04,2.27,5.04,5.04h0c0,2.77-2.27,5.04-5.04,5.04Z"/>
  </g>
  <g>
    <rect class="cls-1" x="730.79" y="643.54" width="144.61" height="148.71"/>
    <g>
      <rect class="cls-13" x="730.79" y="643.54" width="144.61" height="35.96"/>
      <path class="cls-22" d="m762.52,656.46h0c-3.6,0-6.54-2.94-6.54-6.54v-20.55c0-3.6,2.94-6.54,6.54-6.54h0c3.6,0,6.54,2.94,6.54,6.54v20.55c0,3.6-2.94,6.54-6.54,6.54Z"/>
      <path class="cls-22" d="m802.66,656.46h0c-3.6,0-6.54-2.94-6.54-6.54v-20.55c0-3.6,2.94-6.54,6.54-6.54h0c3.6,0,6.54,2.94,6.54,6.54v20.55c0,3.6-2.94,6.54-6.54,6.54Z"/>
      <path class="cls-22" d="m839.57,656.46h0c-3.6,0-6.54-2.94-6.54-6.54v-20.55c0-3.6,2.94-6.54,6.54-6.54h0c3.6,0,6.54,2.94,6.54,6.54v20.55c0,3.6-2.94,6.54-6.54,6.54Z"/>
    </g>
    <text class="cls-16" transform="translate(762.52 780.73)"><tspan x="0" y="0">6</tspan></text>
  </g>
  <g>
    <circle class="cls-4" cx="473.88" cy="351.33" r="64.92"/>
    <circle class="cls-4" cx="473.88" cy="351.33" r="62.76"/>
    <path class="cls-1" d="m416.02,348.85s-.02,0-.03,0c-.33-.02-.58-.3-.56-.62.13-2.46.41-4.94.85-7.35.06-.32.37-.54.69-.48.32.06.54.37.48.69-.43,2.37-.71,4.79-.83,7.2-.02.32-.28.56-.59.56Z"/>
    <path class="cls-1" d="m422.12,325.86c-.09,0-.18-.02-.27-.06-.29-.15-.41-.51-.26-.8,10.02-19.86,30.06-32.19,52.28-32.19,3.55,0,7.1.32,10.56.95.32.06.54.37.48.69-.06.32-.37.54-.69.48-3.39-.62-6.87-.93-10.35-.93-21.78,0-41.4,12.08-51.22,31.54-.1.21-.31.33-.53.33Z"/>
    <circle class="cls-1" cx="475.24" cy="352.7" r="53.12" transform="translate(-110.2 439.35) rotate(-45)"/>
    <path class="cls-4" d="m491.51,332.63c0,8.99-7.29,18.7-16.29,18.7s-16.29-9.71-16.29-18.7,7.29-15.38,16.29-15.38,16.29,6.38,16.29,15.38Z"/>
    <path class="cls-4" d="m455.01,385.96h39.76c4.19,0,7.89-2.7,9.17-6.69l2.14-6.69c1.57-4.9-.98-10.2-5.81-11.96-16.18-5.92-32.91-5.16-50.05.55-4.8,1.6-7.47,6.73-6.14,11.62l1.65,6.07c1.14,4.19,4.94,7.1,9.29,7.1Z"/>
  </g>
</svg>